<?xml version="1.0" encoding="UTF-8"?>
<!-- Generated by jsxcad -->
<!DOCTYPE svg PUBLIC "-//W3C//DTD SVG 1.1 Tiny//EN" "http://www.w3.org/Graphics/SVG/1.1/DTD/svg11-tiny.dtd">
<svg baseProfile="tiny" height="129.22717950465034mm" width="61.587248322147694mm" viewBox="-0.5134228187919626 -7.885714285714299 61.587248322147694 129.22717950465034" version="1.1" stroke="black" stroke-width=".1" fill="none" xmlns="http://www.w3.org/2000/svg">
<path fill="#bababa" stroke="#bababa" d="M0.8959731543624161 -20.36228762209752 L1.4093959731543617 -19.366409858325504 L1.4093959731543613 6.815316029999367 L0.8959731543624153 5.819438266227349 z"/>
<path fill="#bababa" stroke="#bababa" d="M59.151006711409394 -9.175635491139866 L59.66442953020134 -8.179757727367852 L59.66442953020134 -34.36148361569272 L59.151006711409394 -35.357361379464734 z"/>
<path fill="#bababa" stroke="#bababa" d="M0.8959731543624161 5.8194382662273485 L1.4093959731543624 6.815316029999363 L59.66442953020134 -8.179757727367853 L59.151006711409394 -9.17563549113987 z"/>
<path fill="#bababa" stroke="#bababa" d="M59.151006711409394 -35.35736137946474 L59.66442953020134 -34.36148361569273 L1.4093959731543624 -19.366409858325515 L0.8959731543624161 -20.362287622097526 z"/>
<path fill="#bababa" stroke="#bababa" d="M61.0738255033557 -35.43188187140764 L61.0738255033557 -7.83492755668683 L60.560402684563755 -8.830805320458847 L60.560402684563755 -36.427759635179655 z"/>
<path fill="#bababa" stroke="#bababa" d="M0 -19.711240029006536 L61.0738255033557 -35.43188187140765 L60.560402684563755 -36.42775963517966 L-0.5134228187919463 -20.70711779277855 z"/>
<path fill="#bababa" stroke="#bababa" d="M-1.162010433609356e-15 7.8857142857142835 L-2.065452237610005e-15 -19.711240029006525 L-0.5134228187919484 -20.70711779277854 L-0.5134228187919475 6.889836521942268 z"/>
<path fill="#bababa" stroke="#bababa" d="M61.0738255033557 -7.834927556686831 L0 7.885714285714282 L-0.5134228187919463 6.889836521942268 L60.560402684563755 -8.830805320458849 z"/>
<path fill="#bababa" stroke="#bababa" d="M60.56040268456375 -8.830805320458845 L-0.5134228187919462 6.889836521942268 L-0.5134228187919462 -20.707117792778536 L60.56040268456375 -36.42775963517965 z M1.0525727069351227 -20.40259696015496 L0.895973154362416 -20.36228762209752 L0.895973154362416 5.81943826622735 L59.151006711409394 -9.175635491139868 L59.151006711409394 -35.357361379464734 z"/>
<path fill="#bababa" stroke="#bababa" d="M0 -19.71124002900652 L0 7.885714285714284 L61.07382550335569 -7.83492755668683 L61.07382550335569 -35.43188187140764 z M1.5659955257270692 -19.40671919638294 L59.66442953020134 -34.36148361569272 L59.66442953020134 -8.179757727367853 L1.4093959731543622 6.815316029999366 L1.4093959731543622 -19.3664098583255 z"/>
<path fill="#3c3c3c" stroke="#3c3c3c" d="M59.151006711409394 -35.357361379464734 L59.66442953020134 -34.36148361569272 L59.66442953020134 -8.179757727367852 L59.151006711409394 -9.175635491139866 z"/>
<path fill="#3c3c3c" stroke="#3c3c3c" d="M0.8959731543624161 -20.362287622097522 L1.4093959731543624 -19.366409858325518 L59.66442953020134 -34.36148361569273 L59.151006711409394 -35.35736137946474 z"/>
<path fill="#3c3c3c" stroke="#3c3c3c" d="M0.8959731543624153 5.819438266227349 L1.4093959731543613 6.815316029999367 L1.4093959731543617 -19.366409858325504 L0.8959731543624161 -20.36228762209752 z"/>
<path fill="#3c3c3c" stroke="#3c3c3c" d="M59.151006711409394 -9.17563549113987 L59.66442953020134 -8.179757727367855 L1.4093959731543624 6.815316029999364 L0.8959731543624161 5.819438266227346 z"/>
<path fill="#3c3c3c" stroke="#3c3c3c" d="M59.15100671140939 -35.357361379464734 L59.15100671140939 -9.175635491139866 L0.8959731543624161 5.81943826622735 L0.8959731543624161 -20.36228762209752 z"/>
<path fill="#3c3c3c" stroke="#3c3c3c" d="M59.66442953020133 -34.36148361569272 L1.4093959731543622 -19.366409858325504 L1.4093959731543622 6.815316029999367 L59.66442953020133 -8.179757727367852 z"/>
<path fill="#bababa" stroke="#bababa" d="M0.8959731543624162 -48.6668561500163 L1.4093959731543637 -47.67097838624427 L1.4093959731543617 -21.489252497919413 L0.895973154362416 -22.485130261691427 z"/>
<path fill="#bababa" stroke="#bababa" d="M59.15100671140939 -37.48020401905865 L59.66442953020134 -36.484326255286625 L59.66442953020134 -62.6660521436115 L59.151006711409394 -63.66192990738352 z"/>
<path fill="#bababa" stroke="#bababa" d="M0.8959731543624161 -22.485130261691435 L1.4093959731543624 -21.48925249791942 L59.66442953020134 -36.48432625528663 L59.151006711409394 -37.480204019058654 z"/>
<path fill="#bababa" stroke="#bababa" d="M59.151006711409394 -63.661929907383524 L59.66442953020134 -62.666052143611516 L1.4093959731543624 -47.67097838624429 L0.8959731543624161 -48.66685615001631 z"/>
<path fill="#bababa" stroke="#bababa" d="M61.0738255033557 -63.73645039932642 L61.0738255033557 -36.139496084605604 L60.560402684563755 -37.135373848377625 L60.560402684563755 -64.73232816309843 z"/>
<path fill="#bababa" stroke="#bababa" d="M0 -48.01580855692531 L61.0738255033557 -63.73645039932643 L60.560402684563755 -64.73232816309844 L-0.5134228187919463 -49.011686320697336 z"/>
<path fill="#bababa" stroke="#bababa" d="M-1.5210225143847821e-15 -20.418854242204493 L-1.188672047649628e-15 -48.0158085569253 L-0.5134228187919468 -49.011686320697315 L-0.5134228187919478 -21.414732005976507 z"/>
<path fill="#bababa" stroke="#bababa" d="M61.0738255033557 -36.13949608460561 L0 -20.418854242204496 L-0.5134228187919463 -21.414732005976525 L60.560402684563755 -37.13537384837763 z"/>
<path fill="#bababa" stroke="#bababa" d="M60.56040268456375 -37.135373848377625 L-0.5134228187919462 -21.41473200597651 L-0.5134228187919462 -49.011686320697315 L60.56040268456375 -64.73232816309843 z M1.0525727069351227 -48.707165488073734 L0.895973154362416 -48.6668561500163 L0.895973154362416 -22.485130261691424 L59.151006711409394 -37.48020401905864 L59.151006711409394 -63.66192990738352 z"/>
<path fill="#bababa" stroke="#bababa" d="M0 -48.01580855692529 L0 -20.418854242204493 L61.07382550335569 -36.139496084605604 L61.07382550335569 -63.73645039932641 z M1.5659955257270692 -47.71128772430172 L59.66442953020134 -62.6660521436115 L59.66442953020134 -36.48432625528663 L1.4093959731543622 -21.489252497919413 L1.4093959731543622 -47.67097838624428 z"/>
<path fill="#3c3c3c" stroke="#3c3c3c" d="M59.151006711409394 -63.66192990738352 L59.66442953020134 -62.6660521436115 L59.66442953020134 -36.484326255286625 L59.15100671140939 -37.48020401905865 z"/>
<path fill="#3c3c3c" stroke="#3c3c3c" d="M0.8959731543624161 -48.66685615001631 L1.4093959731543624 -47.670978386244286 L59.66442953020134 -62.666052143611516 L59.151006711409394 -63.66192990738353 z"/>
<path fill="#3c3c3c" stroke="#3c3c3c" d="M0.895973154362416 -22.485130261691427 L1.4093959731543617 -21.489252497919413 L1.4093959731543637 -47.67097838624427 L0.8959731543624162 -48.6668561500163 z"/>
<path fill="#3c3c3c" stroke="#3c3c3c" d="M59.151006711409394 -37.48020401905865 L59.66442953020134 -36.48432625528664 L1.4093959731543624 -21.489252497919427 L0.8959731543624161 -22.48513026169143 z"/>
<path fill="#3c3c3c" stroke="#3c3c3c" d="M59.15100671140939 -63.66192990738352 L59.15100671140939 -37.48020401905865 L0.8959731543624161 -22.485130261691427 L0.8959731543624161 -48.6668561500163 z"/>
<path fill="#3c3c3c" stroke="#3c3c3c" d="M59.66442953020133 -62.6660521436115 L1.4093959731543622 -47.67097838624428 L1.4093959731543622 -21.48925249791941 L59.66442953020133 -36.484326255286625 z"/>
<path fill="#bababa" stroke="#bababa" d="M0.8959731543624175 -76.97142467793508 L1.4093959731543597 -75.97554691416306 L1.4093959731543617 -49.79382102583819 L0.8959731543624168 -50.789698789610206 z"/>
<path fill="#bababa" stroke="#bababa" d="M59.151006711409394 -65.78477254697742 L59.66442953020134 -64.78889478320541 L59.66442953020133 -90.97062067153027 L59.151006711409394 -91.96649843530228 z"/>
<path fill="#bababa" stroke="#bababa" d="M0.8959731543624161 -50.78969878961022 L1.4093959731543624 -49.79382102583821 L59.66442953020134 -64.78889478320541 L59.151006711409394 -65.78477254697742 z"/>
<path fill="#bababa" stroke="#bababa" d="M59.151006711409394 -91.9664984353023 L59.66442953020134 -90.9706206715303 L1.4093959731543624 -75.97554691416308 L0.8959731543624161 -76.97142467793508 z"/>
<path fill="#bababa" stroke="#bababa" d="M61.07382550335571 -92.04101892724519 L61.0738255033557 -64.44406461252439 L60.560402684563755 -65.4399423762964 L60.560402684563755 -93.0368966910172 z"/>
<path fill="#bababa" stroke="#bababa" d="M0 -76.3203770848441 L61.0738255033557 -92.0410189272452 L60.560402684563755 -93.03689669101723 L-0.5134228187919463 -77.31625484861611 z"/>
<path fill="#bababa" stroke="#bababa" d="M-6.442423244244049e-16 -48.72342277012327 L3.626527523350726e-16 -76.32037708484408 L-0.5134228187919466 -77.3162548486161 L-0.5134228187919476 -49.71930053389529 z"/>
<path fill="#bababa" stroke="#bababa" d="M61.0738255033557 -64.44406461252439 L0 -48.723422770123285 L-0.5134228187919463 -49.71930053389529 L60.560402684563755 -65.43994237629641 z"/>
<path fill="#bababa" stroke="#bababa" d="M60.56040268456375 -65.4399423762964 L-0.5134228187919462 -49.719300533895286 L-0.5134228187919462 -77.3162548486161 L60.56040268456375 -93.03689669101722 z M1.0525727069351227 -77.01173401599252 L0.895973154362416 -76.97142467793508 L0.895973154362416 -50.789698789610206 L59.151006711409394 -65.78477254697742 L59.151006711409394 -91.96649843530228 z"/>
<path fill="#bababa" stroke="#bababa" d="M0 -76.32037708484408 L0 -48.72342277012327 L61.07382550335569 -64.44406461252439 L61.07382550335569 -92.04101892724519 z M1.5659955257270692 -76.01585625222049 L59.66442953020134 -90.97062067153027 L59.66442953020134 -64.78889478320541 L1.4093959731543622 -49.793821025838184 L1.4093959731543622 -75.97554691416305 z"/>
<path fill="#3c3c3c" stroke="#3c3c3c" d="M59.151006711409394 -91.96649843530228 L59.66442953020133 -90.97062067153027 L59.66442953020134 -64.78889478320541 L59.151006711409394 -65.78477254697742 z"/>
<path fill="#3c3c3c" stroke="#3c3c3c" d="M0.8959731543624161 -76.97142467793509 L1.4093959731543624 -75.97554691416306 L59.66442953020134 -90.9706206715303 L59.151006711409394 -91.96649843530231 z"/>
<path fill="#3c3c3c" stroke="#3c3c3c" d="M0.8959731543624168 -50.789698789610206 L1.4093959731543617 -49.79382102583819 L1.4093959731543597 -75.97554691416306 L0.8959731543624175 -76.97142467793508 z"/>
<path fill="#3c3c3c" stroke="#3c3c3c" d="M59.151006711409394 -65.78477254697744 L59.66442953020134 -64.78889478320542 L1.4093959731543624 -49.79382102583819 L0.8959731543624161 -50.78969878961021 z"/>
<path fill="#3c3c3c" stroke="#3c3c3c" d="M59.15100671140939 -91.9664984353023 L59.15100671140939 -65.78477254697741 L0.8959731543624161 -50.7896987896102 L0.8959731543624161 -76.97142467793508 z"/>
<path fill="#3c3c3c" stroke="#3c3c3c" d="M59.66442953020133 -90.97062067153027 L1.4093959731543622 -75.97554691416306 L1.4093959731543622 -49.793821025838184 L59.66442953020133 -64.78889478320541 z"/>
<path fill="#bababa" stroke="#bababa" d="M0.8959731543624129 -105.27599320585385 L1.4093959731543633 -104.28011544208182 L1.409395973154363 -78.09838955375696 L0.8959731543624151 -79.09426731752897 z"/>
<path fill="#bababa" stroke="#bababa" d="M59.15100671140939 -94.0893410748962 L59.66442953020134 -93.09346331112417 L59.66442953020133 -119.27518919944906 L59.151006711409394 -120.27106696322106 z"/>
<path fill="#bababa" stroke="#bababa" d="M0.8959731543624161 -79.094267317529 L1.4093959731543624 -78.09838955375697 L59.66442953020134 -93.09346331112421 L59.151006711409394 -94.08934107489621 z"/>
<path fill="#bababa" stroke="#bababa" d="M59.151006711409394 -120.2710669632211 L59.66442953020134 -119.27518919944907 L1.4093959731543624 -104.28011544208185 L0.8959731543624161 -105.27599320585388 z"/>
<path fill="#bababa" stroke="#bababa" d="M61.0738255033557 -120.34558745516398 L61.0738255033557 -92.74863314044316 L60.560402684563755 -93.74451090421518 L60.56040268456376 -121.34146521893598 z"/>
<path fill="#bababa" stroke="#bababa" d="M0 -104.62494561276287 L61.0738255033557 -120.345587455164 L60.560402684563755 -121.34146521893602 L-0.5134228187919463 -105.62082337653491 z"/>
<path fill="#bababa" stroke="#bababa" d="M-2.2390466759356338e-15 -77.02799129804205 L3.2630667723684205e-15 -104.62494561276284 L-0.5134228187919464 -105.62082337653487 L-0.5134228187919493 -78.02386906181407 z"/>
<path fill="#bababa" stroke="#bababa" d="M61.0738255033557 -92.74863314044318 L0 -77.02799129804207 L-0.5134228187919463 -78.02386906181408 L60.560402684563755 -93.74451090421519 z"/>
<path fill="#bababa" stroke="#bababa" d="M60.56040268456375 -93.74451090421518 L-0.5134228187919462 -78.02386906181405 L-0.5134228187919462 -105.62082337653487 L60.56040268456375 -121.341465218936 z M1.0525727069351227 -105.31630254391129 L0.895973154362416 -105.27599320585385 L0.895973154362416 -79.09426731752897 L59.151006711409394 -94.0893410748962 L59.151006711409394 -120.27106696322107 z"/>
<path fill="#bababa" stroke="#bababa" d="M0 -104.62494561276286 L0 -77.02799129804204 L61.07382550335569 -92.74863314044316 L61.07382550335569 -120.34558745516397 z M1.5659955257270692 -104.32042478013926 L59.66442953020134 -119.27518919944904 L59.66442953020134 -93.09346331112418 L1.4093959731543622 -78.09838955375697 L1.4093959731543622 -104.28011544208184 z"/>
<path fill="#3c3c3c" stroke="#3c3c3c" d="M59.151006711409394 -120.27106696322106 L59.66442953020133 -119.27518919944906 L59.66442953020134 -93.09346331112417 L59.15100671140939 -94.0893410748962 z"/>
<path fill="#3c3c3c" stroke="#3c3c3c" d="M0.8959731543624161 -105.27599320585388 L1.4093959731543624 -104.28011544208186 L59.66442953020134 -119.27518919944907 L59.151006711409394 -120.2710669632211 z"/>
<path fill="#3c3c3c" stroke="#3c3c3c" d="M0.8959731543624151 -79.09426731752897 L1.409395973154363 -78.09838955375696 L1.4093959731543633 -104.28011544208182 L0.8959731543624129 -105.27599320585385 z"/>
<path fill="#3c3c3c" stroke="#3c3c3c" d="M59.151006711409394 -94.08934107489623 L59.66442953020134 -93.0934633111242 L1.4093959731543624 -78.09838955375697 L0.8959731543624161 -79.09426731752899 z"/>
<path fill="#3c3c3c" stroke="#3c3c3c" d="M59.15100671140939 -120.27106696322106 L59.15100671140939 -94.0893410748962 L0.8959731543624161 -79.09426731752897 L0.8959731543624161 -105.27599320585384 z"/>
<path fill="#3c3c3c" stroke="#3c3c3c" d="M59.66442953020133 -119.27518919944904 L1.4093959731543622 -104.28011544208182 L1.4093959731543622 -78.09838955375697 L59.66442953020133 -93.09346331112418 z"/>
</svg>