<?xml version="1.0" encoding="UTF-8"?>
<!-- Generated by jsxcad -->
<!DOCTYPE svg PUBLIC "-//W3C//DTD SVG 1.1 Tiny//EN" "http://www.w3.org/Graphics/SVG/1.1/DTD/svg11-tiny.dtd">
<svg baseProfile="tiny" height="73.04896136069614mm" width="61.587248322147694mm" viewBox="-0.5134228187919626 -8.316633197597668 61.587248322147694 73.04896136069614" version="1.1" stroke="black" stroke-width=".1" fill="none" xmlns="http://www.w3.org/2000/svg">
<path fill="#bababa" stroke="#bababa" d="M9.603336079569196 5.8800944279165 L9.437499999999993 6.016201563830119 L9.437499999999993 5.2641783586089455 L9.861111111111107 4.916506758892547 L9.861111111111109 5.668529964113721 z"/>
<path fill="#bababa" stroke="#bababa" d="M10.046516871490917 5.65058198402768 L9.861111111111109 5.668529964113718 L9.861111111111109 4.916506758892542 L9.865771812080537 4.916055585379835 L10.208053691275166 5.634944607827987 z"/>
<path fill="#bababa" stroke="#bababa" d="M9.4375 5.264178358608947 L9.4375 6.016201563830122 L9.4375 6.208488034807831 L9.4375 5.456464829586657 z"/>
<path fill="#bababa" stroke="#bababa" d="M10.208053691275166 5.6349446078279914 L9.865771812080537 4.916055585379841 L9.865771812080537 -22.958342539823132 L10.208053691275165 -22.29442403064179 z"/>
<path fill="#bababa" stroke="#bababa" d="M9.268456375838925 -22.052568002297157 L9.268456375838925 6.252000525621619 L9.437499999999998 6.20848803480783 L9.437499999999998 6.016201563830122 L9.86111111111111 5.66852996411372 L10.208053691275166 5.634944607827991 L10.208053691275166 -22.29442403064179 z"/>
<path fill="#bababa" stroke="#bababa" d="M8.926174496644293 5.588082016440275 L9.268456375838923 6.25200052562162 L9.268456375838925 -22.052568002297157 L8.926174496644293 -22.7164865114785 z"/>
<path fill="#bababa" stroke="#bababa" d="M9.494812002244748 5.217140509551783 L9.437499999999998 5.264178358608947 L9.437499999999998 5.456464829586657 L8.926174496644293 5.588082016440276 L8.926174496644293 -22.716486511478504 L9.865771812080535 -22.958342539823136 L9.865771812080535 4.91605558537984 L9.861111111111109 4.916506758892544 z"/>
<path fill="#bababa" stroke="#bababa" d="M9.268456375838925 -22.052568002297168 L10.208053691275166 -22.2944240306418 L9.865771812080537 -22.958342539823136 L8.926174496644295 -22.716486511478504 z"/>
<path fill="#bababa" stroke="#bababa" d="M9.268456375838925 6.252000525621613 L8.926174496644295 5.588082016440274 L9.4375 5.45646482958665 L9.4375 6.208488034807824 z"/>
<path fill="#bababa" stroke="#bababa" d="M54.99999999999999 -6.0501885424220445 L54.469512195121936 -5.7583089548807 L54.469512195121936 -5.915047135605509 L54.99999999999999 -6.07037708484409 z"/>
<path fill="#bababa" stroke="#bababa" d="M54.99999999999999 -6.050188542422047 L54.99999999999999 -6.070377084844093 L55.07843137254901 -6.047411917681483 z"/>
<path fill="#bababa" stroke="#bababa" d="M54.46951219512195 -5.915047135605511 L54.46951219512195 -5.758308954880701 L54.36912751677852 -5.56080495138811 L54.27499999999999 -5.58241811699299 z"/>
<path fill="#bababa" stroke="#bababa" d="M55.308724832214764 -5.598944863265375 L54.96644295302013 -6.262863372446719 L54.96644295302013 -34.56743190036549 L55.308724832214764 -33.903513391184156 z"/>
<path fill="#bababa" stroke="#bababa" d="M54.36912751677851 -5.560804951388111 L54.469512195121936 -5.7583089548807 L54.999999999999986 -6.050188542422043 L55.07843137254901 -6.047411917681478 L55.07843137254901 -5.539666424945613 L55.30872483221476 -5.598944863265376 L55.30872483221476 -33.90351339118415 L54.36912751677851 -33.66165736283952 z"/>
<path fill="#bababa" stroke="#bababa" d="M55.07843137254902 -5.539666424945612 L55.07843137254902 -6.047411917681477 L55 -6.070377084844089 L54.46951219512195 -5.91504713560551 L54.275 -5.582418116992989 L54.275 -5.539666424945612 z"/>
<path fill="#bababa" stroke="#bababa" d="M54.275 -5.539666424945612 L54.275 -5.582418116992989 L54.36912751677852 -5.560804951388111 L54.36912751677852 -33.66165736283952 L54.02684563758389 -34.32557587202086 L54.02684563758389 -6.021007344102086 z"/>
<path fill="#bababa" stroke="#bababa" d="M54.96644295302013 -6.262863372446719 L54.02684563758388 -6.0210073441020855 L54.02684563758388 -34.32557587202086 L54.96644295302013 -34.56743190036549 z"/>
<path fill="#bababa" stroke="#bababa" d="M54.36912751677852 -33.66165736283953 L55.308724832214764 -33.903513391184156 L54.96644295302013 -34.567431900365506 L54.02684563758389 -34.32557587202087 z"/>
<path fill="#bababa" stroke="#bababa" d="M54.96644295302013 -6.262863372446723 L55.308724832214764 -5.598944863265378 L55.07843137254902 -5.539666424945613 L54.275 -5.539666424945613 L54.02684563758389 -6.021007344102088 z"/>
<path fill="#bababa" stroke="#bababa" d="M9.4375 5.264178358608947 L9.4375 5.456464829586657 L9.4375 5.0593183466279905 L9.4375 4.867031875650282 z"/>
<path fill="#bababa" stroke="#bababa" d="M10.389150943396224 4.865390502444665 L9.861111111111109 4.916506758892542 L9.861111111111109 4.628399434744608 L10.389150943396224 4.713202698868111 z"/>
<path fill="#bababa" stroke="#bababa" d="M9.861111111111107 4.916506758892545 L9.437499999999995 5.264178358608945 L9.437499999999996 4.867031875650279 L9.861111111111105 4.628399434744611 z"/>
<path fill="#bababa" stroke="#bababa" d="M10.625 5.059318346627986 L9.4375 5.059318346627986 L9.4375 5.4564648295866505 L0 7.885714285714281 L-0.5134228187919463 6.889836521942264 L60.560402684563755 -8.830805320458849 L61.0738255033557 -7.834927556686831 L10.625 5.150797679477877 z"/>
<path fill="#bababa" stroke="#bababa" d="M0.8959731543624153 5.819438266227349 L0.8959731543624161 -20.36228762209752 L1.4093959731543617 -19.366409858325504 L1.4093959731543613 6.815316029999367 z"/>
<path fill="#bababa" stroke="#bababa" d="M59.151006711409394 -35.357361379464734 L59.151006711409394 -9.175635491139866 L59.66442953020134 -8.179757727367852 L59.66442953020134 -34.36148361569272 z"/>
<path fill="#bababa" stroke="#bababa" d="M58.99440715883669 -9.135326153082435 L0.8959731543624161 5.8194382662273485 L1.4093959731543624 6.815316029999363 L59.66442953020134 -8.179757727367853 L59.151006711409394 -9.17563549113987 z"/>
<path fill="#bababa" stroke="#bababa" d="M1.052572706935123 -20.40259696015496 L59.151006711409394 -35.35736137946474 L59.66442953020134 -34.36148361569273 L1.4093959731543624 -19.366409858325515 L0.8959731543624161 -20.362287622097526 z"/>
<path fill="#bababa" stroke="#bababa" d="M61.0738255033557 -35.43188187140764 L61.0738255033557 -7.83492755668683 L60.560402684563755 -8.830805320458847 L60.560402684563755 -36.427759635179655 z"/>
<path fill="#bababa" stroke="#bababa" d="M0 -19.711240029006536 L61.0738255033557 -35.43188187140765 L60.560402684563755 -36.42775963517966 L-0.5134228187919463 -20.70711779277855 z"/>
<path fill="#bababa" stroke="#bababa" d="M-1.162010433609356e-15 7.8857142857142835 L-2.065452237610005e-15 -19.711240029006525 L-0.5134228187919484 -20.70711779277854 L-0.5134228187919475 6.889836521942268 z"/>
<path fill="#bababa" stroke="#bababa" d="M9.4375 5.0593183466279905 L10.625 5.0593183466279905 L10.389150943396226 4.713202698868114 L9.86111111111111 4.628399434744612 L9.4375 4.867031875650281 z"/>
<path fill="#bababa" stroke="#bababa" d="M10.539599687593084 5.047452504250998 L10.389150943396228 4.865390502444673 L10.389150943396226 4.713202698868114 L10.625000000000002 5.05931834662799 L10.625 5.150797679477882 z"/>
<path fill="#bababa" stroke="#bababa" d="M60.56040268456375 -8.830805320458845 L-0.5134228187919462 6.889836521942268 L-0.5134228187919462 -20.707117792778536 L60.56040268456375 -36.42775963517965 z M1.0525727069351227 -20.40259696015496 L0.895973154362416 -20.36228762209752 L0.895973154362416 5.81943826622735 L59.151006711409394 -9.175635491139868 L59.151006711409394 -35.357361379464734 z"/>
<path fill="#bababa" stroke="#bababa" d="M10.401583244000989 4.880435157999921 L10.624999999999998 5.150797679477882 L61.0738255033557 -7.834927556686831 L61.0738255033557 -35.43188187140764 L0 -19.71124002900652 L0 7.885714285714284 L9.437499999999998 5.456464829586656 L9.437499999999998 5.264178358608947 L9.861111111111109 4.916506758892545 L10.389150943396224 4.865390502444673 z M59.50782997762863 -8.139448389310413 L1.4093959731543622 6.815316029999367 L1.4093959731543622 -19.366409858325504 L59.66442953020134 -34.36148361569272 L59.66442953020134 -8.179757727367852 z"/>
<path fill="#3c3c3c" stroke="#3c3c3c" d="M59.151006711409394 -35.357361379464734 L59.66442953020134 -34.36148361569272 L59.66442953020134 -8.179757727367852 L59.151006711409394 -9.175635491139866 z"/>
<path fill="#3c3c3c" stroke="#3c3c3c" d="M0.8959731543624161 -20.362287622097522 L1.4093959731543624 -19.366409858325518 L59.66442953020134 -34.36148361569273 L59.151006711409394 -35.35736137946474 z"/>
<path fill="#3c3c3c" stroke="#3c3c3c" d="M0.8959731543624153 5.819438266227349 L1.4093959731543613 6.815316029999367 L1.4093959731543617 -19.366409858325504 L0.8959731543624161 -20.36228762209752 z"/>
<path fill="#3c3c3c" stroke="#3c3c3c" d="M59.151006711409394 -9.17563549113987 L59.66442953020134 -8.179757727367855 L1.4093959731543624 6.815316029999364 L0.8959731543624161 5.819438266227346 z"/>
<path fill="#3c3c3c" stroke="#3c3c3c" d="M59.15100671140939 -35.357361379464734 L59.15100671140939 -9.175635491139866 L0.8959731543624161 5.81943826622735 L0.8959731543624161 -20.36228762209752 z"/>
<path fill="#3c3c3c" stroke="#3c3c3c" d="M59.66442953020133 -34.36148361569272 L1.4093959731543622 -19.366409858325504 L1.4093959731543622 6.815316029999367 L59.66442953020133 -8.179757727367852 z"/>
<path fill="#bababa" stroke="#bababa" d="M9.437500000000009 -50.208362550052016 L9.861111111111112 -50.07876926795708 L9.861111111111116 -50.830792473178256 L9.437500000000012 -50.96038575527319 z"/>
<path fill="#bababa" stroke="#bababa" d="M9.86111111111111 -50.830792473178256 L9.86111111111111 -50.07876926795709 L10.208053691275166 -50.22379266911158 L9.865771812080535 -50.832740665026115 z"/>
<path fill="#bababa" stroke="#bababa" d="M9.4375 -50.960385755273194 L9.4375 -51.1526722262509 L9.4375 -50.40064902102973 L9.4375 -50.208362550052016 z"/>
<path fill="#bababa" stroke="#bababa" d="M9.865771812080537 -22.958342539823136 L9.865771812080535 -50.83274066502611 L10.208053691275166 -50.22379266911157 L10.208053691275166 -22.294424030641792 z"/>
<path fill="#bababa" stroke="#bababa" d="M9.437499999999998 -50.208362550052016 L9.437499999999998 -50.40064902102972 L9.268456375838925 -50.35713653021593 L9.268456375838925 -22.052568002297157 L10.208053691275166 -22.29442403064179 L10.208053691275166 -50.223792669111575 L9.861111111111109 -50.07876926795708 z"/>
<path fill="#bababa" stroke="#bababa" d="M8.926174496644293 -22.7164865114785 L9.268456375838925 -22.052568002297157 L9.268456375838925 -50.35713653021593 L8.926174496644295 -51.021055039397275 z"/>
<path fill="#bababa" stroke="#bababa" d="M9.437499999999998 -51.0144234041484 L9.437499999999998 -50.96038575527319 L9.861111111111109 -50.830792473178256 L9.865771812080537 -50.83274066502611 L9.865771812080537 -22.958342539823136 L8.926174496644293 -22.716486511478504 L8.926174496644293 -51.02105503939728 L9.437499999999998 -51.1526722262509 z"/>
<path fill="#bababa" stroke="#bababa" d="M8.926174496644295 -51.0210550393973 L9.268456375838925 -50.35713653021595 L9.4375 -50.40064902102973 L9.4375 -51.15267222625091 z"/>
<path fill="#bababa" stroke="#bababa" d="M10.208053691275166 -22.2944240306418 L9.268456375838925 -22.052568002297168 L8.926174496644295 -22.716486511478504 L9.865771812080537 -22.958342539823136 z"/>
<path fill="#bababa" stroke="#bababa" d="M55 -61.59790427846266 L55.07843137254902 -61.641057988047315 L55 -61.6180928208847 z"/>
<path fill="#bababa" stroke="#bababa" d="M54.99999999999999 -61.618092820884705 L54.46951219512194 -61.77342277012328 L54.46951219512194 -61.616684589398474 L54.99999999999999 -61.59790427846265 z"/>
<path fill="#bababa" stroke="#bababa" d="M54.489528795811516 -62.14880348078318 L55.07843137254902 -62.14880348078318 L55.308724832214764 -62.20808191910295 L54.96644295302013 -62.872000428284295 L54.02684563758389 -62.63014439993965 L54.275 -62.14880348078318 z"/>
<path fill="#bababa" stroke="#bababa" d="M54.46951219512196 -61.77342277012327 L54.275 -62.1060517887358 L54.369127516778526 -61.762509774290926 L54.46951219512195 -61.61668458939845 z"/>
<path fill="#bababa" stroke="#bababa" d="M55.308724832214764 -33.903513391184156 L54.96644295302013 -34.56743190036549 L54.96644295302013 -62.872000428284274 L55.30872483221476 -62.20808191910293 z"/>
<path fill="#bababa" stroke="#bababa" d="M55.07843137254901 -61.95193014261541 L55.07843137254901 -61.6410579880473 L54.999999999999986 -61.59790427846265 L54.469512195121936 -61.61668458939846 L54.36912751677851 -61.762509774290926 L54.36912751677851 -33.66165736283952 L55.30872483221476 -33.90351339118415 L55.30872483221476 -62.20808191910293 L55.07843137254901 -62.14880348078317 z"/>
<path fill="#bababa" stroke="#bababa" d="M54.36912751677852 -61.762509774290926 L54.275 -62.10605178873579 L54.275 -62.148803480783165 L54.02684563758389 -62.630144399939645 L54.02684563758389 -34.32557587202086 L54.36912751677852 -33.66165736283952 z"/>
<path fill="#bababa" stroke="#bababa" d="M54.96644295302013 -34.56743190036549 L54.02684563758388 -34.32557587202086 L54.02684563758388 -62.63014439993964 L54.96644295302013 -62.872000428284274 z"/>
<path fill="#bababa" stroke="#bababa" d="M55 -62.14880348078317 L54.275 -62.14880348078317 L54.275 -62.10605178873579 L54.46951219512195 -61.77342277012327 L55 -61.61809282088469 L55.07843137254902 -61.6410579880473 L55.07843137254902 -62.14880348078317 z"/>
<path fill="#bababa" stroke="#bababa" d="M55.308724832214764 -33.903513391184156 L54.36912751677852 -33.66165736283953 L54.02684563758389 -34.32557587202087 L54.96644295302013 -34.567431900365506 z"/>
<path fill="#bababa" stroke="#bababa" d="M0.8959731543624162 -48.6668561500163 L1.4093959731543637 -47.67097838624427 L1.4093959731543617 -21.489252497919413 L0.895973154362416 -22.485130261691427 z"/>
<path fill="#bababa" stroke="#bababa" d="M59.15100671140939 -37.48020401905865 L59.66442953020134 -36.484326255286625 L59.66442953020134 -62.6660521436115 L59.151006711409394 -63.66192990738352 z"/>
<path fill="#bababa" stroke="#bababa" d="M0.8959731543624161 -22.485130261691435 L1.4093959731543624 -21.48925249791942 L59.66442953020134 -36.48432625528663 L59.151006711409394 -37.480204019058654 z"/>
<path fill="#bababa" stroke="#bababa" d="M59.151006711409394 -63.661929907383524 L59.66442953020134 -62.666052143611516 L1.4093959731543624 -47.67097838624429 L0.8959731543624161 -48.66685615001631 z"/>
<path fill="#bababa" stroke="#bababa" d="M61.0738255033557 -63.73645039932642 L61.0738255033557 -36.139496084605604 L60.560402684563755 -37.135373848377625 L60.560402684563755 -64.73232816309843 z"/>
<path fill="#bababa" stroke="#bababa" d="M0 -48.01580855692531 L61.0738255033557 -63.73645039932643 L60.560402684563755 -64.73232816309844 L-0.5134228187919463 -49.011686320697336 z"/>
<path fill="#bababa" stroke="#bababa" d="M-1.5210225143847821e-15 -20.418854242204493 L-1.188672047649628e-15 -48.0158085569253 L-0.5134228187919468 -49.011686320697315 L-0.5134228187919478 -21.414732005976507 z"/>
<path fill="#bababa" stroke="#bababa" d="M61.0738255033557 -36.13949608460561 L0 -20.418854242204496 L-0.5134228187919463 -21.414732005976525 L60.560402684563755 -37.13537384837763 z"/>
<path fill="#bababa" stroke="#bababa" d="M60.56040268456375 -37.135373848377625 L-0.5134228187919462 -21.41473200597651 L-0.5134228187919462 -49.011686320697315 L60.56040268456375 -64.73232816309843 z M1.0525727069351227 -48.707165488073734 L0.895973154362416 -48.6668561500163 L0.895973154362416 -22.485130261691424 L59.151006711409394 -37.48020401905864 L59.151006711409394 -63.66192990738352 z"/>
<path fill="#bababa" stroke="#bababa" d="M0 -48.01580855692529 L0 -20.418854242204493 L61.07382550335569 -36.139496084605604 L61.07382550335569 -63.73645039932641 z M1.5659955257270692 -47.71128772430172 L59.66442953020134 -62.6660521436115 L59.66442953020134 -36.48432625528663 L1.4093959731543622 -21.489252497919413 L1.4093959731543622 -47.67097838624428 z"/>
<path fill="#3c3c3c" stroke="#3c3c3c" d="M59.151006711409394 -63.66192990738352 L59.66442953020134 -62.6660521436115 L59.66442953020134 -36.484326255286625 L59.15100671140939 -37.48020401905865 z"/>
<path fill="#3c3c3c" stroke="#3c3c3c" d="M0.8959731543624161 -48.66685615001631 L1.4093959731543624 -47.670978386244286 L59.66442953020134 -62.666052143611516 L59.151006711409394 -63.66192990738353 z"/>
<path fill="#3c3c3c" stroke="#3c3c3c" d="M0.895973154362416 -22.485130261691427 L1.4093959731543617 -21.489252497919413 L1.4093959731543637 -47.67097838624427 L0.8959731543624162 -48.6668561500163 z"/>
<path fill="#3c3c3c" stroke="#3c3c3c" d="M59.151006711409394 -37.48020401905865 L59.66442953020134 -36.48432625528664 L1.4093959731543624 -21.489252497919427 L0.8959731543624161 -22.48513026169143 z"/>
<path fill="#3c3c3c" stroke="#3c3c3c" d="M59.15100671140939 -63.66192990738352 L59.15100671140939 -37.48020401905865 L0.8959731543624161 -22.485130261691427 L0.8959731543624161 -48.6668561500163 z"/>
<path fill="#3c3c3c" stroke="#3c3c3c" d="M59.66442953020133 -62.6660521436115 L1.4093959731543622 -47.67097838624428 L1.4093959731543622 -21.48925249791941 L59.66442953020133 -36.484326255286625 z"/>
<path fill="#bababa" stroke="#bababa" d="M10.624999999999998 5.0593183466279905 L10.624999999999996 7.885714285714284 L10.389150943396224 8.23182993347416 L10.389150943396224 5.405433994387867 z"/>
<path fill="#bababa" stroke="#bababa" d="M10.389150943396228 4.713202698868114 L10.389150943396228 7.539598637954408 L10.625000000000002 7.885714285714284 L10.625 5.0593183466279905 z"/>
<path fill="#bababa" stroke="#bababa" d="M9.861111111111109 4.6283994347446065 L9.861111111111109 7.4547953738309 L10.389150943396224 7.539598637954403 L10.389150943396224 4.713202698868109 z"/>
<path fill="#bababa" stroke="#bababa" d="M9.437499999999996 4.867031875650281 L9.437499999999996 7.693427814736577 L9.861111111111109 7.454795373830906 L9.861111111111109 4.628399434744611 z"/>
<path fill="#bababa" stroke="#bababa" d="M9.4375 5.2516048176057 L9.4375 8.078000756691994 L9.4375 7.693427814736576 L9.4375 4.867031875650282 z"/>
<path fill="#bababa" stroke="#bababa" d="M10.389150943396224 5.405433994387865 L10.389150943396224 8.231829933474158 L9.861111111111109 8.31663319759766 L9.861111111111109 5.4902372585113675 z"/>
<path fill="#bababa" stroke="#bababa" d="M9.86111111111111 5.490237258511369 L9.86111111111111 8.316633197597664 L9.4375 8.078000756691994 L9.437500000000002 5.251604817605701 z"/>
<path fill="#bababa" stroke="#bababa" d="M10.625 5.0593183466279905 L10.389150943396226 5.405433994387867 L9.86111111111111 5.490237258511369 L9.4375 5.2516048176057 L9.4375 4.867031875650282 L9.86111111111111 4.628399434744612 L10.389150943396226 4.713202698868114 z"/>
<path fill="#bababa" stroke="#bababa" d="M10.625 7.885714285714284 L10.389150943396226 7.539598637954408 L9.86111111111111 7.454795373830906 L9.4375 7.693427814736576 L9.4375 8.078000756691994 L9.86111111111111 8.316633197597662 L10.389150943396226 8.231829933474161 z"/>
<path fill="#bababa" stroke="#bababa" d="M55.62499999999999 5.0593183466279905 L55.62499999999999 7.885714285714284 L55.389150943396224 8.23182993347416 L55.389150943396224 5.405433994387867 z"/>
<path fill="#bababa" stroke="#bababa" d="M55.389150943396224 4.713202698868114 L55.389150943396224 7.539598637954408 L55.625 7.885714285714284 L55.625 5.0593183466279905 z"/>
<path fill="#bababa" stroke="#bababa" d="M54.86111111111111 4.6283994347446065 L54.86111111111111 7.454795373830906 L55.38915094339622 7.539598637954408 L55.38915094339622 4.713202698868109 z"/>
<path fill="#bababa" stroke="#bababa" d="M54.43749999999999 4.867031875650281 L54.43749999999999 7.693427814736577 L54.86111111111111 7.454795373830906 L54.86111111111111 4.628399434744611 z"/>
<path fill="#bababa" stroke="#bababa" d="M54.4375 5.2516048176057 L54.4375 8.078000756691994 L54.4375 7.693427814736576 L54.4375 4.867031875650282 z"/>
<path fill="#bababa" stroke="#bababa" d="M55.38915094339622 5.405433994387866 L55.38915094339622 8.23182993347416 L54.86111111111111 8.31663319759766 L54.86111111111111 5.4902372585113675 z"/>
<path fill="#bababa" stroke="#bababa" d="M54.86111111111111 5.490237258511369 L54.86111111111111 8.316633197597664 L54.4375 8.078000756691994 L54.4375 5.251604817605701 z"/>
<path fill="#bababa" stroke="#bababa" d="M55.625 5.0593183466279905 L55.389150943396224 5.405433994387867 L54.86111111111111 5.490237258511369 L54.4375 5.2516048176057 L54.4375 4.867031875650282 L54.86111111111111 4.628399434744612 L55.389150943396224 4.713202698868114 z"/>
<path fill="#bababa" stroke="#bababa" d="M55.625 7.885714285714284 L55.389150943396224 7.539598637954408 L54.86111111111111 7.454795373830906 L54.4375 7.693427814736576 L54.4375 8.078000756691994 L54.86111111111111 8.316633197597662 L55.389150943396224 8.231829933474161 z"/>
<path fill="#bababa" stroke="#bababa" d="M55.53048780487805 -5.915047135605509 L55.53048780487805 4.683937635968092 L55.75 5.0593183466279905 L55.75 -5.539666424945612 z"/>
<path fill="#bababa" stroke="#bababa" d="M54.99999999999999 -6.070377084844096 L54.99999999999999 4.528607686729507 L55.53048780487804 4.683937635968087 L55.53048780487804 -5.915047135605516 z"/>
<path fill="#bababa" stroke="#bababa" d="M54.46951219512194 -5.915047135605511 L54.46951219512194 4.683937635968089 L54.99999999999999 4.528607686729511 L54.99999999999999 -6.07037708484409 z"/>
<path fill="#bababa" stroke="#bababa" d="M54.99999999999999 -5.008955765047138 L54.99999999999999 5.590029006526465 L54.46951219512194 5.4346990572878875 L54.46951219512194 -5.1642857142857155 z"/>
<path fill="#bababa" stroke="#bababa" d="M54.24999999999999 -5.539666424945612 L54.24999999999999 5.0593183466279905 L54.46951219512194 4.683937635968092 L54.46951219512194 -5.915047135605509 z"/>
<path fill="#bababa" stroke="#bababa" d="M54.46951219512195 -5.164285714285714 L54.46951219512195 5.434699057287889 L54.25 5.0593183466279905 L54.25 -5.539666424945612 z"/>
<path fill="#bababa" stroke="#bababa" d="M55.53048780487804 -5.164285714285714 L55.53048780487804 5.434699057287889 L54.99999999999999 5.590029006526469 L54.99999999999999 -5.0089557650471335 z"/>
<path fill="#bababa" stroke="#bababa" d="M55.74999999999999 -5.539666424945612 L55.74999999999999 5.0593183466279905 L55.53048780487804 5.434699057287889 L55.53048780487804 -5.164285714285714 z"/>
<path fill="#bababa" stroke="#bababa" d="M55.53048780487804 -5.91504713560551 L55.75 -5.5396664249456125 L55.53048780487804 -5.164285714285714 L55 -5.008955765047135 L54.46951219512195 -5.164285714285714 L54.25 -5.5396664249456125 L54.46951219512195 -5.91504713560551 L55 -6.070377084844089 z"/>
<path fill="#bababa" stroke="#bababa" d="M55.75 5.0593183466279905 L55.53048780487804 4.683937635968092 L55 4.528607686729513 L54.46951219512195 4.683937635968092 L54.25 5.0593183466279905 L54.46951219512195 5.434699057287888 L55 5.590029006526467 L55.53048780487804 5.434699057287888 z"/>
<path fill="#bababa" stroke="#bababa" d="M10.624999999999998 -51.54981870920957 L10.624999999999995 -48.72342277012327 L10.389150943396224 -48.3773071223634 L10.389150943396222 -51.203703061449694 z"/>
<path fill="#bababa" stroke="#bababa" d="M10.38915094339623 -51.89593435696944 L10.389150943396228 -49.06953841788315 L10.625000000000004 -48.72342277012327 L10.625 -51.54981870920957 z"/>
<path fill="#bababa" stroke="#bababa" d="M9.861111111111109 -51.98073762109297 L9.861111111111109 -49.15434168200666 L10.389150943396224 -49.06953841788315 L10.389150943396224 -51.89593435696946 z"/>
<path fill="#bababa" stroke="#bababa" d="M9.437499999999988 -51.742105180187274 L9.43749999999999 -48.91570924110098 L9.8611111111111 -49.15434168200665 L9.861111111111104 -51.98073762109295 z"/>
<path fill="#bababa" stroke="#bababa" d="M9.4375 -51.35753223823186 L9.4375 -48.531136299145565 L9.4375 -48.915709241100984 L9.4375 -51.74210518018728 z"/>
<path fill="#bababa" stroke="#bababa" d="M10.389150943396224 -51.2037030614497 L10.389150943396224 -48.37730712236341 L9.861111111111109 -48.29250385823991 L9.861111111111109 -51.1188997973262 z"/>
<path fill="#bababa" stroke="#bababa" d="M9.861111111111116 -51.118899797326186 L9.86111111111112 -48.2925038582399 L9.437500000000021 -48.53113629914555 L9.437500000000018 -51.35753223823185 z"/>
<path fill="#bababa" stroke="#bababa" d="M10.625 -51.54981870920956 L10.389150943396226 -51.20370306144969 L9.86111111111111 -51.11889979732618 L9.4375 -51.357532238231855 L9.4375 -51.74210518018728 L9.86111111111111 -51.98073762109294 L10.389150943396226 -51.89593435696944 z"/>
<path fill="#bababa" stroke="#bababa" d="M10.625 -48.723422770123264 L10.389150943396226 -49.069538417883145 L9.86111111111111 -49.154341682006645 L9.4375 -48.915709241100984 L9.4375 -48.53113629914556 L9.86111111111111 -48.2925038582399 L10.389150943396226 -48.37730712236339 z"/>
<path fill="#bababa" stroke="#bababa" d="M55.62499999999999 -51.54981870920957 L55.62499999999999 -48.72342277012327 L55.389150943396224 -48.3773071223634 L55.38915094339622 -51.203703061449694 z"/>
<path fill="#bababa" stroke="#bababa" d="M55.389150943396224 -51.89593435696944 L55.389150943396224 -49.06953841788315 L55.625 -48.72342277012327 L55.625 -51.54981870920957 z"/>
<path fill="#bababa" stroke="#bababa" d="M54.86111111111111 -51.98073762109296 L54.86111111111111 -49.154341682006674 L55.38915094339622 -49.06953841788317 L55.38915094339622 -51.89593435696946 z"/>
<path fill="#bababa" stroke="#bababa" d="M54.437499999999986 -51.742105180187274 L54.437499999999986 -48.91570924110098 L54.8611111111111 -49.15434168200665 L54.8611111111111 -51.98073762109295 z"/>
<path fill="#bababa" stroke="#bababa" d="M54.4375 -51.35753223823186 L54.4375 -48.531136299145565 L54.4375 -48.915709241100984 L54.4375 -51.74210518018728 z"/>
<path fill="#bababa" stroke="#bababa" d="M55.38915094339622 -51.203703061449694 L55.38915094339622 -48.3773071223634 L54.86111111111111 -48.2925038582399 L54.86111111111111 -51.11889979732619 z"/>
<path fill="#bababa" stroke="#bababa" d="M54.861111111111114 -51.118899797326186 L54.861111111111114 -48.2925038582399 L54.43750000000002 -48.53113629914555 L54.437500000000014 -51.35753223823185 z"/>
<path fill="#bababa" stroke="#bababa" d="M55.625 -51.54981870920956 L55.389150943396224 -51.20370306144969 L54.86111111111111 -51.11889979732618 L54.4375 -51.357532238231855 L54.4375 -51.74210518018728 L54.86111111111111 -51.98073762109294 L55.389150943396224 -51.89593435696944 z"/>
<path fill="#bababa" stroke="#bababa" d="M55.625 -48.723422770123264 L55.389150943396224 -49.069538417883145 L54.86111111111111 -49.154341682006645 L54.4375 -48.915709241100984 L54.4375 -48.53113629914556 L54.86111111111111 -48.2925038582399 L55.389150943396224 -48.37730712236339 z"/>
<path fill="#bababa" stroke="#bababa" d="M55.53048780487805 -62.52418419144306 L55.53048780487805 -51.925199419869465 L55.75 -51.54981870920957 L55.75 -62.148803480783165 z"/>
<path fill="#bababa" stroke="#bababa" d="M54.99999999999999 -62.679514140681654 L54.99999999999999 -52.080529369108056 L55.53048780487804 -51.92519941986947 L55.53048780487804 -62.52418419144308 z"/>
<path fill="#bababa" stroke="#bababa" d="M54.46951219512194 -62.52418419144308 L54.46951219512194 -51.92519941986947 L54.99999999999999 -52.08052936910805 L54.99999999999999 -62.679514140681654 z"/>
<path fill="#bababa" stroke="#bababa" d="M54.99999999999999 -61.6180928208847 L54.99999999999999 -51.01910804931109 L54.46951219512194 -51.17443799854967 L54.46951219512194 -61.773422770123275 z"/>
<path fill="#bababa" stroke="#bababa" d="M54.24999999999999 -62.148803480783165 L54.24999999999999 -51.54981870920957 L54.46951219512194 -51.925199419869465 L54.46951219512194 -62.52418419144306 z"/>
<path fill="#bababa" stroke="#bababa" d="M54.46951219512195 -61.77342277012327 L54.46951219512195 -51.17443799854967 L54.25 -51.54981870920957 L54.25 -62.148803480783165 z"/>
<path fill="#bababa" stroke="#bababa" d="M55.53048780487804 -61.773422770123275 L55.53048780487804 -51.17443799854967 L54.99999999999999 -51.01910804931109 L54.99999999999999 -61.6180928208847 z"/>
<path fill="#bababa" stroke="#bababa" d="M55.74999999999999 -62.148803480783165 L55.74999999999999 -51.54981870920957 L55.53048780487804 -51.17443799854967 L55.53048780487804 -61.77342277012327 z"/>
<path fill="#bababa" stroke="#bababa" d="M55.53048780487804 -62.52418419144307 L55.75 -62.148803480783165 L55.53048780487804 -61.77342277012327 L55 -61.61809282088469 L54.46951219512195 -61.77342277012327 L54.25 -62.148803480783165 L54.46951219512195 -62.52418419144307 L55 -62.67951414068165 z"/>
<path fill="#bababa" stroke="#bababa" d="M55.75 -51.54981870920956 L55.53048780487804 -51.92519941986946 L55 -52.080529369108035 L54.46951219512195 -51.92519941986946 L54.25 -51.54981870920956 L54.46951219512195 -51.17443799854967 L55 -51.01910804931109 L55.53048780487804 -51.17443799854967 z"/>
</svg>