<?xml version="1.0" encoding="UTF-8"?>
<!-- Generated by jsxcad -->
<!DOCTYPE svg PUBLIC "-//W3C//DTD SVG 1.1 Tiny//EN" "http://www.w3.org/Graphics/SVG/1.1/DTD/svg11-tiny.dtd">
<svg baseProfile="tiny" height="101.35352988861493mm" width="61.587248322147694mm" viewBox="-0.5134228187919626 -8.316633197597668 61.587248322147694 101.35352988861493" version="1.1" stroke="black" stroke-width=".1" fill="none" xmlns="http://www.w3.org/2000/svg">
<path fill="#bababa" stroke="#bababa" d="M9.603336079569196 5.8800944279165 L9.437499999999993 6.016201563830119 L9.437499999999993 5.2641783586089455 L9.861111111111107 4.916506758892547 L9.861111111111109 5.668529964113721 z"/>
<path fill="#bababa" stroke="#bababa" d="M10.046516871490917 5.65058198402768 L9.861111111111109 5.668529964113718 L9.861111111111109 4.916506758892542 L9.865771812080537 4.916055585379835 L10.208053691275166 5.634944607827987 z"/>
<path fill="#bababa" stroke="#bababa" d="M9.4375 5.264178358608947 L9.4375 6.016201563830122 L9.4375 6.208488034807831 L9.4375 5.456464829586657 z"/>
<path fill="#bababa" stroke="#bababa" d="M10.208053691275166 5.6349446078279914 L9.865771812080537 4.916055585379841 L9.865771812080537 -22.958342539823132 L10.208053691275165 -22.29442403064179 z"/>
<path fill="#bababa" stroke="#bababa" d="M9.268456375838925 -22.052568002297157 L9.268456375838925 6.252000525621619 L9.437499999999998 6.20848803480783 L9.437499999999998 6.016201563830122 L9.86111111111111 5.66852996411372 L10.208053691275166 5.634944607827991 L10.208053691275166 -22.29442403064179 z"/>
<path fill="#bababa" stroke="#bababa" d="M8.926174496644293 5.588082016440275 L9.268456375838923 6.25200052562162 L9.268456375838925 -22.052568002297157 L8.926174496644293 -22.7164865114785 z"/>
<path fill="#bababa" stroke="#bababa" d="M9.494812002244748 5.217140509551783 L9.437499999999998 5.264178358608947 L9.437499999999998 5.456464829586657 L8.926174496644293 5.588082016440276 L8.926174496644293 -22.716486511478504 L9.865771812080535 -22.958342539823136 L9.865771812080535 4.91605558537984 L9.861111111111109 4.916506758892544 z"/>
<path fill="#bababa" stroke="#bababa" d="M9.268456375838925 -22.052568002297168 L10.208053691275166 -22.2944240306418 L9.865771812080537 -22.958342539823136 L8.926174496644295 -22.716486511478504 z"/>
<path fill="#bababa" stroke="#bababa" d="M9.268456375838925 6.252000525621613 L8.926174496644295 5.588082016440274 L9.4375 5.45646482958665 L9.4375 6.208488034807824 z"/>
<path fill="#bababa" stroke="#bababa" d="M54.99999999999999 -6.0501885424220445 L54.469512195121936 -5.7583089548807 L54.469512195121936 -5.915047135605509 L54.99999999999999 -6.07037708484409 z"/>
<path fill="#bababa" stroke="#bababa" d="M54.99999999999999 -6.050188542422047 L54.99999999999999 -6.070377084844093 L55.07843137254901 -6.047411917681483 z"/>
<path fill="#bababa" stroke="#bababa" d="M54.46951219512195 -5.915047135605511 L54.46951219512195 -5.758308954880701 L54.36912751677852 -5.56080495138811 L54.27499999999999 -5.58241811699299 z"/>
<path fill="#bababa" stroke="#bababa" d="M55.308724832214764 -5.598944863265375 L54.96644295302013 -6.262863372446719 L54.96644295302013 -34.56743190036549 L55.308724832214764 -33.903513391184156 z"/>
<path fill="#bababa" stroke="#bababa" d="M54.36912751677851 -5.560804951388111 L54.469512195121936 -5.7583089548807 L54.999999999999986 -6.050188542422043 L55.07843137254901 -6.047411917681478 L55.07843137254901 -5.539666424945613 L55.30872483221476 -5.598944863265376 L55.30872483221476 -33.90351339118415 L54.36912751677851 -33.66165736283952 z"/>
<path fill="#bababa" stroke="#bababa" d="M55.07843137254902 -5.539666424945612 L55.07843137254902 -6.047411917681477 L55 -6.070377084844089 L54.46951219512195 -5.91504713560551 L54.275 -5.582418116992989 L54.275 -5.539666424945612 z"/>
<path fill="#bababa" stroke="#bababa" d="M54.275 -5.539666424945612 L54.275 -5.582418116992989 L54.36912751677852 -5.560804951388111 L54.36912751677852 -33.66165736283952 L54.02684563758389 -34.32557587202086 L54.02684563758389 -6.021007344102086 z"/>
<path fill="#bababa" stroke="#bababa" d="M54.96644295302013 -6.262863372446719 L54.02684563758388 -6.0210073441020855 L54.02684563758388 -34.32557587202086 L54.96644295302013 -34.56743190036549 z"/>
<path fill="#bababa" stroke="#bababa" d="M54.36912751677852 -33.66165736283953 L55.308724832214764 -33.903513391184156 L54.96644295302013 -34.567431900365506 L54.02684563758389 -34.32557587202087 z"/>
<path fill="#bababa" stroke="#bababa" d="M54.96644295302013 -6.262863372446723 L55.308724832214764 -5.598944863265378 L55.07843137254902 -5.539666424945613 L54.275 -5.539666424945613 L54.02684563758389 -6.021007344102088 z"/>
<path fill="#bababa" stroke="#bababa" d="M9.4375 5.264178358608947 L9.4375 5.456464829586657 L9.4375 5.0593183466279905 L9.4375 4.867031875650282 z"/>
<path fill="#bababa" stroke="#bababa" d="M10.389150943396224 4.865390502444665 L9.861111111111109 4.916506758892542 L9.861111111111109 4.628399434744608 L10.389150943396224 4.713202698868111 z"/>
<path fill="#bababa" stroke="#bababa" d="M9.861111111111107 4.916506758892545 L9.437499999999995 5.264178358608945 L9.437499999999996 4.867031875650279 L9.861111111111105 4.628399434744611 z"/>
<path fill="#bababa" stroke="#bababa" d="M10.625 5.059318346627986 L9.4375 5.059318346627986 L9.4375 5.4564648295866505 L0 7.885714285714281 L-0.5134228187919463 6.889836521942264 L60.560402684563755 -8.830805320458849 L61.0738255033557 -7.834927556686831 L10.625 5.150797679477877 z"/>
<path fill="#bababa" stroke="#bababa" d="M0.8959731543624153 5.819438266227349 L0.8959731543624161 -20.36228762209752 L1.4093959731543617 -19.366409858325504 L1.4093959731543613 6.815316029999367 z"/>
<path fill="#bababa" stroke="#bababa" d="M59.151006711409394 -35.357361379464734 L59.151006711409394 -9.175635491139866 L59.66442953020134 -8.179757727367852 L59.66442953020134 -34.36148361569272 z"/>
<path fill="#bababa" stroke="#bababa" d="M58.99440715883669 -9.135326153082435 L0.8959731543624161 5.8194382662273485 L1.4093959731543624 6.815316029999363 L59.66442953020134 -8.179757727367853 L59.151006711409394 -9.17563549113987 z"/>
<path fill="#bababa" stroke="#bababa" d="M1.052572706935123 -20.40259696015496 L59.151006711409394 -35.35736137946474 L59.66442953020134 -34.36148361569273 L1.4093959731543624 -19.366409858325515 L0.8959731543624161 -20.362287622097526 z"/>
<path fill="#bababa" stroke="#bababa" d="M61.0738255033557 -35.43188187140764 L61.0738255033557 -7.83492755668683 L60.560402684563755 -8.830805320458847 L60.560402684563755 -36.427759635179655 z"/>
<path fill="#bababa" stroke="#bababa" d="M0 -19.711240029006536 L61.0738255033557 -35.43188187140765 L60.560402684563755 -36.42775963517966 L-0.5134228187919463 -20.70711779277855 z"/>
<path fill="#bababa" stroke="#bababa" d="M-1.162010433609356e-15 7.8857142857142835 L-2.065452237610005e-15 -19.711240029006525 L-0.5134228187919484 -20.70711779277854 L-0.5134228187919475 6.889836521942268 z"/>
<path fill="#bababa" stroke="#bababa" d="M9.4375 5.0593183466279905 L10.625 5.0593183466279905 L10.389150943396226 4.713202698868114 L9.86111111111111 4.628399434744612 L9.4375 4.867031875650281 z"/>
<path fill="#bababa" stroke="#bababa" d="M10.539599687593084 5.047452504250998 L10.389150943396228 4.865390502444673 L10.389150943396226 4.713202698868114 L10.625000000000002 5.05931834662799 L10.625 5.150797679477882 z"/>
<path fill="#bababa" stroke="#bababa" d="M60.56040268456375 -8.830805320458845 L-0.5134228187919462 6.889836521942268 L-0.5134228187919462 -20.707117792778536 L60.56040268456375 -36.42775963517965 z M1.0525727069351227 -20.40259696015496 L0.895973154362416 -20.36228762209752 L0.895973154362416 5.81943826622735 L59.151006711409394 -9.175635491139868 L59.151006711409394 -35.357361379464734 z"/>
<path fill="#bababa" stroke="#bababa" d="M10.401583244000989 4.880435157999921 L10.624999999999998 5.150797679477882 L61.0738255033557 -7.834927556686831 L61.0738255033557 -35.43188187140764 L0 -19.71124002900652 L0 7.885714285714284 L9.437499999999998 5.456464829586656 L9.437499999999998 5.264178358608947 L9.861111111111109 4.916506758892545 L10.389150943396224 4.865390502444673 z M59.50782997762863 -8.139448389310413 L1.4093959731543622 6.815316029999367 L1.4093959731543622 -19.366409858325504 L59.66442953020134 -34.36148361569272 L59.66442953020134 -8.179757727367852 z"/>
<path fill="#3c3c3c" stroke="#3c3c3c" d="M59.151006711409394 -35.357361379464734 L59.66442953020134 -34.36148361569272 L59.66442953020134 -8.179757727367852 L59.151006711409394 -9.175635491139866 z"/>
<path fill="#3c3c3c" stroke="#3c3c3c" d="M0.8959731543624161 -20.362287622097522 L1.4093959731543624 -19.366409858325518 L59.66442953020134 -34.36148361569273 L59.151006711409394 -35.35736137946474 z"/>
<path fill="#3c3c3c" stroke="#3c3c3c" d="M0.8959731543624153 5.819438266227349 L1.4093959731543613 6.815316029999367 L1.4093959731543617 -19.366409858325504 L0.8959731543624161 -20.36228762209752 z"/>
<path fill="#3c3c3c" stroke="#3c3c3c" d="M59.151006711409394 -9.17563549113987 L59.66442953020134 -8.179757727367855 L1.4093959731543624 6.815316029999364 L0.8959731543624161 5.819438266227346 z"/>
<path fill="#3c3c3c" stroke="#3c3c3c" d="M59.15100671140939 -35.357361379464734 L59.15100671140939 -9.175635491139866 L0.8959731543624161 5.81943826622735 L0.8959731543624161 -20.36228762209752 z"/>
<path fill="#3c3c3c" stroke="#3c3c3c" d="M59.66442953020133 -34.36148361569272 L1.4093959731543622 -19.366409858325504 L1.4093959731543622 6.815316029999367 L59.66442953020133 -8.179757727367852 z"/>
<path fill="#bababa" stroke="#bababa" d="M9.603336079569194 -31.859330275975207 L9.437499999999993 -31.72322314006158 L9.437499999999998 -32.475246345282756 L9.861111111111104 -32.822917944999155 L9.861111111111107 -32.070894739777984 z"/>
<path fill="#bababa" stroke="#bababa" d="M9.4375 -31.49501171903737 L9.4375 -31.338650198106166 L9.4375 -32.09067340332734 L9.4375 -32.475246345282756 L9.4375 -31.723223140061585 z"/>
<path fill="#bababa" stroke="#bababa" d="M9.86111111111112 -31.9610801212324 L9.437500000000002 -32.09067340332734 L9.437500000000005 -31.338650198106166 L9.86111111111111 -31.209056916011228 z"/>
<path fill="#bababa" stroke="#bababa" d="M9.861111111111109 -31.961080121232406 L9.861111111111109 -31.20905691601124 L10.208053691275166 -31.354080317165728 L9.865771812080537 -31.963028313080265 z"/>
<path fill="#bababa" stroke="#bababa" d="M9.865771812080537 -22.958342539823136 L9.865771812080537 -31.963028313080258 L10.208053691275166 -31.35408031716572 L10.208053691275166 -22.294424030641792 z"/>
<path fill="#bababa" stroke="#bababa" d="M9.942527056756733 -32.662161335783566 L9.865771812080537 -32.82336911851186 L9.865771812080535 -51.26291106774191 L10.208053691275168 -50.59899255856057 L10.208053691275166 -32.10448009606371 z"/>
<path fill="#bababa" stroke="#bababa" d="M9.880654007871767 -32.07278656623022 L10.208053691275166 -32.10448009606371 L10.208053691275166 -50.59899255856057 L9.268456375838925 -50.35713653021593 L9.268456375838925 -22.052568002297157 L10.208053691275166 -22.29442403064179 L10.208053691275166 -31.35408031716572 L9.861111111111109 -31.209056916011225 L9.437499999999998 -31.338650198106166 L9.437499999999998 -31.723223140061585 L9.861111111111109 -32.070894739777984 z"/>
<path fill="#bababa" stroke="#bababa" d="M8.926174496644293 -22.7164865114785 L9.268456375838925 -22.052568002297157 L9.268456375838925 -50.35713653021593 L8.926174496644295 -51.021055039397275 z"/>
<path fill="#bababa" stroke="#bababa" d="M9.880654007871767 -32.07278656623023 L9.861111111111109 -32.070894739778 L9.861111111111109 -32.82291794499916 L9.865771812080535 -32.82336911851186 L10.208053691275166 -32.10448009606372 z"/>
<path fill="#bababa" stroke="#bababa" d="M9.816197809851795 -31.97482022853187 L9.861111111111109 -31.9610801212324 L9.865771812080535 -31.963028313080258 L9.865771812080535 -22.958342539823136 L8.926174496644293 -22.716486511478504 L8.926174496644293 -51.021055039397275 L9.865771812080535 -51.26291106774191 L9.865771812080535 -32.82336911851186 L9.861111111111109 -32.822917944999155 L9.437499999999998 -32.475246345282756 L9.437499999999998 -32.09067340332734 z"/>
<path fill="#bababa" stroke="#bababa" d="M9.268456375838925 -50.35713653021594 L10.208053691275166 -50.59899255856058 L9.865771812080537 -51.26291106774192 L8.926174496644295 -51.0210550393973 z"/>
<path fill="#bababa" stroke="#bababa" d="M10.208053691275166 -22.2944240306418 L9.268456375838925 -22.052568002297168 L8.926174496644295 -22.716486511478504 L9.865771812080537 -22.958342539823136 z"/>
<path fill="#bababa" stroke="#bababa" d="M54.46951219512194 -43.65447183949721 L54.46951219512194 -43.497733658772404 L54.36912751677851 -43.300229655279814 L54.27499999999999 -43.32184282088469 z"/>
<path fill="#bababa" stroke="#bababa" d="M54.99999999999999 -42.7281919265168 L55.07843137254901 -42.77134563610146 L54.99999999999999 -42.74838046893885 z"/>
<path fill="#bababa" stroke="#bababa" d="M55.07843137254901 -42.803879622915154 L55.07843137254901 -42.77134563610145 L54.99999999999999 -42.72819192651679 L54.46951219512194 -42.7469722374526 L54.36912751677851 -42.892797422345076 L54.36912751677851 -33.66165736283952 L55.30872483221476 -33.90351339118415 L55.30872483221476 -62.20808191910292 L54.36912751677851 -61.966225890758295 L54.36912751677851 -43.300229655279814 L54.46951219512194 -43.497733658772404 L54.99999999999999 -43.78961324631375 L55.07843137254901 -43.78683662157319 z"/>
<path fill="#bababa" stroke="#bababa" d="M54.97812094124836 -43.777575173835 L54.469512195121936 -43.49773365877241 L54.469512195121936 -43.65447183949722 L54.99999999999999 -43.8098017887358 L54.99999999999999 -43.78961324631375 z"/>
<path fill="#bababa" stroke="#bababa" d="M54.46951219512194 -42.74697223745262 L54.99999999999999 -42.7281919265168 L54.99999999999999 -42.74838046893885 L54.46951219512194 -42.90371041817743 z"/>
<path fill="#bababa" stroke="#bababa" d="M55.308724832214764 -33.903513391184156 L54.96644295302013 -34.56743190036549 L54.96644295302013 -62.872000428284274 L55.30872483221476 -62.20808191910293 z"/>
<path fill="#bababa" stroke="#bababa" d="M54.369127516778526 -42.892797422345076 L54.46951219512195 -42.74697223745261 L54.46951219512195 -42.90371041817742 L54.275 -43.23633943678994 z"/>
<path fill="#bababa" stroke="#bababa" d="M55.00099760059855 -43.78957792929184 L54.99999999999999 -43.789613246313756 L54.99999999999999 -43.8098017887358 L55.07843137254901 -43.78683662157319 z"/>
<path fill="#bababa" stroke="#bababa" d="M54.275 -43.3218428208847 L54.36912751677852 -43.300229655279814 L54.36912751677852 -61.966225890758295 L54.02684563758389 -62.630144399939645 L54.02684563758389 -34.32557587202086 L54.36912751677852 -33.66165736283952 L54.36912751677852 -42.892797422345076 L54.27499999999999 -43.23633943678994 z"/>
<path fill="#bababa" stroke="#bababa" d="M54.275 -43.32184282088469 L54.275 -43.23633943678993 L54.46951219512195 -42.90371041817742 L55 -42.74838046893884 L55.07843137254902 -42.771345636101444 L55.07843137254902 -43.78683662157318 L55 -43.80980178873579 L54.46951219512195 -43.65447183949721 z"/>
<path fill="#bababa" stroke="#bababa" d="M54.96644295302013 -34.56743190036549 L54.02684563758388 -34.32557587202086 L54.02684563758388 -62.63014439993964 L54.96644295302013 -62.872000428284274 z"/>
<path fill="#bababa" stroke="#bababa" d="M54.36912751677852 -61.96622589075831 L55.308724832214764 -62.208081919102945 L54.96644295302013 -62.87200042828429 L54.02684563758389 -62.63014439993966 z"/>
<path fill="#bababa" stroke="#bababa" d="M55.308724832214764 -33.903513391184156 L54.36912751677852 -33.66165736283953 L54.02684563758389 -34.32557587202087 L54.96644295302013 -34.567431900365506 z"/>
<path fill="#bababa" stroke="#bababa" d="M0.8959731543624162 -48.6668561500163 L1.4093959731543637 -47.67097838624427 L1.4093959731543617 -21.489252497919413 L0.895973154362416 -22.485130261691427 z"/>
<path fill="#bababa" stroke="#bababa" d="M59.15100671140939 -37.48020401905865 L59.66442953020134 -36.484326255286625 L59.66442953020134 -62.6660521436115 L59.151006711409394 -63.66192990738352 z"/>
<path fill="#bababa" stroke="#bababa" d="M0.8959731543624161 -22.485130261691435 L1.4093959731543624 -21.48925249791942 L59.66442953020134 -36.48432625528663 L59.151006711409394 -37.480204019058654 z"/>
<path fill="#bababa" stroke="#bababa" d="M59.151006711409394 -63.661929907383524 L59.66442953020134 -62.666052143611516 L1.4093959731543624 -47.67097838624429 L0.8959731543624161 -48.66685615001631 z"/>
<path fill="#bababa" stroke="#bababa" d="M61.0738255033557 -63.73645039932642 L61.0738255033557 -36.139496084605604 L60.560402684563755 -37.135373848377625 L60.560402684563755 -64.73232816309843 z"/>
<path fill="#bababa" stroke="#bababa" d="M0 -48.01580855692531 L61.0738255033557 -63.73645039932643 L60.560402684563755 -64.73232816309844 L-0.5134228187919463 -49.011686320697336 z"/>
<path fill="#bababa" stroke="#bababa" d="M-1.5210225143847821e-15 -20.418854242204493 L-1.188672047649628e-15 -48.0158085569253 L-0.5134228187919468 -49.011686320697315 L-0.5134228187919478 -21.414732005976507 z"/>
<path fill="#bababa" stroke="#bababa" d="M61.0738255033557 -36.13949608460561 L0 -20.418854242204496 L-0.5134228187919463 -21.414732005976525 L60.560402684563755 -37.13537384837763 z"/>
<path fill="#bababa" stroke="#bababa" d="M60.56040268456375 -37.135373848377625 L-0.5134228187919462 -21.41473200597651 L-0.5134228187919462 -49.011686320697315 L60.56040268456375 -64.73232816309843 z M1.0525727069351227 -48.707165488073734 L0.895973154362416 -48.6668561500163 L0.895973154362416 -22.485130261691424 L59.151006711409394 -37.48020401905864 L59.151006711409394 -63.66192990738352 z"/>
<path fill="#bababa" stroke="#bababa" d="M0 -48.01580855692529 L0 -20.418854242204493 L61.07382550335569 -36.139496084605604 L61.07382550335569 -63.73645039932641 z M1.5659955257270692 -47.71128772430172 L59.66442953020134 -62.6660521436115 L59.66442953020134 -36.48432625528663 L1.4093959731543622 -21.489252497919413 L1.4093959731543622 -47.67097838624428 z"/>
<path fill="#3c3c3c" stroke="#3c3c3c" d="M9.86111111111111 -32.24918744538033 L10.389150943396226 -32.33399070950384 L10.625 -32.68010635726371 L10.389150943396226 -33.02622200502359 L9.86111111111111 -33.11102526914709 L9.4375 -32.872392828241416 L9.4375 -32.487819886286005 z"/>
<path fill="#3c3c3c" stroke="#3c3c3c" d="M9.437500000000004 -32.09067340332734 L9.861111111111121 -31.961080121232392 L9.861111111111116 -32.249187445380336 L9.437500000000002 -32.487819886286005 z"/>
<path fill="#3c3c3c" stroke="#3c3c3c" d="M10.389150943396224 -32.33399070950385 L9.861111111111109 -32.24918744538034 L9.861111111111109 -31.96108012123241 L10.389150943396224 -32.18180290592729 z"/>
<path fill="#3c3c3c" stroke="#3c3c3c" d="M9.4375 -32.144711052202545 L9.4375 -32.09067340332734 L9.4375 -32.487819886286005 L9.4375 -32.87239282824142 L9.4375 -32.475246345282756 z"/>
<path fill="#3c3c3c" stroke="#3c3c3c" d="M9.494812002244744 -32.52228419433992 L9.437499999999993 -32.47524634528275 L9.43749999999999 -32.87239282824142 L9.861111111111102 -33.111025269147085 L9.861111111111104 -32.822917944999155 z"/>
<path fill="#3c3c3c" stroke="#3c3c3c" d="M9.86111111111111 -33.11102526914709 L10.389150943396224 -33.02622200502359 L10.389150943396224 -32.87403420144704 L9.86111111111111 -32.82291794499917 z"/>
<path fill="#3c3c3c" stroke="#3c3c3c" d="M10.38915094339623 -33.02622200502359 L10.625000000000004 -32.68010635726372 L10.625000000000004 -32.588627024413825 L10.389150943396231 -32.87403420144703 z"/>
<path fill="#3c3c3c" stroke="#3c3c3c" d="M10.624999999999996 -32.68010635726371 L10.389150943396224 -32.33399070950384 L10.389150943396224 -32.18180290592728 L10.624999999999998 -32.58862702441382 z"/>
<path fill="#3c3c3c" stroke="#3c3c3c" d="M59.66442953020134 -62.6660521436115 L59.66442953020134 -36.484326255286625 L59.15100671140939 -37.48020401905865 L59.151006711409394 -63.66192990738352 z"/>
<path fill="#3c3c3c" stroke="#3c3c3c" d="M1.4093959731543624 -47.670978386244286 L59.66442953020134 -62.666052143611516 L59.151006711409394 -63.66192990738353 L0.8959731543624161 -48.66685615001631 z"/>
<path fill="#3c3c3c" stroke="#3c3c3c" d="M1.4093959731543617 -21.489252497919413 L1.4093959731543637 -47.67097838624427 L0.8959731543624162 -48.6668561500163 L0.895973154362416 -22.485130261691427 z"/>
<path fill="#3c3c3c" stroke="#3c3c3c" d="M59.66442953020134 -36.48432625528664 L1.4093959731543624 -21.489252497919427 L0.8959731543624161 -22.48513026169143 L59.151006711409394 -37.48020401905865 z"/>
<path fill="#3c3c3c" stroke="#3c3c3c" d="M0.8959731543624161 -48.6668561500163 L59.15100671140939 -63.66192990738352 L59.15100671140939 -37.48020401905865 L0.8959731543624161 -22.485130261691427 z"/>
<path fill="#3c3c3c" stroke="#3c3c3c" d="M1.4093959731543622 -21.48925249791941 L59.66442953020133 -36.484326255286625 L59.66442953020133 -62.6660521436115 L1.4093959731543622 -47.67097838624428 z M9.816197809851795 -31.97482022853187 L9.437499999999998 -32.09067340332734 L9.437499999999998 -32.475246345282756 L9.861111111111109 -32.82291794499916 L10.389150943396224 -32.874034201447024 L10.624999999999998 -32.58862702441382 L10.389150943396224 -32.18180290592728 L9.861111111111109 -31.961080121232403 z"/>
<path fill="#bababa" stroke="#bababa" d="M9.4375 -69.23443642292908 L9.4375 -69.07807490199787 L9.4375 -69.83009810721904 L9.4375 -70.21467104917447 L9.4375 -69.46264784395329 z"/>
<path fill="#bababa" stroke="#bababa" d="M9.861111111111118 -69.7005048251241 L9.437500000000016 -69.83009810721903 L9.437500000000007 -69.07807490199787 L9.861111111111116 -68.94848161990294 z"/>
<path fill="#bababa" stroke="#bababa" d="M9.494812002244723 -70.2617088982316 L9.8611111111111 -70.56234264889086 L9.861111111111097 -69.81031944366968 L9.437499999999991 -69.46264784395329 L9.437499999999973 -70.21467104917444 z"/>
<path fill="#bababa" stroke="#bababa" d="M9.865771812080537 -51.26291106774192 L9.865771812080533 -69.70245301697196 L10.208053691275163 -69.09350502105742 L10.208053691275165 -50.59899255856057 z"/>
<path fill="#bababa" stroke="#bababa" d="M9.942527056756731 -70.40158603967528 L9.865771812080531 -70.56279382240356 L9.865771812080531 -79.56747959566069 L10.208053691275163 -78.90356108647934 L10.208053691275163 -69.84390479995541 z"/>
<path fill="#bababa" stroke="#bababa" d="M9.861111111111109 -69.70050482512411 L9.861111111111109 -68.94848161990295 L10.208053691275166 -69.09350502105742 L9.865771812080537 -69.70245301697197 z"/>
<path fill="#bababa" stroke="#bababa" d="M9.698964258535515 -68.99808641603663 L9.437499999999998 -69.07807490199787 L9.437499999999998 -69.46264784395328 L9.861111111111109 -69.81031944366968 L10.208053691275165 -69.84390479995541 L10.208053691275165 -78.90356108647934 L9.268456375838925 -78.66170505813471 L9.268456375838925 -50.35713653021594 L10.208053691275165 -50.598992558560575 L10.208053691275165 -69.09350502105742 L9.861111111111109 -68.94848161990292 z"/>
<path fill="#bababa" stroke="#bababa" d="M8.926174496644295 -51.021055039397275 L9.268456375838925 -50.35713653021593 L9.268456375838925 -78.66170505813471 L8.926174496644295 -79.32562356731606 z"/>
<path fill="#bababa" stroke="#bababa" d="M10.046516871490917 -69.82826742375575 L9.861111111111109 -69.8103194436697 L9.861111111111109 -70.56234264889089 L9.865771812080535 -70.56279382240358 L10.208053691275166 -69.84390479995542 z"/>
<path fill="#bababa" stroke="#bababa" d="M9.544194361956885 -69.7974576212064 L9.86111111111111 -69.7005048251241 L9.865771812080533 -69.70245301697196 L9.865771812080533 -51.26291106774191 L8.926174496644295 -51.021055039397275 L8.926174496644295 -79.32562356731606 L9.865771812080533 -79.56747959566069 L9.865771812080533 -70.56279382240356 L9.86111111111111 -70.56234264889086 L9.437499999999998 -70.21467104917446 L9.437499999999998 -69.83009810721904 z"/>
<path fill="#bababa" stroke="#bababa" d="M9.268456375838925 -78.66170505813473 L10.208053691275166 -78.90356108647937 L9.865771812080537 -79.5674795956607 L8.926174496644295 -79.32562356731609 z"/>
<path fill="#bababa" stroke="#bababa" d="M10.208053691275166 -50.59899255856058 L9.268456375838925 -50.35713653021594 L8.926174496644295 -51.0210550393973 L9.865771812080537 -51.26291106774192 z"/>
<path fill="#bababa" stroke="#bababa" d="M54.46951219512194 -81.39389654338892 L54.46951219512194 -81.2371583626641 L54.36912751677851 -81.03965435917152 L54.27499999999999 -81.0612675247764 z"/>
<path fill="#bababa" stroke="#bababa" d="M54.999999999999986 -80.48780517283056 L54.469512195121936 -80.64313512206914 L54.469512195121936 -80.48639694134432 L54.999999999999986 -80.46761663040851 z"/>
<path fill="#bababa" stroke="#bababa" d="M55 -80.46761663040851 L55.07843137254902 -80.51077033999317 L55 -80.48780517283056 z"/>
<path fill="#bababa" stroke="#bababa" d="M54.66793681717472 -81.34633353372412 L54.469512195121936 -81.23715836266412 L54.469512195121936 -81.39389654338893 L54.99999999999999 -81.54922649262751 L54.99999999999999 -81.52903795020546 z"/>
<path fill="#bababa" stroke="#bababa" d="M54.369127516778526 -80.63222212623677 L54.46951219512195 -80.48639694134431 L54.46951219512195 -80.64313512206911 L54.275 -80.97576414068165 z"/>
<path fill="#bababa" stroke="#bababa" d="M55.30872483221476 -62.20808191910293 L54.96644295302013 -62.872000428284274 L54.96644295302013 -91.17656895620304 L55.308724832214764 -90.51265044702171 z"/>
<path fill="#bababa" stroke="#bababa" d="M55.30872483221476 -62.20808191910293 L55.30872483221476 -90.5126504470217 L54.36912751677851 -90.27079441867707 L54.36912751677851 -81.03965435917152 L54.46951219512194 -81.2371583626641 L54.999999999999986 -81.52903795020545 L55.07843137254901 -81.52626132546489 L55.07843137254901 -80.51077033999316 L54.999999999999986 -80.4676166304085 L54.46951219512194 -80.48639694134431 L54.36912751677851 -80.63222212623678 L54.36912751677851 -61.966225890758295 z"/>
<path fill="#bababa" stroke="#bababa" d="M55.00099760059855 -81.52900263318355 L54.99999999999999 -81.52903795020548 L54.99999999999999 -81.54922649262751 L55.07843137254901 -81.5262613254649 z"/>
<path fill="#bababa" stroke="#bababa" d="M54.275 -81.0612675247764 L54.36912751677852 -81.03965435917152 L54.36912751677852 -90.27079441867708 L54.02684563758389 -90.93471292785841 L54.02684563758389 -62.630144399939645 L54.36912751677852 -61.966225890758295 L54.36912751677852 -80.63222212623677 L54.27499999999999 -80.97576414068165 z"/>
<path fill="#bababa" stroke="#bababa" d="M54.275 -81.0612675247764 L54.275 -80.97576414068165 L54.46951219512195 -80.64313512206911 L55 -80.48780517283055 L55.07843137254902 -80.51077033999316 L55.07843137254902 -81.52626132546489 L55 -81.5492264926275 L54.46951219512195 -81.3938965433889 z"/>
<path fill="#bababa" stroke="#bababa" d="M54.96644295302013 -62.872000428284274 L54.02684563758388 -62.63014439993964 L54.02684563758388 -90.93471292785841 L54.96644295302013 -91.17656895620306 z"/>
<path fill="#bababa" stroke="#bababa" d="M54.36912751677852 -90.27079441867708 L55.308724832214764 -90.51265044702173 L54.96644295302013 -91.17656895620307 L54.02684563758389 -90.93471292785843 z"/>
<path fill="#bababa" stroke="#bababa" d="M55.308724832214764 -62.208081919102945 L54.36912751677852 -61.96622589075831 L54.02684563758389 -62.63014439993966 L54.96644295302013 -62.87200042828429 z"/>
<path fill="#bababa" stroke="#bababa" d="M0.8959731543624175 -76.97142467793508 L1.4093959731543597 -75.97554691416306 L1.4093959731543617 -49.79382102583819 L0.8959731543624168 -50.789698789610206 z"/>
<path fill="#bababa" stroke="#bababa" d="M59.151006711409394 -65.78477254697742 L59.66442953020134 -64.78889478320541 L59.66442953020133 -90.97062067153027 L59.151006711409394 -91.96649843530228 z"/>
<path fill="#bababa" stroke="#bababa" d="M0.8959731543624161 -50.78969878961022 L1.4093959731543624 -49.79382102583821 L59.66442953020134 -64.78889478320541 L59.151006711409394 -65.78477254697742 z"/>
<path fill="#bababa" stroke="#bababa" d="M59.151006711409394 -91.9664984353023 L59.66442953020134 -90.9706206715303 L1.4093959731543624 -75.97554691416308 L0.8959731543624161 -76.97142467793508 z"/>
<path fill="#bababa" stroke="#bababa" d="M61.07382550335571 -92.04101892724519 L61.0738255033557 -64.44406461252439 L60.560402684563755 -65.4399423762964 L60.560402684563755 -93.0368966910172 z"/>
<path fill="#bababa" stroke="#bababa" d="M0 -76.3203770848441 L61.0738255033557 -92.0410189272452 L60.560402684563755 -93.03689669101723 L-0.5134228187919463 -77.31625484861611 z"/>
<path fill="#bababa" stroke="#bababa" d="M-6.442423244244049e-16 -48.72342277012327 L3.626527523350726e-16 -76.32037708484408 L-0.5134228187919466 -77.3162548486161 L-0.5134228187919476 -49.71930053389529 z"/>
<path fill="#bababa" stroke="#bababa" d="M61.0738255033557 -64.44406461252439 L0 -48.723422770123285 L-0.5134228187919463 -49.71930053389529 L60.560402684563755 -65.43994237629641 z"/>
<path fill="#bababa" stroke="#bababa" d="M60.56040268456375 -65.4399423762964 L-0.5134228187919462 -49.719300533895286 L-0.5134228187919462 -77.3162548486161 L60.56040268456375 -93.03689669101722 z M1.0525727069351227 -77.01173401599252 L0.895973154362416 -76.97142467793508 L0.895973154362416 -50.789698789610206 L59.151006711409394 -65.78477254697742 L59.151006711409394 -91.96649843530228 z"/>
<path fill="#bababa" stroke="#bababa" d="M0 -76.32037708484408 L0 -48.72342277012327 L61.07382550335569 -64.44406461252439 L61.07382550335569 -92.04101892724519 z M1.5659955257270692 -76.01585625222049 L59.66442953020134 -90.97062067153027 L59.66442953020134 -64.78889478320541 L1.4093959731543622 -49.793821025838184 L1.4093959731543622 -75.97554691416305 z"/>
<path fill="#3c3c3c" stroke="#3c3c3c" d="M9.86111111111111 -69.98861214927204 L10.389150943396226 -70.07341541339554 L10.625 -70.41953106115542 L10.389150943396226 -70.76564670891528 L9.86111111111111 -70.85044997303879 L9.4375 -70.61181753213312 L9.4375 -70.2272445901777 z"/>
<path fill="#3c3c3c" stroke="#3c3c3c" d="M9.43750000000002 -69.83009810721903 L9.86111111111112 -69.70050482512411 L9.861111111111132 -69.98861214927203 L9.437500000000023 -70.2272445901777 z"/>
<path fill="#3c3c3c" stroke="#3c3c3c" d="M10.389150943396224 -70.07341541339555 L9.861111111111109 -69.98861214927206 L9.861111111111109 -69.70050482512411 L10.389150943396224 -69.92122760981898 z"/>
<path fill="#3c3c3c" stroke="#3c3c3c" d="M9.4375 -69.88413575609425 L9.4375 -69.83009810721904 L9.4375 -70.2272445901777 L9.4375 -70.61181753213313 L9.4375 -70.21467104917447 z"/>
<path fill="#3c3c3c" stroke="#3c3c3c" d="M9.494812002244739 -70.26170889823163 L9.437499999999984 -70.21467104917446 L9.437499999999982 -70.61181753213312 L9.861111111111095 -70.85044997303878 L9.861111111111098 -70.56234264889086 z"/>
<path fill="#3c3c3c" stroke="#3c3c3c" d="M9.86111111111111 -70.8504499730388 L10.389150943396224 -70.76564670891531 L10.389150943396224 -70.61345890533876 L9.86111111111111 -70.56234264889088 z"/>
<path fill="#3c3c3c" stroke="#3c3c3c" d="M10.389150943396231 -70.76564670891528 L10.625000000000004 -70.41953106115542 L10.625000000000004 -70.32805172830552 L10.389150943396233 -70.61345890533873 z"/>
<path fill="#3c3c3c" stroke="#3c3c3c" d="M10.624999999999996 -70.41953106115541 L10.389150943396219 -70.07341541339555 L10.38915094339622 -69.92122760981898 L10.624999999999991 -70.32805172830552 z"/>
<path fill="#3c3c3c" stroke="#3c3c3c" d="M59.66442953020133 -90.97062067153027 L59.66442953020134 -64.78889478320541 L59.151006711409394 -65.78477254697742 L59.151006711409394 -91.96649843530228 z"/>
<path fill="#3c3c3c" stroke="#3c3c3c" d="M1.4093959731543624 -75.97554691416306 L59.66442953020134 -90.9706206715303 L59.151006711409394 -91.96649843530231 L0.8959731543624161 -76.97142467793509 z"/>
<path fill="#3c3c3c" stroke="#3c3c3c" d="M1.4093959731543617 -49.79382102583819 L1.4093959731543597 -75.97554691416306 L0.8959731543624175 -76.97142467793508 L0.8959731543624168 -50.789698789610206 z"/>
<path fill="#3c3c3c" stroke="#3c3c3c" d="M59.66442953020134 -64.78889478320542 L1.4093959731543624 -49.79382102583819 L0.8959731543624161 -50.78969878961021 L59.151006711409394 -65.78477254697744 z"/>
<path fill="#3c3c3c" stroke="#3c3c3c" d="M0.8959731543624161 -76.97142467793508 L59.15100671140939 -91.9664984353023 L59.15100671140939 -65.78477254697741 L0.8959731543624161 -50.7896987896102 z"/>
<path fill="#3c3c3c" stroke="#3c3c3c" d="M1.4093959731543622 -49.793821025838184 L59.66442953020134 -64.78889478320541 L59.66442953020134 -90.97062067153028 L1.4093959731543622 -75.97554691416306 z M9.816197809851795 -69.71424493242357 L9.437499999999998 -69.83009810721904 L9.437499999999998 -70.21467104917446 L9.861111111111109 -70.56234264889086 L10.389150943396226 -70.61345890533873 L10.624999999999998 -70.32805172830552 L10.389150943396226 -69.92122760981897 L9.861111111111109 -69.7005048251241 z"/>
<path fill="#bababa" stroke="#bababa" d="M10.624999999999998 5.0593183466279905 L10.624999999999996 7.885714285714284 L10.389150943396224 8.23182993347416 L10.389150943396224 5.405433994387867 z"/>
<path fill="#bababa" stroke="#bababa" d="M10.389150943396228 4.713202698868114 L10.389150943396228 7.539598637954408 L10.625000000000002 7.885714285714284 L10.625 5.0593183466279905 z"/>
<path fill="#bababa" stroke="#bababa" d="M9.861111111111109 4.6283994347446065 L9.861111111111109 7.4547953738309 L10.389150943396224 7.539598637954403 L10.389150943396224 4.713202698868109 z"/>
<path fill="#bababa" stroke="#bababa" d="M9.437499999999996 4.867031875650281 L9.437499999999996 7.693427814736577 L9.861111111111109 7.454795373830906 L9.861111111111109 4.628399434744611 z"/>
<path fill="#bababa" stroke="#bababa" d="M9.4375 5.2516048176057 L9.4375 8.078000756691994 L9.4375 7.693427814736576 L9.4375 4.867031875650282 z"/>
<path fill="#bababa" stroke="#bababa" d="M10.389150943396224 5.405433994387865 L10.389150943396224 8.231829933474158 L9.861111111111109 8.31663319759766 L9.861111111111109 5.4902372585113675 z"/>
<path fill="#bababa" stroke="#bababa" d="M9.86111111111111 5.490237258511369 L9.86111111111111 8.316633197597664 L9.4375 8.078000756691994 L9.437500000000002 5.251604817605701 z"/>
<path fill="#bababa" stroke="#bababa" d="M10.625 5.0593183466279905 L10.389150943396226 5.405433994387867 L9.86111111111111 5.490237258511369 L9.4375 5.2516048176057 L9.4375 4.867031875650282 L9.86111111111111 4.628399434744612 L10.389150943396226 4.713202698868114 z"/>
<path fill="#bababa" stroke="#bababa" d="M10.625 7.885714285714284 L10.389150943396226 7.539598637954408 L9.86111111111111 7.454795373830906 L9.4375 7.693427814736576 L9.4375 8.078000756691994 L9.86111111111111 8.316633197597662 L10.389150943396226 8.231829933474161 z"/>
<path fill="#bababa" stroke="#bababa" d="M55.62499999999999 5.0593183466279905 L55.62499999999999 7.885714285714284 L55.389150943396224 8.23182993347416 L55.389150943396224 5.405433994387867 z"/>
<path fill="#bababa" stroke="#bababa" d="M55.389150943396224 4.713202698868114 L55.389150943396224 7.539598637954408 L55.625 7.885714285714284 L55.625 5.0593183466279905 z"/>
<path fill="#bababa" stroke="#bababa" d="M54.86111111111111 4.6283994347446065 L54.86111111111111 7.454795373830906 L55.38915094339622 7.539598637954408 L55.38915094339622 4.713202698868109 z"/>
<path fill="#bababa" stroke="#bababa" d="M54.43749999999999 4.867031875650281 L54.43749999999999 7.693427814736577 L54.86111111111111 7.454795373830906 L54.86111111111111 4.628399434744611 z"/>
<path fill="#bababa" stroke="#bababa" d="M54.4375 5.2516048176057 L54.4375 8.078000756691994 L54.4375 7.693427814736576 L54.4375 4.867031875650282 z"/>
<path fill="#bababa" stroke="#bababa" d="M55.38915094339622 5.405433994387866 L55.38915094339622 8.23182993347416 L54.86111111111111 8.31663319759766 L54.86111111111111 5.4902372585113675 z"/>
<path fill="#bababa" stroke="#bababa" d="M54.86111111111111 5.490237258511369 L54.86111111111111 8.316633197597664 L54.4375 8.078000756691994 L54.4375 5.251604817605701 z"/>
<path fill="#bababa" stroke="#bababa" d="M55.625 5.0593183466279905 L55.389150943396224 5.405433994387867 L54.86111111111111 5.490237258511369 L54.4375 5.2516048176057 L54.4375 4.867031875650282 L54.86111111111111 4.628399434744612 L55.389150943396224 4.713202698868114 z"/>
<path fill="#bababa" stroke="#bababa" d="M55.625 7.885714285714284 L55.389150943396224 7.539598637954408 L54.86111111111111 7.454795373830906 L54.4375 7.693427814736576 L54.4375 8.078000756691994 L54.86111111111111 8.316633197597662 L55.389150943396224 8.231829933474161 z"/>
<path fill="#bababa" stroke="#bababa" d="M55.53048780487805 -5.915047135605509 L55.53048780487805 4.683937635968092 L55.75 5.0593183466279905 L55.75 -5.539666424945612 z"/>
<path fill="#bababa" stroke="#bababa" d="M54.99999999999999 -6.070377084844096 L54.99999999999999 4.528607686729507 L55.53048780487804 4.683937635968087 L55.53048780487804 -5.915047135605516 z"/>
<path fill="#bababa" stroke="#bababa" d="M54.46951219512194 -5.915047135605511 L54.46951219512194 4.683937635968089 L54.99999999999999 4.528607686729511 L54.99999999999999 -6.07037708484409 z"/>
<path fill="#bababa" stroke="#bababa" d="M54.99999999999999 -5.008955765047138 L54.99999999999999 5.590029006526465 L54.46951219512194 5.4346990572878875 L54.46951219512194 -5.1642857142857155 z"/>
<path fill="#bababa" stroke="#bababa" d="M54.24999999999999 -5.539666424945612 L54.24999999999999 5.0593183466279905 L54.46951219512194 4.683937635968092 L54.46951219512194 -5.915047135605509 z"/>
<path fill="#bababa" stroke="#bababa" d="M54.46951219512195 -5.164285714285714 L54.46951219512195 5.434699057287889 L54.25 5.0593183466279905 L54.25 -5.539666424945612 z"/>
<path fill="#bababa" stroke="#bababa" d="M55.53048780487804 -5.164285714285714 L55.53048780487804 5.434699057287889 L54.99999999999999 5.590029006526469 L54.99999999999999 -5.0089557650471335 z"/>
<path fill="#bababa" stroke="#bababa" d="M55.74999999999999 -5.539666424945612 L55.74999999999999 5.0593183466279905 L55.53048780487804 5.434699057287889 L55.53048780487804 -5.164285714285714 z"/>
<path fill="#bababa" stroke="#bababa" d="M55.53048780487804 -5.91504713560551 L55.75 -5.5396664249456125 L55.53048780487804 -5.164285714285714 L55 -5.008955765047135 L54.46951219512195 -5.164285714285714 L54.25 -5.5396664249456125 L54.46951219512195 -5.91504713560551 L55 -6.070377084844089 z"/>
<path fill="#bababa" stroke="#bababa" d="M55.75 5.0593183466279905 L55.53048780487804 4.683937635968092 L55 4.528607686729513 L54.46951219512195 4.683937635968092 L54.25 5.0593183466279905 L54.46951219512195 5.434699057287888 L55 5.590029006526467 L55.53048780487804 5.434699057287888 z"/>
<path fill="#bababa" stroke="#bababa" d="M10.624999999999998 -32.68010635726371 L10.624999999999996 -29.85371041817742 L10.389150943396224 -29.507594770417544 L10.389150943396222 -32.33399070950384 z"/>
<path fill="#bababa" stroke="#bababa" d="M10.389150943396228 -33.02622200502359 L10.389150943396226 -30.199826065937298 L10.625000000000002 -29.85371041817742 L10.625 -32.68010635726371 z"/>
<path fill="#bababa" stroke="#bababa" d="M9.861111111111109 -33.111025269147106 L9.861111111111109 -30.284629330060806 L10.389150943396224 -30.1998260659373 L10.389150943396224 -33.0262220050236 z"/>
<path fill="#bababa" stroke="#bababa" d="M9.437499999999995 -32.87239282824142 L9.437499999999993 -30.04599688915513 L9.8611111111111 -30.2846293300608 L9.861111111111102 -33.11102526914709 z"/>
<path fill="#bababa" stroke="#bababa" d="M9.4375 -32.487819886286005 L9.4375 -29.66142394719971 L9.4375 -30.04599688915513 L9.4375 -32.87239282824142 z"/>
<path fill="#bababa" stroke="#bababa" d="M10.389150943396224 -32.33399070950384 L10.389150943396224 -29.50759477041755 L9.861111111111109 -29.42279150629405 L9.861111111111109 -32.249187445380336 z"/>
<path fill="#bababa" stroke="#bababa" d="M9.861111111111118 -32.24918744538033 L9.86111111111112 -29.42279150629404 L9.437500000000004 -29.661423947199715 L9.437500000000002 -32.487819886286005 z"/>
<path fill="#bababa" stroke="#bababa" d="M10.625 -32.68010635726371 L10.389150943396226 -32.33399070950384 L9.86111111111111 -32.249187445380336 L9.4375 -32.487819886286005 L9.4375 -32.872392828241416 L9.86111111111111 -33.11102526914709 L10.389150943396226 -33.02622200502359 z"/>
<path fill="#bababa" stroke="#bababa" d="M10.625 -29.853710418177418 L10.389150943396226 -30.199826065937295 L9.86111111111111 -30.2846293300608 L9.4375 -30.04599688915513 L9.4375 -29.66142394719971 L9.86111111111111 -29.42279150629404 L10.389150943396226 -29.50759477041754 z"/>
<path fill="#bababa" stroke="#bababa" d="M55.62499999999999 -32.68010635726371 L55.62499999999999 -29.85371041817742 L55.389150943396224 -29.507594770417544 L55.38915094339622 -32.33399070950384 z"/>
<path fill="#bababa" stroke="#bababa" d="M55.389150943396224 -33.02622200502359 L55.389150943396224 -30.199826065937298 L55.625 -29.85371041817742 L55.625 -32.68010635726371 z"/>
<path fill="#bababa" stroke="#bababa" d="M54.86111111111111 -33.1110252691471 L54.86111111111111 -30.28462933006081 L55.38915094339622 -30.19982606593731 L55.38915094339622 -33.0262220050236 z"/>
<path fill="#bababa" stroke="#bababa" d="M54.43749999999999 -32.87239282824142 L54.43749999999999 -30.04599688915513 L54.8611111111111 -30.2846293300608 L54.8611111111111 -33.11102526914709 z"/>
<path fill="#bababa" stroke="#bababa" d="M54.4375 -32.487819886286005 L54.4375 -29.66142394719971 L54.4375 -30.04599688915513 L54.4375 -32.87239282824142 z"/>
<path fill="#bababa" stroke="#bababa" d="M55.38915094339622 -32.333990709503844 L55.38915094339622 -29.507594770417548 L54.86111111111111 -29.422791506294043 L54.86111111111111 -32.24918744538034 z"/>
<path fill="#bababa" stroke="#bababa" d="M54.861111111111114 -32.24918744538033 L54.861111111111114 -29.42279150629404 L54.4375 -29.661423947199715 L54.4375 -32.487819886286005 z"/>
<path fill="#bababa" stroke="#bababa" d="M55.625 -32.68010635726371 L55.389150943396224 -32.33399070950384 L54.86111111111111 -32.249187445380336 L54.4375 -32.487819886286005 L54.4375 -32.872392828241416 L54.86111111111111 -33.11102526914709 L55.389150943396224 -33.02622200502359 z"/>
<path fill="#bababa" stroke="#bababa" d="M55.625 -29.853710418177418 L55.389150943396224 -30.199826065937295 L54.86111111111111 -30.2846293300608 L54.4375 -30.04599688915513 L54.4375 -29.66142394719971 L54.86111111111111 -29.42279150629404 L55.389150943396224 -29.50759477041754 z"/>
<path fill="#bababa" stroke="#bababa" d="M55.53048780487804 -43.65447183949721 L55.53048780487805 -33.05548706792361 L55.75 -32.68010635726371 L55.75 -43.279091128837315 z"/>
<path fill="#bababa" stroke="#bababa" d="M54.99999999999999 -43.809801788735804 L54.99999999999999 -33.21081701716221 L55.53048780487804 -33.05548706792363 L55.53048780487804 -43.654471839497226 z"/>
<path fill="#bababa" stroke="#bababa" d="M54.46951219512194 -43.654471839497226 L54.46951219512194 -33.05548706792362 L54.99999999999999 -33.2108170171622 L54.99999999999999 -43.809801788735804 z"/>
<path fill="#bababa" stroke="#bababa" d="M54.99999999999999 -42.74838046893885 L54.99999999999999 -32.14939569736525 L54.46951219512194 -32.304725646603835 L54.46951219512194 -42.903710418177425 z"/>
<path fill="#bababa" stroke="#bababa" d="M54.24999999999999 -43.279091128837315 L54.24999999999999 -32.68010635726371 L54.46951219512194 -33.05548706792361 L54.46951219512195 -43.65447183949721 z"/>
<path fill="#bababa" stroke="#bababa" d="M54.46951219512195 -42.90371041817742 L54.46951219512195 -32.30472564660381 L54.25 -32.68010635726371 L54.25 -43.279091128837315 z"/>
<path fill="#bababa" stroke="#bababa" d="M55.53048780487804 -42.903710418177425 L55.53048780487804 -32.30472564660382 L54.99999999999999 -32.14939569736524 L54.99999999999999 -42.74838046893884 z"/>
<path fill="#bababa" stroke="#bababa" d="M55.74999999999999 -43.279091128837315 L55.74999999999999 -32.68010635726371 L55.53048780487804 -32.30472564660381 L55.53048780487804 -42.90371041817742 z"/>
<path fill="#bababa" stroke="#bababa" d="M55.53048780487804 -43.65447183949721 L55.75 -43.279091128837315 L55.53048780487804 -42.90371041817741 L55 -42.748380468938834 L54.46951219512195 -42.90371041817741 L54.25 -43.279091128837315 L54.46951219512195 -43.65447183949721 L55 -43.80980178873579 z"/>
<path fill="#bababa" stroke="#bababa" d="M55.75 -32.68010635726371 L55.53048780487804 -33.05548706792361 L55 -33.210817017162185 L54.46951219512195 -33.05548706792361 L54.25 -32.68010635726371 L54.46951219512195 -32.30472564660381 L55 -32.149395697365236 L55.53048780487804 -32.30472564660381 z"/>
<path fill="#bababa" stroke="#bababa" d="M10.624999999999996 -70.41953106115541 L10.624999999999993 -67.59313512206913 L10.389150943396222 -67.24701947430924 L10.38915094339622 -70.07341541339554 z"/>
<path fill="#bababa" stroke="#bababa" d="M10.389150943396231 -70.7656467089153 L10.38915094339623 -67.939250769829 L10.625000000000005 -67.59313512206913 L10.625000000000002 -70.41953106115541 z"/>
<path fill="#bababa" stroke="#bababa" d="M9.861111111111109 -70.8504499730388 L9.861111111111109 -68.02405403395252 L10.389150943396224 -67.93925076982902 L10.389150943396224 -70.7656467089153 z"/>
<path fill="#bababa" stroke="#bababa" d="M9.437499999999979 -70.61181753213312 L9.437499999999977 -67.78542159304682 L9.861111111111093 -68.0240540339525 L9.861111111111095 -70.85044997303879 z"/>
<path fill="#bababa" stroke="#bababa" d="M9.4375 -70.2272445901777 L9.4375 -67.40084865109142 L9.4375 -67.78542159304683 L9.4375 -70.61181753213313 z"/>
<path fill="#bababa" stroke="#bababa" d="M10.389150943396224 -70.07341541339554 L10.389150943396224 -67.24701947430925 L9.861111111111109 -67.16221621018575 L9.861111111111109 -69.98861214927204 z"/>
<path fill="#bababa" stroke="#bababa" d="M9.86111111111113 -69.98861214927204 L9.861111111111121 -67.16221621018573 L9.437500000000005 -67.40084865109141 L9.437500000000014 -70.22724459017772 z"/>
<path fill="#bababa" stroke="#bababa" d="M10.625 -70.41953106115541 L10.389150943396226 -70.07341541339554 L9.86111111111111 -69.98861214927203 L9.4375 -70.2272445901777 L9.4375 -70.61181753213313 L9.86111111111111 -70.85044997303879 L10.389150943396226 -70.76564670891528 z"/>
<path fill="#bababa" stroke="#bababa" d="M10.625 -67.59313512206913 L10.389150943396226 -67.939250769829 L9.86111111111111 -68.0240540339525 L9.4375 -67.78542159304683 L9.4375 -67.40084865109141 L9.86111111111111 -67.16221621018575 L10.389150943396226 -67.24701947430925 z"/>
<path fill="#bababa" stroke="#bababa" d="M55.62499999999999 -70.41953106115541 L55.62499999999999 -67.59313512206913 L55.38915094339622 -67.24701947430924 L55.38915094339622 -70.07341541339554 z"/>
<path fill="#bababa" stroke="#bababa" d="M55.38915094339623 -70.7656467089153 L55.389150943396224 -67.939250769829 L55.625 -67.59313512206913 L55.625 -70.41953106115541 z"/>
<path fill="#bababa" stroke="#bababa" d="M54.86111111111111 -70.8504499730388 L54.86111111111111 -68.02405403395251 L55.38915094339622 -67.93925076982902 L55.38915094339622 -70.7656467089153 z"/>
<path fill="#bababa" stroke="#bababa" d="M54.43749999999998 -70.61181753213312 L54.43749999999997 -67.78542159304682 L54.86111111111109 -68.0240540339525 L54.86111111111109 -70.85044997303879 z"/>
<path fill="#bababa" stroke="#bababa" d="M54.4375 -70.2272445901777 L54.4375 -67.40084865109142 L54.4375 -67.78542159304683 L54.4375 -70.61181753213313 z"/>
<path fill="#bababa" stroke="#bababa" d="M55.38915094339622 -70.07341541339555 L55.38915094339622 -67.24701947430925 L54.86111111111111 -67.16221621018576 L54.86111111111111 -69.98861214927204 z"/>
<path fill="#bababa" stroke="#bababa" d="M54.86111111111113 -69.98861214927204 L54.86111111111112 -67.16221621018573 L54.4375 -67.40084865109141 L54.437500000000014 -70.22724459017772 z"/>
<path fill="#bababa" stroke="#bababa" d="M55.625 -70.41953106115541 L55.389150943396224 -70.07341541339554 L54.86111111111111 -69.98861214927203 L54.4375 -70.2272445901777 L54.4375 -70.61181753213313 L54.86111111111111 -70.85044997303879 L55.389150943396224 -70.76564670891528 z"/>
<path fill="#bababa" stroke="#bababa" d="M55.625 -67.59313512206913 L55.389150943396224 -67.939250769829 L54.86111111111111 -68.0240540339525 L54.4375 -67.78542159304683 L54.4375 -67.40084865109141 L54.86111111111111 -67.16221621018575 L55.389150943396224 -67.24701947430925 z"/>
<path fill="#bababa" stroke="#bababa" d="M55.53048780487805 -81.39389654338892 L55.53048780487805 -70.79491177181532 L55.75000000000001 -70.41953106115541 L55.75 -81.01851583272902 z"/>
<path fill="#bababa" stroke="#bababa" d="M54.99999999999999 -81.54922649262751 L54.99999999999999 -70.95024172105391 L55.53048780487804 -70.79491177181534 L55.53048780487804 -81.39389654338893 z"/>
<path fill="#bababa" stroke="#bababa" d="M54.46951219512194 -81.39389654338893 L54.46951219512194 -70.79491177181534 L54.99999999999999 -70.95024172105391 L54.99999999999999 -81.54922649262751 z"/>
<path fill="#bababa" stroke="#bababa" d="M54.99999999999999 -80.48780517283056 L54.99999999999999 -69.88882040125695 L54.46951219512194 -70.04415035049553 L54.46951219512194 -80.64313512206914 z"/>
<path fill="#bababa" stroke="#bababa" d="M54.24999999999999 -81.01851583272902 L54.249999999999986 -70.41953106115541 L54.46951219512194 -70.79491177181532 L54.46951219512194 -81.39389654338892 z"/>
<path fill="#bababa" stroke="#bababa" d="M54.46951219512195 -80.64313512206913 L54.46951219512195 -70.04415035049551 L54.25000000000001 -70.41953106115541 L54.25 -81.01851583272902 z"/>
<path fill="#bababa" stroke="#bababa" d="M55.53048780487804 -80.64313512206913 L55.53048780487804 -70.04415035049553 L54.99999999999999 -69.88882040125695 L54.99999999999999 -80.48780517283055 z"/>
<path fill="#bababa" stroke="#bababa" d="M55.74999999999999 -81.01851583272902 L55.749999999999986 -70.41953106115541 L55.53048780487804 -70.04415035049551 L55.53048780487804 -80.64313512206913 z"/>
<path fill="#bababa" stroke="#bababa" d="M55.53048780487804 -81.39389654338892 L55.75 -81.01851583272902 L55.53048780487804 -80.64313512206911 L55 -80.48780517283053 L54.46951219512195 -80.64313512206911 L54.25 -81.01851583272902 L54.46951219512195 -81.39389654338892 L55 -81.5492264926275 z"/>
<path fill="#bababa" stroke="#bababa" d="M55.75 -70.41953106115542 L55.53048780487804 -70.79491177181531 L55 -70.9502417210539 L54.46951219512195 -70.79491177181531 L54.25 -70.41953106115542 L54.46951219512195 -70.04415035049551 L55 -69.88882040125694 L55.53048780487804 -70.04415035049551 z"/>
</svg>