<?xml version="1.0" encoding="UTF-8"?>
<!-- Generated by jsxcad -->
<!DOCTYPE svg PUBLIC "-//W3C//DTD SVG 1.1 Tiny//EN" "http://www.w3.org/Graphics/SVG/1.1/DTD/svg11-tiny.dtd">
<svg baseProfile="tiny" height="300.62740727401916mm" width="65.02097315436242mm" viewBox="-9.395973154362416 -53.72139799982017 65.02097315436242 300.62740727401916" version="1.1" stroke="black" stroke-width=".1" fill="none" xmlns="http://www.w3.org/2000/svg">
<path fill="#bababa" stroke="#bababa" d="M10.624999999999998 -0.3527117285599786 L10.624999999999998 2.4736842105263155 L10.389150943396226 2.8197998582861916 L10.389150943396224 -0.006596080800102295 z"/>
<path fill="#bababa" stroke="#bababa" d="M10.389150943396226 -0.698827376319855 L10.389150943396226 2.127568562766439 L10.625 2.4736842105263155 L10.625 -0.3527117285599786 z"/>
<path fill="#bababa" stroke="#bababa" d="M9.861111111111109 -0.7836306404433583 L9.861111111111109 2.0427652986429354 L10.389150943396224 2.127568562766438 L10.389150943396224 -0.6988273763198556 z"/>
<path fill="#bababa" stroke="#bababa" d="M9.437499999999998 -0.5449981995376875 L9.437499999999998 2.281397739548606 L9.861111111111109 2.0427652986429363 L9.861111111111109 -0.783630640443358 z"/>
<path fill="#bababa" stroke="#bababa" d="M9.4375 -0.1604252575822695 L9.4375 2.6659706815040245 L9.4375 2.2813977395486065 L9.4375 -0.5449981995376877 z"/>
<path fill="#bababa" stroke="#bababa" d="M10.389150943396224 -0.006596080800102225 L10.389150943396224 2.819799858286191 L9.861111111111109 2.9046031224096938 L9.861111111111109 0.07820718332340039 z"/>
<path fill="#bababa" stroke="#bababa" d="M9.86111111111111 0.07820718332339997 L9.86111111111111 2.904603122409694 L9.4375 2.665970681504025 L9.4375 -0.16042525758226986 z"/>
<path fill="#bababa" stroke="#bababa" d="M10.625 -0.35271172855997857 L10.389150943396226 -0.006596080800102219 L9.86111111111111 0.07820718332340025 L9.4375 -0.16042525758226947 L9.4375 -0.5449981995376877 L9.86111111111111 -0.7836306404433574 L10.389150943396226 -0.6988273763198548 z"/>
<path fill="#bababa" stroke="#bababa" d="M10.625 2.4736842105263155 L10.389150943396226 2.127568562766439 L9.86111111111111 2.0427652986429368 L9.4375 2.2813977395486065 L9.4375 2.6659706815040245 L9.86111111111111 2.904603122409694 L10.389150943396226 2.8197998582861916 z"/>
<path fill="#bababa" stroke="#bababa" d="M55.62499999999999 -0.3527117285599786 L55.62499999999999 2.4736842105263155 L55.389150943396224 2.8197998582861916 L55.389150943396224 -0.006596080800102295 z"/>
<path fill="#bababa" stroke="#bababa" d="M55.389150943396224 -0.698827376319855 L55.389150943396224 2.127568562766439 L55.625 2.4736842105263155 L55.625 -0.3527117285599786 z"/>
<path fill="#bababa" stroke="#bababa" d="M54.86111111111111 -0.7836306404433583 L54.86111111111111 2.0427652986429328 L55.38915094339622 2.127568562766435 L55.38915094339622 -0.698827376319856 z"/>
<path fill="#bababa" stroke="#bababa" d="M54.43749999999999 -0.5449981995376875 L54.43749999999999 2.281397739548606 L54.86111111111111 2.0427652986429363 L54.86111111111111 -0.783630640443358 z"/>
<path fill="#bababa" stroke="#bababa" d="M54.4375 -0.1604252575822695 L54.4375 2.6659706815040245 L54.4375 2.2813977395486065 L54.4375 -0.5449981995376877 z"/>
<path fill="#bababa" stroke="#bababa" d="M55.38915094339622 -0.006596080800101545 L55.38915094339622 2.8197998582861925 L54.86111111111111 2.9046031224096946 L54.86111111111111 0.07820718332340075 z"/>
<path fill="#bababa" stroke="#bababa" d="M54.86111111111111 0.07820718332339997 L54.86111111111111 2.904603122409694 L54.4375 2.665970681504025 L54.4375 -0.16042525758226986 z"/>
<path fill="#bababa" stroke="#bababa" d="M55.625 -0.35271172855997857 L55.389150943396224 -0.006596080800102219 L54.86111111111111 0.07820718332340025 L54.4375 -0.16042525758226947 L54.4375 -0.5449981995376877 L54.86111111111111 -0.7836306404433574 L55.389150943396224 -0.6988273763198548 z"/>
<path fill="#bababa" stroke="#bababa" d="M55.625 2.4736842105263155 L55.389150943396224 2.127568562766439 L54.86111111111111 2.0427652986429368 L54.4375 2.2813977395486065 L54.4375 2.6659706815040245 L54.86111111111111 2.904603122409694 L55.389150943396224 2.8197998582861916 z"/>
<path fill="#bababa" stroke="#bababa" d="M10.624999999999993 -56.96184878439753 L10.624999999999996 -54.13545284531124 L10.38915094339622 -53.78933719755137 L10.38915094339622 -56.61573313663765 z"/>
<path fill="#bababa" stroke="#bababa" d="M10.38915094339623 -57.307964432157405 L10.389150943396231 -54.48156849307112 L10.625000000000002 -54.13545284531124 L10.625000000000005 -56.96184878439753 z"/>
<path fill="#bababa" stroke="#bababa" d="M9.861111111111109 -57.39276769628092 L9.861111111111109 -54.56637175719463 L10.389150943396224 -54.48156849307113 L10.389150943396224 -57.30796443215742 z"/>
<path fill="#bababa" stroke="#bababa" d="M9.437499999999991 -57.154135255375245 L9.437499999999993 -54.32773931628895 L9.8611111111111 -54.56637175719462 L9.86111111111109 -57.392767696280906 z"/>
<path fill="#bababa" stroke="#bababa" d="M9.4375 -56.76956231341983 L9.4375 -53.943166374333536 L9.4375 -54.327739316288955 L9.4375 -57.154135255375245 z"/>
<path fill="#bababa" stroke="#bababa" d="M10.389150943396224 -56.615733136637665 L10.389150943396224 -53.789337197551376 L9.861111111111109 -53.704533933427875 L9.861111111111109 -56.530929872514164 z"/>
<path fill="#bababa" stroke="#bababa" d="M9.86111111111113 -56.53092987251414 L9.86111111111112 -53.704533933427854 L9.437500000000004 -53.94316637433353 L9.437500000000014 -56.76956231341982 z"/>
<path fill="#bababa" stroke="#bababa" d="M10.625 -56.96184878439754 L10.389150943396226 -56.61573313663766 L9.86111111111111 -56.53092987251416 L9.4375 -56.769562313419826 L9.4375 -57.154135255375245 L9.86111111111111 -57.39276769628091 L10.389150943396226 -57.30796443215741 z"/>
<path fill="#bababa" stroke="#bababa" d="M10.625 -54.135452845311235 L10.389150943396226 -54.481568493071116 L9.86111111111111 -54.56637175719462 L9.4375 -54.32773931628895 L9.4375 -53.94316637433353 L9.86111111111111 -53.70453393342786 L10.389150943396226 -53.78933719755136 z"/>
<path fill="#bababa" stroke="#bababa" d="M55.62499999999999 -56.96184878439753 L55.62499999999999 -54.13545284531124 L55.38915094339622 -53.78933719755137 L55.38915094339622 -56.61573313663765 z"/>
<path fill="#bababa" stroke="#bababa" d="M55.389150943396224 -57.307964432157405 L55.38915094339623 -54.48156849307112 L55.625 -54.13545284531124 L55.625 -56.96184878439753 z"/>
<path fill="#bababa" stroke="#bababa" d="M54.86111111111111 -57.39276769628093 L54.86111111111111 -54.566371757194624 L55.38915094339622 -54.48156849307112 L55.38915094339622 -57.30796443215742 z"/>
<path fill="#bababa" stroke="#bababa" d="M54.437499999999986 -57.154135255375245 L54.43749999999999 -54.32773931628895 L54.8611111111111 -54.56637175719462 L54.861111111111086 -57.392767696280906 z"/>
<path fill="#bababa" stroke="#bababa" d="M54.4375 -56.76956231341983 L54.4375 -53.943166374333536 L54.4375 -54.327739316288955 L54.4375 -57.154135255375245 z"/>
<path fill="#bababa" stroke="#bababa" d="M55.38915094339622 -56.61573313663767 L55.38915094339622 -53.78933719755137 L54.86111111111111 -53.70453393342787 L54.86111111111111 -56.53092987251417 z"/>
<path fill="#bababa" stroke="#bababa" d="M54.86111111111113 -56.53092987251414 L54.861111111111114 -53.704533933427854 L54.4375 -53.94316637433353 L54.437500000000014 -56.76956231341982 z"/>
<path fill="#bababa" stroke="#bababa" d="M55.625 -56.96184878439754 L55.389150943396224 -56.61573313663766 L54.86111111111111 -56.53092987251416 L54.4375 -56.769562313419826 L54.4375 -57.154135255375245 L54.86111111111111 -57.39276769628091 L55.389150943396224 -57.30796443215741 z"/>
<path fill="#bababa" stroke="#bababa" d="M55.625 -54.135452845311235 L55.389150943396224 -54.481568493071116 L54.86111111111111 -54.56637175719462 L54.4375 -54.32773931628895 L54.4375 -53.94316637433353 L54.86111111111111 -53.70453393342786 L55.389150943396224 -53.78933719755136 z"/>
<path fill="#bababa" stroke="#bababa" d="M10.62499999999999 -113.57098584023507 L10.624999999999991 -110.74458990114879 L10.38915094339622 -110.39847425338891 L10.389150943396219 -113.22487019247521 z"/>
<path fill="#bababa" stroke="#bababa" d="M10.389150943396233 -113.91710148799496 L10.389150943396231 -111.09070554890867 L10.625000000000007 -110.74458990114879 L10.625000000000009 -113.57098584023507 z"/>
<path fill="#bababa" stroke="#bababa" d="M9.861111111111109 -114.00190475211849 L9.861111111111109 -111.1755088130322 L10.389150943396224 -111.0907055489087 L10.389150943396224 -113.91710148799498 z"/>
<path fill="#bababa" stroke="#bababa" d="M9.437499999999984 -113.76327231121282 L9.437499999999993 -110.9368763721265 L9.861111111111109 -111.17550881303218 L9.861111111111084 -114.00190475211846 z"/>
<path fill="#bababa" stroke="#bababa" d="M9.4375 -113.37869936925739 L9.4375 -110.5523034301711 L9.4375 -110.93687637212652 L9.4375 -113.7632723112128 z"/>
<path fill="#bababa" stroke="#bababa" d="M10.389150943396224 -113.22487019247522 L10.389150943396224 -110.39847425338894 L9.861111111111109 -110.31367098926543 L9.861111111111109 -113.14006692835171 z"/>
<path fill="#bababa" stroke="#bababa" d="M9.861111111111114 -113.14006692835173 L9.861111111111116 -110.31367098926543 L9.437500000000018 -110.55230343017108 L9.437500000000014 -113.37869936925738 z"/>
<path fill="#bababa" stroke="#bababa" d="M10.625 -113.5709858402351 L10.389150943396226 -113.22487019247522 L9.86111111111111 -113.1400669283517 L9.4375 -113.37869936925738 L9.4375 -113.76327231121279 L9.86111111111111 -114.00190475211846 L10.389150943396226 -113.91710148799497 z"/>
<path fill="#bababa" stroke="#bababa" d="M10.625 -110.7445899011488 L10.389150943396226 -111.09070554890867 L9.86111111111111 -111.17550881303217 L9.4375 -110.9368763721265 L9.4375 -110.55230343017108 L9.86111111111111 -110.3136709892654 L10.389150943396226 -110.39847425338893 z"/>
<path fill="#bababa" stroke="#bababa" d="M55.624999999999986 -113.57098584023507 L55.624999999999986 -110.74458990114879 L55.38915094339622 -110.39847425338891 L55.38915094339622 -113.22487019247521 z"/>
<path fill="#bababa" stroke="#bababa" d="M55.38915094339623 -113.91710148799496 L55.38915094339623 -111.09070554890867 L55.62500000000001 -110.74458990114879 L55.62500000000001 -113.57098584023507 z"/>
<path fill="#bababa" stroke="#bababa" d="M54.86111111111111 -114.00190475211848 L54.86111111111111 -111.1755088130322 L55.38915094339622 -111.09070554890869 L55.38915094339622 -113.91710148799498 z"/>
<path fill="#bababa" stroke="#bababa" d="M54.43749999999998 -113.76327231121282 L54.43749999999999 -110.9368763721265 L54.86111111111111 -111.17550881303218 L54.86111111111108 -114.00190475211846 z"/>
<path fill="#bababa" stroke="#bababa" d="M54.4375 -113.37869936925739 L54.4375 -110.5523034301711 L54.4375 -110.93687637212652 L54.4375 -113.7632723112128 z"/>
<path fill="#bababa" stroke="#bababa" d="M55.38915094339622 -113.22487019247522 L55.38915094339622 -110.39847425338894 L54.86111111111111 -110.31367098926543 L54.86111111111111 -113.14006692835173 z"/>
<path fill="#bababa" stroke="#bababa" d="M54.861111111111114 -113.14006692835173 L54.861111111111114 -110.31367098926543 L54.437500000000014 -110.55230343017108 L54.437500000000014 -113.37869936925738 z"/>
<path fill="#bababa" stroke="#bababa" d="M55.625 -113.5709858402351 L55.389150943396224 -113.22487019247522 L54.86111111111111 -113.1400669283517 L54.4375 -113.37869936925738 L54.4375 -113.76327231121279 L54.86111111111111 -114.00190475211846 L55.389150943396224 -113.91710148799497 z"/>
<path fill="#bababa" stroke="#bababa" d="M55.625 -110.7445899011488 L55.389150943396224 -111.09070554890867 L54.86111111111111 -111.17550881303217 L54.4375 -110.9368763721265 L54.4375 -110.55230343017108 L54.86111111111111 -110.3136709892654 L55.389150943396224 -110.39847425338893 z"/>
<path fill="#bababa" stroke="#bababa" d="M10.624999999999986 -170.18012289607265 L10.624999999999993 -167.35372695698635 L10.389150943396217 -167.0076113092265 L10.389150943396219 -169.8340072483128 z"/>
<path fill="#bababa" stroke="#bababa" d="M10.389150943396237 -170.52623854383253 L10.38915094339623 -167.69984260474624 L10.625000000000005 -167.35372695698635 L10.625000000000012 -170.18012289607265 z"/>
<path fill="#bababa" stroke="#bababa" d="M9.861111111111109 -170.61104180795604 L9.861111111111109 -167.78464586886975 L10.389150943396224 -167.69984260474624 L10.389150943396224 -170.52623854383256 z"/>
<path fill="#bababa" stroke="#bababa" d="M9.43749999999999 -170.37240936705035 L9.437499999999988 -167.54601342796406 L9.861111111111104 -167.78464586886975 L9.861111111111105 -170.61104180795604 z"/>
<path fill="#bababa" stroke="#bababa" d="M9.4375 -169.98783642509494 L9.4375 -167.16144048600864 L9.4375 -167.54601342796406 L9.4375 -170.37240936705035 z"/>
<path fill="#bababa" stroke="#bababa" d="M10.389150943396224 -169.8340072483128 L10.389150943396224 -167.0076113092265 L9.861111111111109 -166.922808045103 L9.861111111111109 -169.74920398418928 z"/>
<path fill="#bababa" stroke="#bababa" d="M9.86111111111112 -169.74920398418928 L9.861111111111123 -166.92280804510298 L9.43750000000004 -167.16144048600862 L9.437500000000037 -169.9878364250949 z"/>
<path fill="#bababa" stroke="#bababa" d="M10.625 -170.18012289607262 L10.389150943396226 -169.83400724831276 L9.86111111111111 -169.74920398418925 L9.4375 -169.98783642509494 L9.4375 -170.37240936705032 L9.86111111111111 -170.611041807956 L10.389150943396226 -170.5262385438325 z"/>
<path fill="#bababa" stroke="#bababa" d="M10.625 -167.35372695698635 L10.389150943396226 -167.6998426047462 L9.86111111111111 -167.78464586886972 L9.4375 -167.54601342796403 L9.4375 -167.16144048600864 L9.86111111111111 -166.92280804510295 L10.389150943396226 -167.00761130922646 z"/>
<path fill="#bababa" stroke="#bababa" d="M55.624999999999986 -170.18012289607265 L55.62499999999999 -167.35372695698635 L55.38915094339622 -167.0076113092265 L55.38915094339622 -169.8340072483128 z"/>
<path fill="#bababa" stroke="#bababa" d="M55.38915094339623 -170.52623854383253 L55.389150943396224 -167.69984260474624 L55.625 -167.35372695698635 L55.62500000000001 -170.18012289607265 z"/>
<path fill="#bababa" stroke="#bababa" d="M54.86111111111111 -170.61104180795604 L54.86111111111111 -167.78464586886977 L55.38915094339622 -167.69984260474627 L55.38915094339622 -170.52623854383253 z"/>
<path fill="#bababa" stroke="#bababa" d="M54.437499999999986 -170.37240936705035 L54.437499999999986 -167.54601342796406 L54.8611111111111 -167.78464586886975 L54.8611111111111 -170.61104180795604 z"/>
<path fill="#bababa" stroke="#bababa" d="M54.4375 -169.98783642509494 L54.4375 -167.16144048600864 L54.4375 -167.54601342796406 L54.4375 -170.37240936705035 z"/>
<path fill="#bababa" stroke="#bababa" d="M55.38915094339622 -169.8340072483128 L55.38915094339622 -167.0076113092265 L54.86111111111111 -166.92280804510298 L54.86111111111111 -169.74920398418928 z"/>
<path fill="#bababa" stroke="#bababa" d="M54.861111111111114 -169.74920398418928 L54.86111111111112 -166.92280804510298 L54.437500000000036 -167.16144048600862 L54.437500000000036 -169.9878364250949 z"/>
<path fill="#bababa" stroke="#bababa" d="M55.625 -170.18012289607262 L55.389150943396224 -169.83400724831276 L54.86111111111111 -169.74920398418925 L54.4375 -169.98783642509494 L54.4375 -170.37240936705032 L54.86111111111111 -170.611041807956 L55.389150943396224 -170.5262385438325 z"/>
<path fill="#bababa" stroke="#bababa" d="M55.625 -167.35372695698635 L55.389150943396224 -167.6998426047462 L54.86111111111111 -167.78464586886972 L54.4375 -167.54601342796403 L54.4375 -167.16144048600864 L54.86111111111111 -166.92280804510295 L55.389150943396224 -167.00761130922646 z"/>
<path fill="#bababa" stroke="#bababa" d="M10.624999999999979 -226.7892599519102 L10.624999999999993 -223.96286401282393 L10.389150943396208 -223.61674836506404 L10.389150943396201 -226.44314430415028 z"/>
<path fill="#bababa" stroke="#bababa" d="M10.389150943396235 -227.13537559967008 L10.389150943396238 -224.3089796605838 L10.625000000000005 -223.96286401282393 L10.62500000000002 -226.7892599519102 z"/>
<path fill="#bababa" stroke="#bababa" d="M9.861111111111109 -227.22017886379362 L9.861111111111109 -224.39378292470732 L10.389150943396224 -224.30897966058384 L10.389150943396224 -227.1353755996701 z"/>
<path fill="#bababa" stroke="#bababa" d="M9.437499999999984 -226.98154642288793 L9.43749999999998 -224.15515048380163 L9.861111111111097 -224.39378292470732 L9.8611111111111 -227.2201788637936 z"/>
<path fill="#bababa" stroke="#bababa" d="M9.4375 -226.59697348093252 L9.4375 -223.77057754184622 L9.4375 -224.15515048380163 L9.4375 -226.98154642288793 z"/>
<path fill="#bababa" stroke="#bababa" d="M10.389150943396224 -226.44314430415037 L10.389150943396224 -223.61674836506407 L9.861111111111109 -223.53194510094056 L9.861111111111109 -226.35834104002686 z"/>
<path fill="#bababa" stroke="#bababa" d="M9.861111111111125 -226.35834104002686 L9.861111111111128 -223.53194510094056 L9.437500000000046 -223.7705775418462 L9.437500000000044 -226.5969734809325 z"/>
<path fill="#bababa" stroke="#bababa" d="M10.625 -226.7892599519102 L10.389150943396226 -226.44314430415034 L9.86111111111111 -226.35834104002683 L9.4375 -226.59697348093246 L9.4375 -226.9815464228879 L9.86111111111111 -227.2201788637936 L10.389150943396226 -227.13537559967008 z"/>
<path fill="#bababa" stroke="#bababa" d="M10.625 -223.9628640128239 L10.389150943396226 -224.3089796605838 L9.86111111111111 -224.3937829247073 L9.4375 -224.1551504838016 L9.4375 -223.77057754184622 L9.86111111111111 -223.53194510094053 L10.389150943396226 -223.61674836506404 z"/>
<path fill="#bababa" stroke="#bababa" d="M55.62499999999998 -226.7892599519102 L55.62499999999999 -223.96286401282393 L55.3891509433962 -223.61674836506404 L55.389150943396196 -226.44314430415028 z"/>
<path fill="#bababa" stroke="#bababa" d="M55.38915094339623 -227.13537559967008 L55.38915094339624 -224.3089796605838 L55.625 -223.96286401282393 L55.625000000000014 -226.7892599519102 z"/>
<path fill="#bababa" stroke="#bababa" d="M54.86111111111111 -227.2201788637936 L54.86111111111111 -224.39378292470732 L55.38915094339622 -224.30897966058382 L55.38915094339622 -227.13537559967008 z"/>
<path fill="#bababa" stroke="#bababa" d="M54.43749999999998 -226.98154642288793 L54.43749999999998 -224.15515048380163 L54.86111111111109 -224.39378292470732 L54.8611111111111 -227.2201788637936 z"/>
<path fill="#bababa" stroke="#bababa" d="M54.4375 -226.59697348093252 L54.4375 -223.77057754184622 L54.4375 -224.15515048380163 L54.4375 -226.98154642288793 z"/>
<path fill="#bababa" stroke="#bababa" d="M55.38915094339622 -226.44314430415034 L55.38915094339622 -223.61674836506407 L54.86111111111111 -223.53194510094056 L54.86111111111111 -226.35834104002686 z"/>
<path fill="#bababa" stroke="#bababa" d="M54.86111111111112 -226.35834104002686 L54.86111111111113 -223.53194510094056 L54.43750000000004 -223.7705775418462 L54.43750000000004 -226.5969734809325 z"/>
<path fill="#bababa" stroke="#bababa" d="M55.625 -226.7892599519102 L55.389150943396224 -226.44314430415034 L54.86111111111111 -226.35834104002683 L54.4375 -226.59697348093246 L54.4375 -226.9815464228879 L54.86111111111111 -227.2201788637936 L55.389150943396224 -227.13537559967008 z"/>
<path fill="#bababa" stroke="#bababa" d="M55.625 -223.9628640128239 L55.389150943396224 -224.3089796605838 L54.86111111111111 -224.3937829247073 L54.4375 -224.1551504838016 L54.4375 -223.77057754184622 L54.86111111111111 -223.53194510094053 L55.389150943396224 -223.61674836506404 z"/>
<path fill="none" stroke="#000000" d="M 9.395973154362416 50.09355757465068 L -4.697986577181208 53.72139799982017 M 9.395973154362416 50.09355757465068 L -4.697986577181208 46.64525586784048 M 9.395973154362416 43.017415442670995 L -4.697986577181208 46.64525586784048 M 4.697986577181208 38.16143089984013 L 4.026845637583891 39.34506265322625 L 2.6845637583892614 40.701448712572834 L 0.6711409395973149 41.72515035416702 L -0.6711409395973158 42.070658966087926 L -2.684563758389262 42.08348316025644 L -4.026845637583893 41.41811432475167 L -4.697986577181208 40.57999118328645 L -4.697986577181208 39.063675012147954 L -4.026845637583893 37.88004325876182 L -2.684563758389262 36.52365719941525 L -0.6711409395973158 35.49995555782107 L 0.6711409395973149 35.15444694590016 L 2.6845637583892614 35.14162275173164 L 4.026845637583891 35.8069915872364 L 4.697986577181208 36.64511472870163 L 4.697986577181208 38.16143089984013 M 6.040268456375838 15.071179720841638 L 7.382550335570468 15.231109832633571 L 8.7248322147651 15.89647866813834 L 9.395973154362416 16.734601809603554 L 9.395973154362416 18.756356704454895 L 8.7248322147651 19.939988457841025 L 7.382550335570468 21.296374517187598 L 6.040268456375838 22.147321852821335 L 4.026845637583891 23.171023494415525 L 0.6711409395973149 24.034795024217782 L -1.3422818791946312 24.047619218386302 L -2.684563758389262 23.887689106594376 L -4.026845637583893 23.222320271089608 L -4.697986577181208 22.384197129624383 L -4.697986577181208 20.36244223477304 L -4.026845637583893 19.178810481386922 L -2.684563758389262 17.82242442204035 L -1.3422818791946312 16.97147708640661 L 0.6711409395973149 16.453214168525253 M 0.6711409395973149 18.980407787089426 L 0.6711409395973149 16.453214168525253 M 0.6711409395973149 13.420581826248242 L 0.6711409395973149 7.355317141694224 L 2.0134228187919456 7.00980852977332 L 3.3557046979865763 7.169738641565248 L 4.026845637583891 7.502423059317627 L 4.697986577181208 8.340546200782848 L 4.697986577181208 9.856862371921356 L 4.026845637583891 11.040494125307475 L 2.6845637583892614 12.39688018465405 L 0.6711409395973149 13.420581826248242 L -0.6711409395973158 13.766090438169144 L -2.684563758389262 13.778914632337665 L -4.026845637583893 13.113545796832897 L -4.697986577181208 12.27542265536768 L -4.697986577181208 10.759106484229171 L -4.026845637583893 9.575474730843048 L -2.684563758389262 8.219088671496483 M 4.697986577181208 0.758965345090322 L 4.026845637583891 1.942597098476436 L 2.6845637583892614 3.2989831578230215 L 0.6711409395973149 4.322684799417209 L -0.6711409395973158 4.668193411338112 L -2.684563758389262 4.681017605506636 L -4.026845637583893 4.0156487700018575 L -4.697986577181208 3.177525628536647 L -4.697986577181208 1.6612094573981442 L -4.026845637583893 0.47757770401200994 L -2.684563758389262 -0.8788083553345558 L -0.6711409395973158 -1.9025099969287518 L 0.6711409395973149 -2.2480186088496557 L 2.6845637583892614 -2.26084280301817 L 4.026845637583891 -1.5954739675134113 L 4.697986577181208 -0.7573508260481812 L 4.697986577181208 0.758965345090322 M 4.697986577181208 -6.822615510602214 L -4.697986577181208 -4.404055227155888 M 2.0134228187919456 -6.131598286760406 L 4.026845637583891 -8.166177375780265 L 4.697986577181208 -9.34980912916638 L 4.697986577181208 -10.866125300304892 L 4.026845637583891 -11.704248441770112 L 2.0134228187919456 -11.691424247601589 L -4.697986577181208 -9.963881187997071 M 2.0134228187919456 -11.691424247601589 L 4.026845637583891 -13.726003336621456 L 4.697986577181208 -14.909635090007573 L 4.697986577181208 -16.425951261146075 L 4.026845637583891 -17.264074402611303 L 2.0134228187919456 -17.25125020844278 L -4.697986577181208 -15.523707148838263 M 0.6711409395973149 -20.443812662511725 L 0.6711409395973149 -26.509077347065748 L 2.0134228187919456 -26.85458595898665 L 3.3557046979865763 -26.694655847194714 L 4.026845637583891 -26.36197142944233 L 4.697986577181208 -25.523848287977113 L 4.697986577181208 -24.00753211683862 L 4.026845637583891 -22.823900363452484 L 2.6845637583892614 -21.46751430410591 L 0.6711409395973149 -20.443812662511725 L -0.6711409395973158 -20.09830405059082 L -2.684563758389262 -20.085479856422296 L -4.026845637583893 -20.750848691927064 L -4.697986577181208 -21.588971833392296 L -4.697986577181208 -23.105288004530788 L -4.026845637583893 -24.28891975791691 L -2.684563758389262 -25.645305817263488 M 9.395973154362416 -32.79839311425431 L -2.0134228187919465 -29.861569912926626 L -4.026845637583893 -29.848745718758103 L -4.697986577181208 -30.68686886022332 L -4.697986577181208 -31.697746307648984 M 4.697986577181208 -30.072796801392627 L 4.697986577181208 -33.61086786738248 M 4.697986577181208 -37.14893893337233 L -4.697986577181208 -34.730378649926 M 0.6711409395973149 -36.11241309760962 L 2.6845637583892614 -37.1361147392038 L 4.026845637583891 -38.49250079855039 L 4.697986577181208 -39.676132551936504 L 4.697986577181208 -41.192448723075 M 4.697986577181208 -42.70876489421353 L -4.697986577181208 -43.32283695304421 M 4.697986577181208 -48.77402957876754 L -4.697986577181208 -43.32283695304421 L -7.382550335570469 -41.62094228177672 L -8.724832214765101 -40.26455622243016 L -9.395973154362416 -39.08092446904404 L -9.395973154362416 -38.5754857453312"/>
<path fill="none" stroke="#000000" d="M 9.395973154362416 21.788989046731906 L -4.697986577181208 25.416829471901394 M 9.395973154362416 21.788989046731906 L -4.697986577181208 18.340687339921704 M 9.395973154362416 14.712846914752214 L -4.697986577181208 18.340687339921704 M 4.697986577181208 9.85686237192135 L 4.026845637583891 11.040494125307475 L 2.6845637583892614 12.39688018465405 L 0.6711409395973149 13.420581826248242 L -0.6711409395973158 13.766090438169144 L -2.684563758389262 13.778914632337665 L -4.026845637583893 13.113545796832897 L -4.697986577181208 12.275422655367676 L -4.697986577181208 10.759106484229171 L -4.026845637583893 9.575474730843048 L -2.684563758389262 8.219088671496472 L -0.6711409395973158 7.195387029902287 L 0.6711409395973149 6.849878417981383 L 2.6845637583892614 6.837054223812858 L 4.026845637583891 7.502423059317627 L 4.697986577181208 8.340546200782848 L 4.697986577181208 9.85686237192135 M 6.040268456375838 -13.23338880707714 L 7.382550335570468 -13.073458695285208 L 8.7248322147651 -12.40808985978044 L 9.395973154362416 -11.569966718315225 L 9.395973154362416 -9.548211823463886 L 8.7248322147651 -8.364580070077757 L 7.382550335570468 -7.008194010731179 L 6.040268456375838 -6.157246675097445 L 4.026845637583891 -5.133545033503253 L 0.6711409395973149 -4.2697735037009945 L -1.3422818791946312 -4.256949309532475 L -2.684563758389262 -4.416879421324403 L -4.026845637583893 -5.082248256829171 L -4.697986577181208 -5.920371398294398 L -4.697986577181208 -7.942126293145737 L -4.026845637583893 -9.125758046531855 L -2.684563758389262 -10.482144105878431 L -1.3422818791946312 -11.33309144151217 L 0.6711409395973149 -11.851354359393525 M 0.6711409395973149 -9.32416074082935 L 0.6711409395973149 -11.851354359393525 M 0.6711409395973149 -14.883986701670537 L 0.6711409395973149 -20.949251386224557 L 2.0134228187919456 -21.29475999814546 L 3.3557046979865763 -21.134829886353533 L 4.026845637583891 -20.80214546860115 L 4.697986577181208 -19.964022327135932 L 4.697986577181208 -18.447706155997423 L 4.026845637583891 -17.264074402611303 L 2.6845637583892614 -15.90768834326473 L 0.6711409395973149 -14.883986701670537 L -0.6711409395973158 -14.538478089749631 L -2.684563758389262 -14.525653895581115 L -4.026845637583893 -15.191022731085884 L -4.697986577181208 -16.029145872551098 L -4.697986577181208 -17.545462043689607 L -4.026845637583893 -18.72909379707573 L -2.684563758389262 -20.085479856422296 M 4.697986577181208 -27.545603182828458 L 4.026845637583891 -26.36197142944234 L 2.6845637583892614 -25.00558537009576 L 0.6711409395973149 -23.981883728501572 L -0.6711409395973158 -23.636375116580666 L -2.684563758389262 -23.623550922412143 L -4.026845637583893 -24.288919757916922 L -4.697986577181208 -25.127042899382133 L -4.697986577181208 -26.643359070520635 L -4.026845637583893 -27.82699082390677 L -2.684563758389262 -29.183376883253334 L -0.6711409395973158 -30.20707852484753 L 0.6711409395973149 -30.552587136768437 L 2.6845637583892614 -30.565411330936946 L 4.026845637583891 -29.90004249543219 L 4.697986577181208 -29.06191935396696 L 4.697986577181208 -27.545603182828458 M 4.697986577181208 -35.127184038520994 L -4.697986577181208 -32.70862375507467 M 2.0134228187919456 -34.43616681467919 L 4.026845637583891 -36.47074590369904 L 4.697986577181208 -37.654377657085156 L 4.697986577181208 -39.17069382822367 L 4.026845637583891 -40.008816969688894 L 2.0134228187919456 -39.99599277552037 L -4.697986577181208 -38.26844971591585 M 2.0134228187919456 -39.99599277552037 L 4.026845637583891 -42.030571864540235 L 4.697986577181208 -43.21420361792635 L 4.697986577181208 -44.73051978906485 L 4.026845637583891 -45.56864293053008 L 2.0134228187919456 -45.55581873636156 L -4.697986577181208 -43.82827567675704 M 0.6711409395973149 -48.7483811904305 L 0.6711409395973149 -54.81364587498452 L 2.0134228187919456 -55.15915448690543 L 3.3557046979865763 -54.99922437511349 L 4.026845637583891 -54.66653995736111 L 4.697986577181208 -53.82841681589589 L 4.697986577181208 -52.3121006447574 L 4.026845637583891 -51.12846889137126 L 2.6845637583892614 -49.77208283202469 L 0.6711409395973149 -48.7483811904305 L -0.6711409395973158 -48.402872578509594 L -2.684563758389262 -48.39004838434108 L -4.026845637583893 -49.05541721984584 L -4.697986577181208 -49.893540361311075 L -4.697986577181208 -51.40985653244957 L -4.026845637583893 -52.59348828583569 L -2.684563758389262 -53.949874345182266 M 9.395973154362416 -61.102961642173085 L -2.0134228187919465 -58.1661384408454 L -4.026845637583893 -58.153314246676885 L -4.697986577181208 -58.9914373881421 L -4.697986577181208 -60.002314835567766 M 4.697986577181208 -58.37736532931141 L 4.697986577181208 -61.915436395301256 M 4.697986577181208 -65.4535074612911 L -4.697986577181208 -63.034947177844785 M 0.6711409395973149 -64.4169816255284 L 2.6845637583892614 -65.44068326712258 L 4.026845637583891 -66.79706932646917 L 4.697986577181208 -67.98070107985528 L 4.697986577181208 -69.49701725099378 M 4.697986577181208 -71.0133334221323 L -4.697986577181208 -71.62740548096299 M 4.697986577181208 -77.07859810668631 L -4.697986577181208 -71.62740548096299 L -7.382550335570469 -69.9255108096955 L -8.724832214765101 -68.56912475034893 L -9.395973154362416 -67.38549299696282 L -9.395973154362416 -66.88005427324998"/>
<path fill="none" stroke="#000000" d="M 9.395973154362416 -6.515579481186874 L -4.697986577181208 -2.8877390560173857 M 9.395973154362416 -6.515579481186874 L -4.697986577181208 -9.963881187997076 M 9.395973154362416 -13.591721613166563 L -4.697986577181208 -9.963881187997076 M 4.697986577181208 -18.44770615599743 L 4.026845637583891 -17.264074402611303 L 2.6845637583892614 -15.90768834326473 L 0.6711409395973149 -14.883986701670537 L -0.6711409395973158 -14.538478089749631 L -2.684563758389262 -14.525653895581115 L -4.026845637583893 -15.191022731085884 L -4.697986577181208 -16.029145872551105 L -4.697986577181208 -17.545462043689607 L -4.026845637583893 -18.72909379707573 L -2.684563758389262 -20.085479856422307 L -0.6711409395973158 -21.10918149801649 L 0.6711409395973149 -21.454690109937395 L 2.6845637583892614 -21.467514304105922 L 4.026845637583891 -20.80214546860115 L 4.697986577181208 -19.964022327135932 L 4.697986577181208 -18.44770615599743 M 6.040268456375838 -41.53795733499592 L 7.382550335570468 -41.378027223203986 L 8.7248322147651 -40.712658387699214 L 9.395973154362416 -39.874535246234004 L 9.395973154362416 -37.85278035138266 L 8.7248322147651 -36.66914859799653 L 7.382550335570468 -35.312762538649956 L 6.040268456375838 -34.46181520301623 L 4.026845637583891 -33.438113561422036 L 0.6711409395973149 -32.57434203161978 L -1.3422818791946312 -32.561517837451255 L -2.684563758389262 -32.721447949243185 L -4.026845637583893 -33.38681678474795 L -4.697986577181208 -34.224939926213175 L -4.697986577181208 -36.246694821064516 L -4.026845637583893 -37.43032657445063 L -2.684563758389262 -38.786712633797215 L -1.3422818791946312 -39.63765996943095 L 0.6711409395973149 -40.15592288731231 M 0.6711409395973149 -37.62872926874813 L 0.6711409395973149 -40.15592288731231 M 0.6711409395973149 -43.18855522958931 L 0.6711409395973149 -49.253819914143335 L 2.0134228187919456 -49.59932852606424 L 3.3557046979865763 -49.439398414272304 L 4.026845637583891 -49.10671399651993 L 4.697986577181208 -48.26859085505471 L 4.697986577181208 -46.752274683916205 L 4.026845637583891 -45.56864293053008 L 2.6845637583892614 -44.212256871183506 L 0.6711409395973149 -43.18855522958931 L -0.6711409395973158 -42.843046617668406 L -2.684563758389262 -42.8302224234999 L -4.026845637583893 -43.49559125900466 L -4.697986577181208 -44.33371440046988 L -4.697986577181208 -45.850030571608386 L -4.026845637583893 -47.03366232499451 L -2.684563758389262 -48.39004838434108 M 4.697986577181208 -55.85017171074723 L 4.026845637583891 -54.666539957361124 L 2.6845637583892614 -53.31015389801453 L 0.6711409395973149 -52.286452256420354 L -0.6711409395973158 -51.94094364449945 L -2.684563758389262 -51.928119450330925 L -4.026845637583893 -52.593488285835704 L -4.697986577181208 -53.43161142730091 L -4.697986577181208 -54.94792759843941 L -4.026845637583893 -56.13155935182555 L -2.684563758389262 -57.48794541117211 L -0.6711409395973158 -58.51164705276631 L 0.6711409395973149 -58.85715566468721 L 2.6845637583892614 -58.86997985885572 L 4.026845637583891 -58.20461102335097 L 4.697986577181208 -57.36648788188574 L 4.697986577181208 -55.85017171074723 M 4.697986577181208 -63.43175256643977 L -4.697986577181208 -61.01319228299345 M 2.0134228187919456 -62.74073534259797 L 4.026845637583891 -64.77531443161783 L 4.697986577181208 -65.95894618500392 L 4.697986577181208 -67.47526235614244 L 4.026845637583891 -68.31338549760768 L 2.0134228187919456 -68.30056130343915 L -4.697986577181208 -66.57301824383462 M 2.0134228187919456 -68.30056130343915 L 4.026845637583891 -70.33514039245902 L 4.697986577181208 -71.51877214584512 L 4.697986577181208 -73.03508831698362 L 4.026845637583891 -73.87321145844886 L 2.0134228187919456 -73.86038726428033 L -4.697986577181208 -72.1328442046758 M 0.6711409395973149 -77.05294971834928 L 0.6711409395973149 -83.1182144029033 L 2.0134228187919456 -83.46372301482421 L 3.3557046979865763 -83.30379290303227 L 4.026845637583891 -82.9711084852799 L 4.697986577181208 -82.13298534381467 L 4.697986577181208 -80.61666917267617 L 4.026845637583891 -79.43303741929005 L 2.6845637583892614 -78.07665135994347 L 0.6711409395973149 -77.05294971834928 L -0.6711409395973158 -76.70744110642838 L -2.684563758389262 -76.69461691225985 L -4.026845637583893 -77.35998574776461 L -4.697986577181208 -78.19810888922986 L -4.697986577181208 -79.71442506036836 L -4.026845637583893 -80.89805681375447 L -2.684563758389262 -82.25444287310104 M 9.395973154362416 -89.40753017009186 L -2.0134228187919465 -86.47070696876418 L -4.026845637583893 -86.45788277459566 L -4.697986577181208 -87.29600591606088 L -4.697986577181208 -88.30688336348656 M 4.697986577181208 -86.68193385723018 L 4.697986577181208 -90.22000492322003 M 4.697986577181208 -93.75807598920987 L -4.697986577181208 -91.33951570576356 M 0.6711409395973149 -92.72155015344717 L 2.6845637583892614 -93.74525179504137 L 4.026845637583891 -95.10163785438796 L 4.697986577181208 -96.28526960777404 L 4.697986577181208 -97.80158577891257 M 4.697986577181208 -99.3179019500511 L -4.697986577181208 -99.93197400888177 M 4.697986577181208 -105.3831666346051 L -4.697986577181208 -99.93197400888177 L -7.382550335570469 -98.23007933761428 L -8.724832214765101 -96.87369327826771 L -9.395973154362416 -95.69006152488161 L -9.395973154362416 -95.18462280116877"/>
<path fill="none" stroke="#000000" d="M 9.395973154362416 -34.82014800910565 L -4.697986577181208 -31.192307583936163 M 9.395973154362416 -34.82014800910565 L -4.697986577181208 -38.26844971591586 M 9.395973154362416 -41.896290141085345 L -4.697986577181208 -38.26844971591586 M 4.697986577181208 -46.752274683916205 L 4.026845637583891 -45.56864293053008 L 2.6845637583892614 -44.212256871183506 L 0.6711409395973149 -43.18855522958931 L -0.6711409395973158 -42.843046617668406 L -2.684563758389262 -42.8302224234999 L -4.026845637583893 -43.49559125900466 L -4.697986577181208 -44.33371440046988 L -4.697986577181208 -45.850030571608386 L -4.026845637583893 -47.03366232499451 L -2.684563758389262 -48.390048384341085 L -0.6711409395973158 -49.41375002593527 L 0.6711409395973149 -49.75925863785618 L 2.6845637583892614 -49.772082832024694 L 4.026845637583891 -49.10671399651993 L 4.697986577181208 -48.26859085505471 L 4.697986577181208 -46.752274683916205 M 6.040268456375838 -69.8425258629147 L 7.382550335570468 -69.68259575112276 L 8.7248322147651 -69.017226915618 L 9.395973154362416 -68.17910377415278 L 9.395973154362416 -66.15734887930145 L 8.7248322147651 -64.97371712591531 L 7.382550335570468 -63.61733106656874 L 6.040268456375838 -62.766383730935004 L 4.026845637583891 -61.7426820893408 L 0.6711409395973149 -60.87891055953855 L -1.3422818791946312 -60.86608636537003 L -2.684563758389262 -61.02601647716197 L -4.026845637583893 -61.691385312666725 L -4.697986577181208 -62.52950845413197 L -4.697986577181208 -64.55126334898328 L -4.026845637583893 -65.7348951023694 L -2.684563758389262 -67.09128116171598 L -1.3422818791946312 -67.94222849734973 L 0.6711409395973149 -68.46049141523109 M 0.6711409395973149 -65.9332977966669 L 0.6711409395973149 -68.46049141523109 M 0.6711409395973149 -71.49312375750809 L 0.6711409395973149 -77.55838844206211 L 2.0134228187919456 -77.90389705398302 L 3.3557046979865763 -77.7439669421911 L 4.026845637583891 -77.41128252443872 L 4.697986577181208 -76.57315938297349 L 4.697986577181208 -75.05684321183497 L 4.026845637583891 -73.87321145844886 L 2.6845637583892614 -72.51682539910229 L 0.6711409395973149 -71.49312375750809 L -0.6711409395973158 -71.14761514558718 L -2.684563758389262 -71.13479095141867 L -4.026845637583893 -71.80015978692343 L -4.697986577181208 -72.63828292838865 L -4.697986577181208 -74.15459909952718 L -4.026845637583893 -75.33823085291328 L -2.684563758389262 -76.69461691225985 M 4.697986577181208 -84.15474023866601 L 4.026845637583891 -82.97110848527991 L 2.6845637583892614 -81.61472242593332 L 0.6711409395973149 -80.59102078433914 L -0.6711409395973158 -80.24551217241823 L -2.684563758389262 -80.2326879782497 L -4.026845637583893 -80.89805681375448 L -4.697986577181208 -81.7361799552197 L -4.697986577181208 -83.2524961263582 L -4.026845637583893 -84.43612787974432 L -2.684563758389262 -85.79251393909088 L -0.6711409395973158 -86.81621558068508 L 0.6711409395973149 -87.16172419260599 L 2.6845637583892614 -87.1745483867745 L 4.026845637583891 -86.50917955126975 L 4.697986577181208 -85.6710564098045 L 4.697986577181208 -84.15474023866601 M 4.697986577181208 -91.73632109435856 L -4.697986577181208 -89.31776081091225 M 2.0134228187919456 -91.04530387051676 L 4.026845637583891 -93.0798829595366 L 4.697986577181208 -94.26351471292271 L 4.697986577181208 -95.77983088406123 L 4.026845637583891 -96.61795402552644 L 2.0134228187919456 -96.60512983135793 L -4.697986577181208 -94.8775867717534 M 2.0134228187919456 -96.60512983135793 L 4.026845637583891 -98.63970892037781 L 4.697986577181208 -99.8233406737639 L 4.697986577181208 -101.33965684490241 L 4.026845637583891 -102.17777998636765 L 2.0134228187919456 -102.16495579219912 L -4.697986577181208 -100.43741273259461 M 0.6711409395973149 -105.35751824626806 L 0.6711409395973149 -111.4227829308221 L 2.0134228187919456 -111.768291542743 L 3.3557046979865763 -111.60836143095106 L 4.026845637583891 -111.27567701319867 L 4.697986577181208 -110.43755387173343 L 4.697986577181208 -108.92123770059494 L 4.026845637583891 -107.73760594720883 L 2.6845637583892614 -106.38121988786224 L 0.6711409395973149 -105.35751824626806 L -0.6711409395973158 -105.01200963434715 L -2.684563758389262 -104.99918544017862 L -4.026845637583893 -105.6645542756834 L -4.697986577181208 -106.50267741714863 L -4.697986577181208 -108.0189935882871 L -4.026845637583893 -109.20262534167324 L -2.684563758389262 -110.55901140101983 M 9.395973154362416 -117.71209869801065 L -2.0134228187919465 -114.77527549668297 L -4.026845637583893 -114.76245130251444 L -4.697986577181208 -115.60057444397965 L -4.697986577181208 -116.61145189140534 M 4.697986577181208 -114.98650238514897 L 4.697986577181208 -118.5245734511388 M 4.697986577181208 -122.06264451712866 L -4.697986577181208 -119.64408423368234 M 0.6711409395973149 -121.02611868136596 L 2.6845637583892614 -122.04982032296016 L 4.026845637583891 -123.40620638230673 L 4.697986577181208 -124.58983813569282 L 4.697986577181208 -126.10615430683136 M 4.697986577181208 -127.62247047796986 L -4.697986577181208 -128.23654253680056 M 4.697986577181208 -133.68773516252386 L -4.697986577181208 -128.23654253680056 L -7.382550335570469 -126.53464786553307 L -8.724832214765101 -125.17826180618648 L -9.395973154362416 -123.99463005280037 L -9.395973154362416 -123.48919132908753"/>
<path fill="none" stroke="#000000" d="M 9.395973154362416 -63.12471653702444 L -4.697986577181208 -59.496876111854945 M 9.395973154362416 -63.12471653702444 L -4.697986577181208 -66.57301824383462 M 9.395973154362416 -70.20085866900412 L -4.697986577181208 -66.57301824383462 M 4.697986577181208 -75.05684321183497 L 4.026845637583891 -73.87321145844886 L 2.6845637583892614 -72.51682539910229 L 0.6711409395973149 -71.49312375750809 L -0.6711409395973158 -71.14761514558718 L -2.684563758389262 -71.13479095141867 L -4.026845637583893 -71.80015978692343 L -4.697986577181208 -72.63828292838865 L -4.697986577181208 -74.15459909952718 L -4.026845637583893 -75.33823085291328 L -2.684563758389262 -76.69461691225986 L -0.6711409395973158 -77.71831855385405 L 0.6711409395973149 -78.06382716577495 L 2.6845637583892614 -78.07665135994348 L 4.026845637583891 -77.41128252443872 L 4.697986577181208 -76.57315938297349 L 4.697986577181208 -75.05684321183497 M 6.040268456375838 -98.14709439083347 L 7.382550335570468 -97.98716427904154 L 8.7248322147651 -97.32179544353679 L 9.395973154362416 -96.48367230207157 L 9.395973154362416 -94.46191740722023 L 8.7248322147651 -93.27828565383409 L 7.382550335570468 -91.92189959448753 L 6.040268456375838 -91.07095225885378 L 4.026845637583891 -90.04725061725959 L 0.6711409395973149 -89.18347908745733 L -1.3422818791946312 -89.17065489328881 L -2.684563758389262 -89.33058500508075 L -4.026845637583893 -89.9959538405855 L -4.697986577181208 -90.83407698205075 L -4.697986577181208 -92.85583187690209 L -4.026845637583893 -94.0394636302882 L -2.684563758389262 -95.39584968963476 L -1.3422818791946312 -96.2467970252685 L 0.6711409395973149 -96.76505994314986 M 0.6711409395973149 -94.2378663245857 L 0.6711409395973149 -96.76505994314986 M 0.6711409395973149 -99.79769228542686 L 0.6711409395973149 -105.86295696998089 L 2.0134228187919456 -106.20846558190179 L 3.3557046979865763 -106.04853547010987 L 4.026845637583891 -105.71585105235751 L 4.697986577181208 -104.87772791089226 L 4.697986577181208 -103.36141173975376 L 4.026845637583891 -102.17777998636765 L 2.6845637583892614 -100.82139392702106 L 0.6711409395973149 -99.79769228542686 L -0.6711409395973158 -99.45218367350596 L -2.684563758389262 -99.43935947933744 L -4.026845637583893 -100.10472831484222 L -4.697986577181208 -100.94285145630745 L -4.697986577181208 -102.45916762744595 L -4.026845637583893 -103.64279938083207 L -2.684563758389262 -104.99918544017862 M 4.697986577181208 -112.4593087665848 L 4.026845637583891 -111.27567701319867 L 2.6845637583892614 -109.91929095385208 L 0.6711409395973149 -108.89558931225791 L -0.6711409395973158 -108.550080700337 L -2.684563758389262 -108.53725650616846 L -4.026845637583893 -109.20262534167324 L -4.697986577181208 -110.04074848313847 L -4.697986577181208 -111.55706465427697 L -4.026845637583893 -112.7406964076631 L -2.684563758389262 -114.09708246700967 L -0.6711409395973158 -115.12078410860387 L 0.6711409395973149 -115.46629272052478 L 2.6845637583892614 -115.4791169146933 L 4.026845637583891 -114.81374807918853 L 4.697986577181208 -113.97562493772328 L 4.697986577181208 -112.4593087665848 M 4.697986577181208 -120.04088962227733 L -4.697986577181208 -117.62232933883102 M 2.0134228187919456 -119.34987239843554 L 4.026845637583891 -121.38445148745538 L 4.697986577181208 -122.5680832408415 L 4.697986577181208 -124.08439941198 L 4.026845637583891 -124.92252255344522 L 2.0134228187919456 -124.9096983592767 L -4.697986577181208 -123.18215529967217 M 2.0134228187919456 -124.9096983592767 L 4.026845637583891 -126.94427744829657 L 4.697986577181208 -128.12790920168266 L 4.697986577181208 -129.64422537282118 L 4.026845637583891 -130.48234851428643 L 2.0134228187919456 -130.46952432011787 L -4.697986577181208 -128.74198126051337 M 0.6711409395973149 -133.6620867741868 L 0.6711409395973149 -139.72735145874086 L 2.0134228187919456 -140.07286007066176 L 3.3557046979865763 -139.91292995886982 L 4.026845637583891 -139.58024554111745 L 4.697986577181208 -138.7421223996522 L 4.697986577181208 -137.2258062285137 L 4.026845637583891 -136.04217447512758 L 2.6845637583892614 -134.685788415781 L 0.6711409395973149 -133.6620867741868 L -0.6711409395973158 -133.31657816226593 L -2.684563758389262 -133.30375396809737 L -4.026845637583893 -133.96912280360215 L -4.697986577181208 -134.8072459450674 L -4.697986577181208 -136.3235621162059 L -4.026845637583893 -137.50719386959202 L -2.684563758389262 -138.8635799289386 M 9.395973154362416 -146.0166672259294 L -2.0134228187919465 -143.07984402460175 L -4.026845637583893 -143.0670198304332 L -4.697986577181208 -143.9051429718984 L -4.697986577181208 -144.9160204193241 M 4.697986577181208 -143.29107091306773 L 4.697986577181208 -146.82914197905757 M 4.697986577181208 -150.3672130450474 L -4.697986577181208 -147.9486527616011 M 0.6711409395973149 -149.3306872092847 L 2.6845637583892614 -150.3543888508789 L 4.026845637583891 -151.7107749102255 L 4.697986577181208 -152.8944066636116 L 4.697986577181208 -154.41072283475012 M 4.697986577181208 -155.92703900588864 L -4.697986577181208 -156.54111106471933 M 4.697986577181208 -161.99230369044264 L -4.697986577181208 -156.54111106471933 L -7.382550335570469 -154.83921639345184 L -8.724832214765101 -153.48283033410524 L -9.395973154362416 -152.29919858071915 L -9.395973154362416 -151.79375985700634"/>
<path fill="none" stroke="#000000" d="M 9.395973154362416 -91.4292850649432 L -4.697986577181208 -87.80144463977372 M 9.395973154362416 -91.4292850649432 L -4.697986577181208 -94.8775867717534 M 9.395973154362416 -98.5054271969229 L -4.697986577181208 -94.8775867717534 M 4.697986577181208 -103.36141173975376 L 4.026845637583891 -102.17777998636765 L 2.6845637583892614 -100.82139392702106 L 0.6711409395973149 -99.79769228542686 L -0.6711409395973158 -99.45218367350596 L -2.684563758389262 -99.43935947933744 L -4.026845637583893 -100.10472831484222 L -4.697986577181208 -100.94285145630745 L -4.697986577181208 -102.45916762744595 L -4.026845637583893 -103.64279938083207 L -2.684563758389262 -104.99918544017864 L -0.6711409395973158 -106.02288708177282 L 0.6711409395973149 -106.36839569369373 L 2.6845637583892614 -106.38121988786226 L 4.026845637583891 -105.71585105235751 L 4.697986577181208 -104.87772791089226 L 4.697986577181208 -103.36141173975376 M 6.040268456375838 -126.45166291875226 L 7.382550335570468 -126.29173280696033 L 8.7248322147651 -125.62636397145558 L 9.395973154362416 -124.78824082999034 L 9.395973154362416 -122.766485935139 L 8.7248322147651 -121.58285418175286 L 7.382550335570468 -120.2264681224063 L 6.040268456375838 -119.37552078677255 L 4.026845637583891 -118.35181914517837 L 0.6711409395973149 -117.4880476153761 L -1.3422818791946312 -117.47522342120759 L -2.684563758389262 -117.63515353299952 L -4.026845637583893 -118.30052236850428 L -4.697986577181208 -119.13864550996952 L -4.697986577181208 -121.16040040482086 L -4.026845637583893 -122.34403215820697 L -2.684563758389262 -123.70041821755353 L -1.3422818791946312 -124.55136555318728 L 0.6711409395973149 -125.06962847106864 M 0.6711409395973149 -122.54243485250447 L 0.6711409395973149 -125.06962847106864 M 0.6711409395973149 -128.10226081334562 L 0.6711409395973149 -134.16752549789962 L 2.0134228187919456 -134.51303410982052 L 3.3557046979865763 -134.35310399802862 L 4.026845637583891 -134.02041958027627 L 4.697986577181208 -133.18229643881102 L 4.697986577181208 -131.66598026767252 L 4.026845637583891 -130.48234851428643 L 2.6845637583892614 -129.12596245493984 L 0.6711409395973149 -128.10226081334562 L -0.6711409395973158 -127.75675220142476 L -2.684563758389262 -127.74392800725623 L -4.026845637583893 -128.409296842761 L -4.697986577181208 -129.2474199842262 L -4.697986577181208 -130.7637361553647 L -4.026845637583893 -131.94736790875083 L -2.684563758389262 -133.30375396809737 M 4.697986577181208 -140.76387729450357 L 4.026845637583891 -139.58024554111745 L 2.6845637583892614 -138.22385948177086 L 0.6711409395973149 -137.20015784017667 L -0.6711409395973158 -136.8546492282558 L -2.684563758389262 -136.84182503408724 L -4.026845637583893 -137.50719386959202 L -4.697986577181208 -138.34531701105726 L -4.697986577181208 -139.86163318219573 L -4.026845637583893 -141.04526493558186 L -2.684563758389262 -142.40165099492845 L -0.6711409395973158 -143.42535263652266 L 0.6711409395973149 -143.77086124844354 L 2.6845637583892614 -143.78368544261207 L 4.026845637583891 -143.1183166071073 L 4.697986577181208 -142.28019346564204 L 4.697986577181208 -140.76387729450357 M 4.697986577181208 -148.3454581501961 L -4.697986577181208 -145.92689786674978 M 2.0134228187919456 -147.65444092635428 L 4.026845637583891 -149.68902001537415 L 4.697986577181208 -150.87265176876025 L 4.697986577181208 -152.38896793989878 L 4.026845637583891 -153.227091081364 L 2.0134228187919456 -153.21426688719546 L -4.697986577181208 -151.48672382759096 M 2.0134228187919456 -153.21426688719546 L 4.026845637583891 -155.24884597621536 L 4.697986577181208 -156.43247772960143 L 4.697986577181208 -157.94879390073996 L 4.026845637583891 -158.7869170422052 L 2.0134228187919456 -158.77409284803664 L -4.697986577181208 -157.04654978843215 M 0.6711409395973149 -161.96665530210558 L 0.6711409395973149 -168.03191998665963 L 2.0134228187919456 -168.37742859858054 L 3.3557046979865763 -168.2174984867886 L 4.026845637583891 -167.88481406903622 L 4.697986577181208 -167.04669092757098 L 4.697986577181208 -165.53037475643248 L 4.026845637583891 -164.34674300304638 L 2.6845637583892614 -162.9903569436998 L 0.6711409395973149 -161.96665530210558 L -0.6711409395973158 -161.6211466901847 L -2.684563758389262 -161.60832249601617 L -4.026845637583893 -162.27369133152095 L -4.697986577181208 -163.11181447298617 L -4.697986577181208 -164.62813064412467 L -4.026845637583893 -165.8117623975108 L -2.684563758389262 -167.16814845685738 M 9.395973154362416 -174.32123575384819 L -2.0134228187919465 -171.38441255252053 L -4.026845637583893 -171.37158835835197 L -4.697986577181208 -172.2097114998172 L -4.697986577181208 -173.22058894724287 M 4.697986577181208 -171.5956394409865 L 4.697986577181208 -175.13371050697634 M 4.697986577181208 -178.6717815729662 L -4.697986577181208 -176.2532212895199 M 0.6711409395973149 -177.6352557372035 L 2.6845637583892614 -178.6589573787977 L 4.026845637583891 -180.01534343814427 L 4.697986577181208 -181.19897519153037 L 4.697986577181208 -182.7152913626689 M 4.697986577181208 -184.23160753380742 L -4.697986577181208 -184.8456795926381 M 4.697986577181208 -190.29687221836141 L -4.697986577181208 -184.8456795926381 L -7.382550335570469 -183.1437849213706 L -8.724832214765101 -181.78739886202402 L -9.395973154362416 -180.60376710863792 L -9.395973154362416 -180.0983283849251"/>
<path fill="none" stroke="#000000" d="M 9.395973154362416 -119.73385359286198 L -4.697986577181208 -116.1060131676925 M 9.395973154362416 -119.73385359286198 L -4.697986577181208 -123.18215529967217 M 9.395973154362416 -126.80999572484167 L -4.697986577181208 -123.18215529967217 M 4.697986577181208 -131.66598026767252 L 4.026845637583891 -130.48234851428643 L 2.6845637583892614 -129.12596245493984 L 0.6711409395973149 -128.10226081334562 L -0.6711409395973158 -127.75675220142476 L -2.684563758389262 -127.74392800725623 L -4.026845637583893 -128.409296842761 L -4.697986577181208 -129.2474199842262 L -4.697986577181208 -130.7637361553647 L -4.026845637583893 -131.94736790875083 L -2.684563758389262 -133.3037539680974 L -0.6711409395973158 -134.32745560969158 L 0.6711409395973149 -134.67296422161246 L 2.6845637583892614 -134.68578841578102 L 4.026845637583891 -134.02041958027627 L 4.697986577181208 -133.18229643881102 L 4.697986577181208 -131.66598026767252 M 6.040268456375838 -154.75623144667102 L 7.382550335570468 -154.5963013348791 L 8.7248322147651 -153.93093249937434 L 9.395973154362416 -153.0928093579091 L 9.395973154362416 -151.07105446305778 L 8.7248322147651 -149.88742270967163 L 7.382550335570468 -148.53103665032506 L 6.040268456375838 -147.68008931469132 L 4.026845637583891 -146.65638767309713 L 0.6711409395973149 -145.79261614329485 L -1.3422818791946312 -145.77979194912635 L -2.684563758389262 -145.93972206091829 L -4.026845637583893 -146.60509089642304 L -4.697986577181208 -147.44321403788828 L -4.697986577181208 -149.46496893273962 L -4.026845637583893 -150.64860068612575 L -2.684563758389262 -152.0049867454723 L -1.3422818791946312 -152.85593408110606 L 0.6711409395973149 -153.3741969989874 M 0.6711409395973149 -150.84700338042322 L 0.6711409395973149 -153.3741969989874 M 0.6711409395973149 -156.4068293412644 L 0.6711409395973149 -162.47209402581842 L 2.0134228187919456 -162.81760263773933 L 3.3557046979865763 -162.6576725259474 L 4.026845637583891 -162.32498810819504 L 4.697986577181208 -161.4868649667298 L 4.697986577181208 -159.9705487955913 L 4.026845637583891 -158.7869170422052 L 2.6845637583892614 -157.4305309828586 L 0.6711409395973149 -156.4068293412644 L -0.6711409395973158 -156.06132072934352 L -2.684563758389262 -156.048496535175 L -4.026845637583893 -156.71386537067977 L -4.697986577181208 -157.551988512145 L -4.697986577181208 -159.0683046832835 L -4.026845637583893 -160.2519364366696 L -2.684563758389262 -161.60832249601617 M 4.697986577181208 -169.06844582242235 L 4.026845637583891 -167.88481406903622 L 2.6845637583892614 -166.52842800968963 L 0.6711409395973149 -165.50472636809545 L -0.6711409395973158 -165.15921775617457 L -2.684563758389262 -165.146393562006 L -4.026845637583893 -165.8117623975108 L -4.697986577181208 -166.64988553897604 L -4.697986577181208 -168.1662017101145 L -4.026845637583893 -169.34983346350063 L -2.684563758389262 -170.70621952284722 L -0.6711409395973158 -171.72992116444144 L 0.6711409395973149 -172.0754297763623 L 2.6845637583892614 -172.08825397053084 L 4.026845637583891 -171.42288513502606 L 4.697986577181208 -170.58476199356082 L 4.697986577181208 -169.06844582242235 M 4.697986577181208 -176.65002667811487 L -4.697986577181208 -174.23146639466856 M 2.0134228187919456 -175.95900945427306 L 4.026845637583891 -177.99358854329293 L 4.697986577181208 -179.17722029667905 L 4.697986577181208 -180.69353646781752 L 4.026845637583891 -181.53165960928277 L 2.0134228187919456 -181.51883541511424 L -4.697986577181208 -179.79129235550974 M 2.0134228187919456 -181.51883541511424 L 4.026845637583891 -183.55341450413414 L 4.697986577181208 -184.7370462575202 L 4.697986577181208 -186.25336242865873 L 4.026845637583891 -187.09148557012398 L 2.0134228187919456 -187.07866137595542 L -4.697986577181208 -185.35111831635092 M 0.6711409395973149 -190.27122383002435 L 0.6711409395973149 -196.3364885145784 L 2.0134228187919456 -196.6819971264993 L 3.3557046979865763 -196.52206701470737 L 4.026845637583891 -196.189382596955 L 4.697986577181208 -195.35125945548975 L 4.697986577181208 -193.83494328435128 L 4.026845637583891 -192.65131153096516 L 2.6845637583892614 -191.29492547161857 L 0.6711409395973149 -190.27122383002435 L -0.6711409395973158 -189.92571521810348 L -2.684563758389262 -189.91289102393495 L -4.026845637583893 -190.57825985943973 L -4.697986577181208 -191.41638300090497 L -4.697986577181208 -192.93269917204344 L -4.026845637583893 -194.11633092542957 L -2.684563758389262 -195.47271698477616 M 9.395973154362416 -202.62580428176696 L -2.0134228187919465 -199.6889810804393 L -4.026845637583893 -199.67615688627075 L -4.697986577181208 -200.51428002773596 L -4.697986577181208 -201.52515747516165 M 4.697986577181208 -199.90020796890528 L 4.697986577181208 -203.43827903489512 M 4.697986577181208 -206.97635010088499 L -4.697986577181208 -204.55778981743867 M 0.6711409395973149 -205.93982426512227 L 2.6845637583892614 -206.96352590671648 L 4.026845637583891 -208.31991196606307 L 4.697986577181208 -209.50354371944914 L 4.697986577181208 -211.01985989058767 M 4.697986577181208 -212.5361760617262 L -4.697986577181208 -213.15024812055688 M 4.697986577181208 -218.6014407462802 L -4.697986577181208 -213.15024812055688 L -7.382550335570469 -211.44835344928939 L -8.724832214765101 -210.0919673899428 L -9.395973154362416 -208.9083356365567 L -9.395973154362416 -208.4028969128439"/>
<path fill="none" stroke="#000000" d="M 9.395973154362416 -148.03842212078072 L -4.697986577181208 -144.41058169561126 M 9.395973154362416 -148.03842212078072 L -4.697986577181208 -151.48672382759096 M 9.395973154362416 -155.11456425276046 L -4.697986577181208 -151.48672382759096 M 4.697986577181208 -159.9705487955913 L 4.026845637583891 -158.7869170422052 L 2.6845637583892614 -157.4305309828586 L 0.6711409395973149 -156.4068293412644 L -0.6711409395973158 -156.06132072934352 L -2.684563758389262 -156.048496535175 L -4.026845637583893 -156.71386537067977 L -4.697986577181208 -157.551988512145 L -4.697986577181208 -159.0683046832835 L -4.026845637583893 -160.2519364366696 L -2.684563758389262 -161.60832249601617 L -0.6711409395973158 -162.6320241376104 L 0.6711409395973149 -162.97753274953126 L 2.6845637583892614 -162.9903569436998 L 4.026845637583891 -162.32498810819504 L 4.697986577181208 -161.4868649667298 L 4.697986577181208 -159.9705487955913 M 6.040268456375838 -183.0607999745898 L 7.382550335570468 -182.90086986279786 L 8.7248322147651 -182.23550102729308 L 9.395973154362416 -181.39737788582786 L 9.395973154362416 -179.37562299097655 L 8.7248322147651 -178.1919912375904 L 7.382550335570468 -176.83560517824384 L 6.040268456375838 -175.9846578426101 L 4.026845637583891 -174.9609562010159 L 0.6711409395973149 -174.09718467121363 L -1.3422818791946312 -174.08436047704512 L -2.684563758389262 -174.24429058883706 L -4.026845637583893 -174.9096594243418 L -4.697986577181208 -175.74778256580706 L -4.697986577181208 -177.7695374606584 L -4.026845637583893 -178.9531692140445 L -2.684563758389262 -180.30955527339108 L -1.3422818791946312 -181.16050260902483 L 0.6711409395973149 -181.67876552690618 M 0.6711409395973149 -179.151571908342 L 0.6711409395973149 -181.67876552690618 M 0.6711409395973149 -184.71139786918317 L 0.6711409395973149 -190.7766625537372 L 2.0134228187919456 -191.1221711656581 L 3.3557046979865763 -190.96224105386617 L 4.026845637583891 -190.62955663611382 L 4.697986577181208 -189.79143349464857 L 4.697986577181208 -188.27511732351005 L 4.026845637583891 -187.09148557012398 L 2.6845637583892614 -185.7350995107774 L 0.6711409395973149 -184.71139786918317 L -0.6711409395973158 -184.3658892572623 L -2.684563758389262 -184.35306506309377 L -4.026845637583893 -185.01843389859854 L -4.697986577181208 -185.85655704006373 L -4.697986577181208 -187.37287321120226 L -4.026845637583893 -188.55650496458838 L -2.684563758389262 -189.91289102393495 M 4.697986577181208 -197.37301435034112 L 4.026845637583891 -196.189382596955 L 2.6845637583892614 -194.8329965376084 L 0.6711409395973149 -193.8092948960142 L -0.6711409395973158 -193.46378628409332 L -2.684563758389262 -193.4509620899248 L -4.026845637583893 -194.11633092542957 L -4.697986577181208 -194.9544540668948 L -4.697986577181208 -196.47077023803328 L -4.026845637583893 -197.6544019914194 L -2.684563758389262 -199.010788050766 L -0.6711409395973158 -200.0344896923602 L 0.6711409395973149 -200.3799983042811 L 2.6845637583892614 -200.39282249844962 L 4.026845637583891 -199.72745366294484 L 4.697986577181208 -198.8893305214796 L 4.697986577181208 -197.37301435034112 M 4.697986577181208 -204.95459520603364 L -4.697986577181208 -202.53603492258733 M 2.0134228187919456 -204.26357798219183 L 4.026845637583891 -206.2981570712117 L 4.697986577181208 -207.48178882459783 L 4.697986577181208 -208.9981049957363 L 4.026845637583891 -209.83622813720154 L 2.0134228187919456 -209.82340394303301 L -4.697986577181208 -208.09586088342851 M 2.0134228187919456 -209.82340394303301 L 4.026845637583891 -211.8579830320529 L 4.697986577181208 -213.04161478543898 L 4.697986577181208 -214.5579309565775 L 4.026845637583891 -215.39605409804275 L 2.0134228187919456 -215.3832299038742 L -4.697986577181208 -213.6556868442697 M 0.6711409395973149 -218.57579235794313 L 0.6711409395973149 -224.64105704249718 L 2.0134228187919456 -224.9865656544181 L 3.3557046979865763 -224.82663554262615 L 4.026845637583891 -224.49395112487377 L 4.697986577181208 -223.65582798340853 L 4.697986577181208 -222.13951181227006 L 4.026845637583891 -220.95588005888393 L 2.6845637583892614 -219.59949399953734 L 0.6711409395973149 -218.57579235794313 L -0.6711409395973158 -218.23028374602225 L -2.684563758389262 -218.21745955185372 L -4.026845637583893 -218.8828283873585 L -4.697986577181208 -219.72095152882375 L -4.697986577181208 -221.23726769996222 L -4.026845637583893 -222.42089945334834 L -2.684563758389262 -223.77728551269493 M 9.395973154362416 -230.93037280968574 L -2.0134228187919465 -227.99354960835808 L -4.026845637583893 -227.98072541418952 L -4.697986577181208 -228.81884855565477 L -4.697986577181208 -229.82972600308045 M 4.697986577181208 -228.20477649682405 L 4.697986577181208 -231.74284756281392 M 4.697986577181208 -235.28091862880376 L -4.697986577181208 -232.86235834535745 M 0.6711409395973149 -234.24439279304104 L 2.6845637583892614 -235.26809443463526 L 4.026845637583891 -236.62448049398185 L 4.697986577181208 -237.80811224736792 L 4.697986577181208 -239.32442841850644 M 4.697986577181208 -240.84074458964497 L -4.697986577181208 -241.45481664847566 M 4.697986577181208 -246.906009274199 L -4.697986577181208 -241.45481664847566 L -7.382550335570469 -239.75292197720816 L -8.724832214765101 -238.39653591786157 L -9.395973154362416 -237.21290416447547 L -9.395973154362416 -236.70746544076266"/>
</svg>