<?xml version="1.0" encoding="UTF-8"?>
<!-- Generated by jsxcad -->
<!DOCTYPE svg PUBLIC "-//W3C//DTD SVG 1.1 Tiny//EN" "http://www.w3.org/Graphics/SVG/1.1/DTD/svg11-tiny.dtd">
<svg baseProfile="tiny" height="129.6580984165337mm" width="61.587248322147694mm" viewBox="-0.5134228187919626 -8.316633197597668 61.587248322147694 129.6580984165337" version="1.1" stroke="black" stroke-width=".1" fill="none" xmlns="http://www.w3.org/2000/svg">
<path fill="#bababa" stroke="#bababa" d="M9.437499999999995 5.264178358608948 L9.861111111111107 4.916506758892543 L9.861111111111105 5.668529964113718 L9.437499999999996 6.016201563830121 z"/>
<path fill="#bababa" stroke="#bababa" d="M10.046516871490917 5.6505819840276805 L9.861111111111109 5.668529964113718 L9.861111111111109 4.9165067588925435 L9.865771812080535 4.916055585379837 L10.208053691275166 5.634944607827988 z"/>
<path fill="#bababa" stroke="#bababa" d="M9.4375 5.264178358608947 L9.4375 6.016201563830122 L9.4375 6.208488034807831 L9.4375 5.456464829586657 z"/>
<path fill="#bababa" stroke="#bababa" d="M10.208053691275166 5.6349446078279914 L9.865771812080537 4.916055585379841 L9.865771812080537 -22.958342539823132 L10.208053691275165 -22.29442403064179 z"/>
<path fill="#bababa" stroke="#bababa" d="M9.268456375838925 -22.052568002297157 L9.268456375838925 6.252000525621619 L9.4375 6.20848803480783 L9.4375 6.016201563830122 L9.86111111111111 5.66852996411372 L10.208053691275166 5.634944607827991 L10.208053691275166 -22.29442403064179 z"/>
<path fill="#bababa" stroke="#bababa" d="M8.926174496644293 5.588082016440275 L9.268456375838923 6.25200052562162 L9.268456375838925 -22.052568002297157 L8.926174496644293 -22.7164865114785 z"/>
<path fill="#bababa" stroke="#bababa" d="M9.494812002244748 5.217140509551783 L9.437499999999998 5.264178358608946 L9.437499999999998 5.456464829586656 L8.926174496644293 5.588082016440275 L8.926174496644293 -22.7164865114785 L9.865771812080537 -22.958342539823136 L9.865771812080537 4.916055585379841 L9.86111111111111 4.916506758892545 z"/>
<path fill="#bababa" stroke="#bababa" d="M10.208053691275166 -22.2944240306418 L9.865771812080537 -22.958342539823136 L8.926174496644295 -22.716486511478504 L9.268456375838925 -22.052568002297168 z"/>
<path fill="#bababa" stroke="#bababa" d="M9.268456375838925 6.25200052562162 L8.926174496644295 5.588082016440273 L9.4375 5.456464829586649 L9.4375 6.208488034807823 z"/>
<path fill="#bababa" stroke="#bababa" d="M55.07843137254901 -6.047411917681479 L54.99999999999999 -6.050188542422048 L54.99999999999999 -6.0703770848440906 z"/>
<path fill="#bababa" stroke="#bababa" d="M54.99999999999999 -6.050188542422045 L54.46951219512194 -5.758308954880702 L54.46951219512194 -5.915047135605509 L54.99999999999999 -6.070377084844089 z"/>
<path fill="#bababa" stroke="#bababa" d="M54.275 -5.582418116992989 L54.275 -5.5396664249456125 L55.07843137254902 -5.5396664249456125 L55.07843137254902 -6.047411917681477 L55 -6.070377084844089 L54.46951219512195 -5.91504713560551 z"/>
<path fill="#bababa" stroke="#bababa" d="M55.308724832214764 -5.598944863265375 L54.96644295302013 -6.262863372446719 L54.96644295302013 -34.56743190036549 L55.308724832214764 -33.903513391184156 z"/>
<path fill="#bababa" stroke="#bababa" d="M54.999999999999986 -6.050188542422043 L55.07843137254901 -6.047411917681478 L55.07843137254901 -5.539666424945613 L55.30872483221476 -5.598944863265376 L55.30872483221476 -33.90351339118415 L54.36912751677851 -33.66165736283952 L54.36912751677851 -5.560804951388111 L54.469512195121936 -5.7583089548807 z"/>
<path fill="#bababa" stroke="#bababa" d="M54.36912751677852 -5.560804951388111 L54.275 -5.58241811699299 L54.46951219512194 -5.915047135605511 L54.46951219512194 -5.758308954880701 z"/>
<path fill="#bababa" stroke="#bababa" d="M54.275 -5.557356780275561 L54.275 -5.582418116992989 L54.36912751677852 -5.56080495138811 L54.36912751677852 -33.66165736283952 L54.02684563758389 -34.32557587202086 L54.02684563758389 -6.021007344102086 L54.275 -5.539666424945612 z"/>
<path fill="#bababa" stroke="#bababa" d="M54.96644295302013 -6.262863372446719 L54.02684563758388 -6.0210073441020855 L54.02684563758388 -34.32557587202086 L54.96644295302013 -34.56743190036549 z"/>
<path fill="#bababa" stroke="#bababa" d="M55.308724832214764 -33.903513391184156 L54.96644295302013 -34.567431900365506 L54.02684563758389 -34.32557587202087 L54.36912751677852 -33.66165736283953 z"/>
<path fill="#bababa" stroke="#bababa" d="M54.02684563758389 -6.021007344102091 L54.96644295302013 -6.262863372446722 L55.308724832214764 -5.598944863265379 L55.07843137254902 -5.539666424945613 L54.275 -5.539666424945613 z"/>
<path fill="#bababa" stroke="#bababa" d="M9.4375 5.264178358608947 L9.4375 5.456464829586657 L9.4375 5.0593183466279905 L9.4375 4.867031875650282 z"/>
<path fill="#bababa" stroke="#bababa" d="M10.625 5.059318346627984 L9.4375 5.059318346627984 L9.4375 5.456464829586656 L0 7.885714285714278 L-0.5134228187919463 6.889836521942268 L60.560402684563755 -8.830805320458849 L61.0738255033557 -7.834927556686834 L10.625 5.150797679477879 z"/>
<path fill="#bababa" stroke="#bababa" d="M10.389150943396226 4.865390502444673 L9.861111111111109 4.916506758892541 L9.861111111111109 4.6283994347446065 L10.389150943396226 4.713202698868109 z"/>
<path fill="#bababa" stroke="#bababa" d="M9.861111111111107 4.916506758892546 L9.437499999999996 5.2641783586089455 L9.437499999999996 4.867031875650281 L9.861111111111107 4.628399434744612 z"/>
<path fill="#bababa" stroke="#bababa" d="M0.8959731543624153 5.819438266227349 L0.8959731543624161 -20.36228762209752 L1.4093959731543617 -19.366409858325504 L1.4093959731543613 6.815316029999367 z"/>
<path fill="#bababa" stroke="#bababa" d="M59.151006711409394 -35.357361379464734 L59.151006711409394 -9.175635491139866 L59.66442953020134 -8.179757727367852 L59.66442953020134 -34.36148361569272 z"/>
<path fill="#bababa" stroke="#bababa" d="M58.99440715883669 -9.135326153082435 L0.8959731543624161 5.8194382662273485 L1.4093959731543624 6.815316029999363 L59.66442953020134 -8.179757727367853 L59.151006711409394 -9.17563549113987 z"/>
<path fill="#bababa" stroke="#bababa" d="M1.052572706935123 -20.40259696015496 L59.151006711409394 -35.35736137946474 L59.66442953020134 -34.36148361569273 L1.4093959731543624 -19.366409858325515 L0.8959731543624161 -20.362287622097526 z"/>
<path fill="#bababa" stroke="#bababa" d="M61.0738255033557 -35.43188187140764 L61.0738255033557 -7.83492755668683 L60.560402684563755 -8.830805320458847 L60.560402684563755 -36.427759635179655 z"/>
<path fill="#bababa" stroke="#bababa" d="M0 -19.711240029006536 L61.0738255033557 -35.43188187140765 L60.560402684563755 -36.42775963517966 L-0.5134228187919463 -20.70711779277855 z"/>
<path fill="#bababa" stroke="#bababa" d="M-1.162010433609356e-15 7.8857142857142835 L-2.065452237610005e-15 -19.711240029006525 L-0.5134228187919484 -20.70711779277854 L-0.5134228187919475 6.889836521942268 z"/>
<path fill="#bababa" stroke="#bababa" d="M9.86111111111111 4.628399434744612 L9.4375 4.867031875650282 L9.4375 5.0593183466279905 L10.625 5.0593183466279905 L10.389150943396226 4.713202698868114 z"/>
<path fill="#bababa" stroke="#bababa" d="M10.539599687593082 5.047452504250998 L10.389150943396226 4.865390502444674 L10.389150943396228 4.7132026988681135 L10.625000000000002 5.0593183466279905 L10.625 5.150797679477882 z"/>
<path fill="#bababa" stroke="#bababa" d="M60.56040268456375 -8.830805320458845 L-0.5134228187919462 6.889836521942268 L-0.5134228187919462 -20.707117792778536 L60.56040268456375 -36.42775963517965 z M1.0525727069351227 -20.40259696015496 L0.895973154362416 -20.36228762209752 L0.895973154362416 5.81943826622735 L59.151006711409394 -9.175635491139868 L59.151006711409394 -35.357361379464734 z"/>
<path fill="#bababa" stroke="#bababa" d="M10.401583244000989 4.880435157999921 L10.624999999999998 5.150797679477882 L61.0738255033557 -7.834927556686831 L61.0738255033557 -35.43188187140764 L0 -19.71124002900652 L0 7.885714285714284 L9.437499999999998 5.456464829586656 L9.437499999999998 5.264178358608947 L9.861111111111109 4.916506758892545 L10.389150943396224 4.865390502444673 z M59.50782997762863 -8.139448389310413 L1.4093959731543622 6.815316029999367 L1.4093959731543622 -19.366409858325504 L59.66442953020134 -34.36148361569272 L59.66442953020134 -8.179757727367852 z"/>
<path fill="#3c3c3c" stroke="#3c3c3c" d="M59.151006711409394 -35.357361379464734 L59.66442953020134 -34.36148361569272 L59.66442953020134 -8.179757727367852 L59.151006711409394 -9.175635491139866 z"/>
<path fill="#3c3c3c" stroke="#3c3c3c" d="M0.8959731543624161 -20.362287622097522 L1.4093959731543624 -19.366409858325518 L59.66442953020134 -34.36148361569273 L59.151006711409394 -35.35736137946474 z"/>
<path fill="#3c3c3c" stroke="#3c3c3c" d="M0.8959731543624153 5.819438266227349 L1.4093959731543613 6.815316029999367 L1.4093959731543617 -19.366409858325504 L0.8959731543624161 -20.36228762209752 z"/>
<path fill="#3c3c3c" stroke="#3c3c3c" d="M59.151006711409394 -9.17563549113987 L59.66442953020134 -8.179757727367855 L1.4093959731543624 6.815316029999364 L0.8959731543624161 5.819438266227346 z"/>
<path fill="#3c3c3c" stroke="#3c3c3c" d="M59.15100671140939 -35.357361379464734 L59.15100671140939 -9.175635491139866 L0.8959731543624161 5.81943826622735 L0.8959731543624161 -20.36228762209752 z"/>
<path fill="#3c3c3c" stroke="#3c3c3c" d="M59.66442953020133 -34.36148361569272 L1.4093959731543622 -19.366409858325504 L1.4093959731543622 6.815316029999367 L59.66442953020133 -8.179757727367852 z"/>
<path fill="#bababa" stroke="#bababa" d="M9.816197809851808 -50.84453258047771 L9.437500000000002 -50.960385755273194 L9.437500000000005 -50.20836255005202 L9.86111111111112 -50.07876926795707 L9.861111111111123 -50.83079247317825 z"/>
<path fill="#bababa" stroke="#bababa" d="M9.861111111111109 -50.83079247317826 L9.861111111111109 -50.078769267957085 L10.208053691275166 -50.22379266911159 L9.865771812080535 -50.832740665026115 z"/>
<path fill="#bababa" stroke="#bababa" d="M9.4375 -50.960385755273194 L9.4375 -51.1526722262509 L9.4375 -50.40064902102973 L9.4375 -50.208362550052016 z"/>
<path fill="#bababa" stroke="#bababa" d="M9.865771812080537 -22.958342539823136 L9.865771812080535 -50.83274066502611 L10.208053691275166 -50.22379266911157 L10.208053691275166 -22.294424030641792 z"/>
<path fill="#bababa" stroke="#bababa" d="M9.437499999999998 -50.208362550052016 L9.437499999999998 -50.40064902102972 L9.268456375838925 -50.35713653021593 L9.268456375838925 -22.052568002297157 L10.208053691275166 -22.29442403064179 L10.208053691275166 -50.223792669111575 L9.861111111111109 -50.07876926795708 z"/>
<path fill="#bababa" stroke="#bababa" d="M8.926174496644293 -22.7164865114785 L9.268456375838925 -22.052568002297157 L9.268456375838925 -50.35713653021593 L8.926174496644295 -51.021055039397275 z"/>
<path fill="#bababa" stroke="#bababa" d="M9.437499999999998 -51.0144234041484 L9.437499999999998 -50.96038575527319 L9.861111111111109 -50.830792473178256 L9.865771812080537 -50.83274066502611 L9.865771812080537 -22.958342539823136 L8.926174496644293 -22.716486511478504 L8.926174496644293 -51.02105503939728 L9.437499999999998 -51.1526722262509 z"/>
<path fill="#bababa" stroke="#bababa" d="M9.4375 -51.15267222625091 L8.926174496644295 -51.02105503939729 L9.268456375838925 -50.357136530215946 L9.4375 -50.400649021029736 z"/>
<path fill="#bababa" stroke="#bababa" d="M9.865771812080537 -22.958342539823136 L10.208053691275166 -22.2944240306418 L9.268456375838925 -22.052568002297168 L8.926174496644295 -22.716486511478504 z"/>
<path fill="#bababa" stroke="#bababa" d="M55 -61.6180928208847 L55 -61.59790427846265 L55.07843137254902 -61.64105798804731 z"/>
<path fill="#bababa" stroke="#bababa" d="M54.369127516778526 -61.76250977429093 L54.46951219512195 -61.61668458939846 L54.46951219512195 -61.773422770123275 L54.275 -62.10605178873579 z"/>
<path fill="#bababa" stroke="#bababa" d="M54.46951219512194 -61.616684589398474 L54.99999999999999 -61.59790427846265 L54.99999999999999 -61.618092820884705 L54.46951219512194 -61.77342277012328 z"/>
<path fill="#bababa" stroke="#bababa" d="M54.489528795811516 -62.148803480783165 L54.275 -62.148803480783165 L54.275 -62.10605178873579 L54.46951219512195 -61.77342277012327 L55 -61.61809282088469 L55.07843137254902 -61.64105798804731 L55.07843137254902 -62.148803480783165 z"/>
<path fill="#bababa" stroke="#bababa" d="M55.308724832214764 -33.903513391184156 L54.96644295302013 -34.56743190036549 L54.96644295302013 -62.872000428284274 L55.30872483221476 -62.20808191910293 z"/>
<path fill="#bababa" stroke="#bababa" d="M55.07843137254901 -61.673591974861004 L55.07843137254901 -61.6410579880473 L54.999999999999986 -61.59790427846265 L54.469512195121936 -61.61668458939846 L54.36912751677851 -61.762509774290926 L54.36912751677851 -33.66165736283952 L55.30872483221476 -33.90351339118415 L55.30872483221476 -62.20808191910293 L55.07843137254901 -62.14880348078317 z"/>
<path fill="#bababa" stroke="#bababa" d="M54.275 -62.10605178873579 L54.275 -62.148803480783165 L54.02684563758389 -62.630144399939645 L54.02684563758389 -34.32557587202086 L54.36912751677852 -33.66165736283952 L54.36912751677852 -61.762509774290926 z"/>
<path fill="#bababa" stroke="#bababa" d="M54.96644295302013 -34.56743190036549 L54.02684563758388 -34.32557587202086 L54.02684563758388 -62.63014439993964 L54.96644295302013 -62.872000428284274 z"/>
<path fill="#bababa" stroke="#bababa" d="M54.96644295302013 -62.87200042828428 L54.02684563758389 -62.63014439993965 L54.275 -62.14880348078318 L55.07843137254902 -62.14880348078318 L55.308724832214764 -62.20808191910294 z"/>
<path fill="#bababa" stroke="#bababa" d="M54.96644295302013 -34.567431900365506 L55.308724832214764 -33.903513391184156 L54.36912751677852 -33.66165736283953 L54.02684563758389 -34.32557587202087 z"/>
<path fill="#bababa" stroke="#bababa" d="M0.8959731543624162 -48.6668561500163 L1.4093959731543637 -47.67097838624427 L1.4093959731543617 -21.489252497919413 L0.895973154362416 -22.485130261691427 z"/>
<path fill="#bababa" stroke="#bababa" d="M59.15100671140939 -37.48020401905865 L59.66442953020134 -36.484326255286625 L59.66442953020134 -62.6660521436115 L59.151006711409394 -63.66192990738352 z"/>
<path fill="#bababa" stroke="#bababa" d="M0.8959731543624161 -22.485130261691435 L1.4093959731543624 -21.48925249791942 L59.66442953020134 -36.48432625528663 L59.151006711409394 -37.480204019058654 z"/>
<path fill="#bababa" stroke="#bababa" d="M59.151006711409394 -63.661929907383524 L59.66442953020134 -62.666052143611516 L1.4093959731543624 -47.67097838624429 L0.8959731543624161 -48.66685615001631 z"/>
<path fill="#bababa" stroke="#bababa" d="M61.0738255033557 -63.73645039932642 L61.0738255033557 -36.139496084605604 L60.560402684563755 -37.135373848377625 L60.560402684563755 -64.73232816309843 z"/>
<path fill="#bababa" stroke="#bababa" d="M0 -48.01580855692531 L61.0738255033557 -63.73645039932643 L60.560402684563755 -64.73232816309844 L-0.5134228187919463 -49.011686320697336 z"/>
<path fill="#bababa" stroke="#bababa" d="M-1.5210225143847821e-15 -20.418854242204493 L-1.188672047649628e-15 -48.0158085569253 L-0.5134228187919468 -49.011686320697315 L-0.5134228187919478 -21.414732005976507 z"/>
<path fill="#bababa" stroke="#bababa" d="M61.0738255033557 -36.13949608460561 L0 -20.418854242204496 L-0.5134228187919463 -21.414732005976525 L60.560402684563755 -37.13537384837763 z"/>
<path fill="#bababa" stroke="#bababa" d="M60.56040268456375 -37.135373848377625 L-0.5134228187919462 -21.41473200597651 L-0.5134228187919462 -49.011686320697315 L60.56040268456375 -64.73232816309843 z M1.0525727069351227 -48.707165488073734 L0.895973154362416 -48.6668561500163 L0.895973154362416 -22.485130261691424 L59.151006711409394 -37.48020401905864 L59.151006711409394 -63.66192990738352 z"/>
<path fill="#bababa" stroke="#bababa" d="M0 -48.01580855692529 L0 -20.418854242204493 L61.07382550335569 -36.139496084605604 L61.07382550335569 -63.73645039932641 z M1.5659955257270692 -47.71128772430172 L59.66442953020134 -62.6660521436115 L59.66442953020134 -36.48432625528663 L1.4093959731543622 -21.489252497919413 L1.4093959731543622 -47.67097838624428 z"/>
<path fill="#3c3c3c" stroke="#3c3c3c" d="M59.151006711409394 -63.66192990738352 L59.66442953020134 -62.6660521436115 L59.66442953020134 -36.484326255286625 L59.15100671140939 -37.48020401905865 z"/>
<path fill="#3c3c3c" stroke="#3c3c3c" d="M0.8959731543624161 -48.66685615001631 L1.4093959731543624 -47.670978386244286 L59.66442953020134 -62.666052143611516 L59.151006711409394 -63.66192990738353 z"/>
<path fill="#3c3c3c" stroke="#3c3c3c" d="M0.895973154362416 -22.485130261691427 L1.4093959731543617 -21.489252497919413 L1.4093959731543637 -47.67097838624427 L0.8959731543624162 -48.6668561500163 z"/>
<path fill="#3c3c3c" stroke="#3c3c3c" d="M59.151006711409394 -37.48020401905865 L59.66442953020134 -36.48432625528664 L1.4093959731543624 -21.489252497919427 L0.8959731543624161 -22.48513026169143 z"/>
<path fill="#3c3c3c" stroke="#3c3c3c" d="M59.15100671140939 -63.66192990738352 L59.15100671140939 -37.48020401905865 L0.8959731543624161 -22.485130261691427 L0.8959731543624161 -48.6668561500163 z"/>
<path fill="#3c3c3c" stroke="#3c3c3c" d="M59.66442953020133 -62.6660521436115 L1.4093959731543622 -47.67097838624428 L1.4093959731543622 -21.48925249791941 L59.66442953020133 -36.484326255286625 z"/>
<path fill="#bababa" stroke="#bababa" d="M9.437499999999993 -51.34495869722861 L9.861111111111091 -51.692630296945005 L9.861111111111102 -50.94060709172384 L9.437499999999988 -50.592935492007435 z"/>
<path fill="#bababa" stroke="#bababa" d="M10.046516871490917 -50.95855507180989 L9.861111111111109 -50.94060709172385 L9.861111111111109 -51.69263029694502 L9.865771812080535 -51.69308147045773 L10.208053691275166 -50.974192448009575 z"/>
<path fill="#bababa" stroke="#bababa" d="M9.4375 -51.34495869722861 L9.4375 -50.592935492007435 L9.4375 -50.40064902102973 L9.4375 -51.1526722262509 z"/>
<path fill="#bababa" stroke="#bababa" d="M10.208053691275165 -50.97419244800956 L9.865771812080535 -51.69308147045771 L9.865771812080537 -79.56747959566069 L10.208053691275166 -78.90356108647934 z"/>
<path fill="#bababa" stroke="#bababa" d="M9.268456375838925 -78.66170505813471 L9.268456375838925 -50.35713653021594 L9.4375 -50.40064902102973 L9.4375 -50.592935492007435 L9.86111111111111 -50.94060709172384 L10.208053691275166 -50.97419244800957 L10.208053691275166 -78.90356108647934 z"/>
<path fill="#bababa" stroke="#bababa" d="M8.926174496644295 -51.021055039397275 L9.268456375838925 -50.35713653021593 L9.268456375838925 -78.66170505813471 L8.926174496644295 -79.32562356731606 z"/>
<path fill="#bababa" stroke="#bababa" d="M9.494812002244748 -51.391996546285775 L9.437499999999998 -51.344958697228606 L9.437499999999998 -51.1526722262509 L8.926174496644293 -51.02105503939728 L8.926174496644293 -79.32562356731606 L9.865771812080537 -79.56747959566069 L9.865771812080537 -51.69308147045771 L9.86111111111111 -51.69263029694501 z"/>
<path fill="#bababa" stroke="#bababa" d="M10.208053691275166 -78.90356108647937 L9.865771812080537 -79.5674795956607 L8.926174496644295 -79.32562356731609 L9.268456375838925 -78.66170505813473 z"/>
<path fill="#bababa" stroke="#bababa" d="M9.268456375838925 -50.35713653021595 L8.926174496644295 -51.02105503939728 L9.4375 -51.15267222625091 L9.4375 -50.400649021029736 z"/>
<path fill="#bababa" stroke="#bababa" d="M55.07843137254901 -62.65654897351905 L54.99999999999999 -62.65932559825961 L54.99999999999999 -62.67951414068166 z"/>
<path fill="#bababa" stroke="#bababa" d="M54.99999999999999 -62.659325598259606 L54.46951219512194 -62.36744601071827 L54.46951219512194 -62.52418419144308 L54.99999999999999 -62.679514140681654 z"/>
<path fill="#bababa" stroke="#bababa" d="M54.275 -62.19155517283055 L54.275 -62.148803480783165 L55.07843137254902 -62.148803480783165 L55.07843137254902 -62.65654897351904 L55 -62.67951414068165 L54.46951219512195 -62.52418419144306 z"/>
<path fill="#bababa" stroke="#bababa" d="M55.30872483221476 -62.20808191910293 L54.96644295302013 -62.872000428284274 L54.96644295302013 -91.17656895620304 L55.308724832214764 -90.51265044702171 z"/>
<path fill="#bababa" stroke="#bababa" d="M54.999999999999986 -62.6593255982596 L55.07843137254901 -62.65654897351904 L55.07843137254901 -62.148803480783165 L55.30872483221476 -62.20808191910293 L55.30872483221476 -90.51265044702171 L54.36912751677851 -90.27079441867707 L54.36912751677851 -62.169942007225664 L54.469512195121936 -62.367446010718254 z"/>
<path fill="#bababa" stroke="#bababa" d="M54.36912751677851 -62.16994200722566 L54.27499999999999 -62.19155517283054 L54.46951219512194 -62.52418419144306 L54.46951219512194 -62.36744601071825 z"/>
<path fill="#bababa" stroke="#bababa" d="M54.275 -62.16649383611311 L54.275 -62.19155517283055 L54.36912751677852 -62.169942007225664 L54.36912751677852 -90.27079441867708 L54.02684563758389 -90.93471292785841 L54.02684563758389 -62.630144399939645 L54.275 -62.148803480783165 z"/>
<path fill="#bababa" stroke="#bababa" d="M54.96644295302013 -62.872000428284274 L54.02684563758388 -62.63014439993964 L54.02684563758388 -90.93471292785841 L54.96644295302013 -91.17656895620306 z"/>
<path fill="#bababa" stroke="#bababa" d="M55.308724832214764 -90.51265044702173 L54.96644295302013 -91.17656895620307 L54.02684563758389 -90.93471292785843 L54.36912751677852 -90.27079441867708 z"/>
<path fill="#bababa" stroke="#bababa" d="M54.02684563758389 -62.63014439993965 L54.96644295302013 -62.87200042828428 L55.308724832214764 -62.20808191910294 L55.07843137254902 -62.14880348078318 L54.275 -62.14880348078318 z"/>
<path fill="#bababa" stroke="#bababa" d="M9.4375 -51.34495869722861 L9.4375 -51.1526722262509 L9.4375 -51.54981870920957 L9.4375 -51.74210518018728 z"/>
<path fill="#bababa" stroke="#bababa" d="M10.625 -51.549818709209575 L9.4375 -51.549818709209575 L9.4375 -51.15267222625092 L0 -48.72342277012328 L-0.5134228187919463 -49.7193005338953 L60.560402684563755 -65.4399423762964 L61.0738255033557 -64.4440646125244 L10.625 -51.45833937635969 z"/>
<path fill="#bababa" stroke="#bababa" d="M10.389150943396226 -51.743746553392896 L9.861111111111109 -51.69263029694502 L9.861111111111109 -51.980737621092956 L10.389150943396226 -51.895934356969455 z"/>
<path fill="#bababa" stroke="#bababa" d="M9.861111111111102 -51.69263029694501 L9.437499999999993 -51.34495869722861 L9.437499999999988 -51.74210518018728 L9.861111111111098 -51.98073762109295 z"/>
<path fill="#bababa" stroke="#bababa" d="M0.8959731543624168 -50.789698789610206 L0.8959731543624175 -76.97142467793508 L1.4093959731543597 -75.97554691416306 L1.4093959731543617 -49.79382102583819 z"/>
<path fill="#bababa" stroke="#bababa" d="M59.151006711409394 -91.96649843530228 L59.151006711409394 -65.78477254697742 L59.66442953020134 -64.78889478320541 L59.66442953020133 -90.97062067153027 z"/>
<path fill="#bababa" stroke="#bababa" d="M58.99440715883669 -65.74446320891998 L0.8959731543624161 -50.78969878961022 L1.4093959731543624 -49.79382102583821 L59.66442953020134 -64.78889478320541 L59.151006711409394 -65.78477254697742 z"/>
<path fill="#bababa" stroke="#bababa" d="M1.052572706935123 -77.01173401599253 L59.151006711409394 -91.9664984353023 L59.66442953020134 -90.9706206715303 L1.4093959731543624 -75.97554691416308 L0.8959731543624161 -76.97142467793508 z"/>
<path fill="#bababa" stroke="#bababa" d="M61.07382550335571 -92.04101892724519 L61.0738255033557 -64.44406461252439 L60.560402684563755 -65.4399423762964 L60.560402684563755 -93.0368966910172 z"/>
<path fill="#bababa" stroke="#bababa" d="M0 -76.3203770848441 L61.0738255033557 -92.0410189272452 L60.560402684563755 -93.03689669101723 L-0.5134228187919463 -77.31625484861611 z"/>
<path fill="#bababa" stroke="#bababa" d="M-6.442423244244049e-16 -48.72342277012327 L3.626527523350726e-16 -76.32037708484408 L-0.5134228187919466 -77.3162548486161 L-0.5134228187919476 -49.71930053389529 z"/>
<path fill="#bababa" stroke="#bababa" d="M9.86111111111111 -51.98073762109294 L9.4375 -51.742105180187274 L9.4375 -51.54981870920957 L10.625 -51.54981870920957 L10.389150943396226 -51.89593435696944 z"/>
<path fill="#bababa" stroke="#bababa" d="M10.539599687593087 -51.56168455158655 L10.389150943396231 -51.74374655339288 L10.389150943396231 -51.89593435696944 L10.625 -51.54981870920957 L10.625000000000002 -51.45833937635967 z"/>
<path fill="#bababa" stroke="#bababa" d="M60.56040268456375 -65.4399423762964 L-0.5134228187919462 -49.719300533895286 L-0.5134228187919462 -77.3162548486161 L60.56040268456375 -93.03689669101722 z M1.0525727069351227 -77.01173401599252 L0.895973154362416 -76.97142467793508 L0.895973154362416 -50.789698789610206 L59.151006711409394 -65.78477254697742 L59.151006711409394 -91.96649843530228 z"/>
<path fill="#bababa" stroke="#bababa" d="M10.401583244000989 -51.72870189783764 L10.624999999999998 -51.458339376359675 L61.0738255033557 -64.44406461252439 L61.0738255033557 -92.0410189272452 L0 -76.32037708484408 L0 -48.72342277012327 L9.437499999999998 -51.1526722262509 L9.437499999999998 -51.344958697228606 L9.861111111111109 -51.69263029694501 L10.389150943396224 -51.74374655339288 z M59.50782997762863 -64.74858544514797 L1.4093959731543622 -49.79382102583819 L1.4093959731543622 -75.97554691416306 L59.66442953020134 -90.97062067153028 L59.66442953020134 -64.78889478320541 z"/>
<path fill="#3c3c3c" stroke="#3c3c3c" d="M59.151006711409394 -91.96649843530228 L59.66442953020133 -90.97062067153027 L59.66442953020134 -64.78889478320541 L59.151006711409394 -65.78477254697742 z"/>
<path fill="#3c3c3c" stroke="#3c3c3c" d="M0.8959731543624161 -76.97142467793509 L1.4093959731543624 -75.97554691416306 L59.66442953020134 -90.9706206715303 L59.151006711409394 -91.96649843530231 z"/>
<path fill="#3c3c3c" stroke="#3c3c3c" d="M0.8959731543624168 -50.789698789610206 L1.4093959731543617 -49.79382102583819 L1.4093959731543597 -75.97554691416306 L0.8959731543624175 -76.97142467793508 z"/>
<path fill="#3c3c3c" stroke="#3c3c3c" d="M59.151006711409394 -65.78477254697744 L59.66442953020134 -64.78889478320542 L1.4093959731543624 -49.79382102583819 L0.8959731543624161 -50.78969878961021 z"/>
<path fill="#3c3c3c" stroke="#3c3c3c" d="M59.15100671140939 -91.9664984353023 L59.15100671140939 -65.78477254697741 L0.8959731543624161 -50.7896987896102 L0.8959731543624161 -76.97142467793508 z"/>
<path fill="#3c3c3c" stroke="#3c3c3c" d="M59.66442953020133 -90.97062067153027 L1.4093959731543622 -75.97554691416306 L1.4093959731543622 -49.793821025838184 L59.66442953020133 -64.78889478320541 z"/>
<path fill="#bababa" stroke="#bababa" d="M9.816197809851806 -107.45366963631528 L9.437500000000012 -107.56952281111074 L9.437500000000021 -106.81749960588955 L9.861111111111123 -106.68790632379465 L9.861111111111128 -107.4399295290158 z"/>
<path fill="#bababa" stroke="#bababa" d="M9.861111111111109 -107.43992952901584 L9.861111111111109 -106.68790632379465 L10.208053691275166 -106.83292972494915 L9.865771812080535 -107.44187772086369 z"/>
<path fill="#bababa" stroke="#bababa" d="M9.4375 -107.56952281111076 L9.4375 -107.76180928208846 L9.4375 -107.00978607686729 L9.4375 -106.81749960588958 z"/>
<path fill="#bababa" stroke="#bababa" d="M9.865771812080535 -79.56747959566069 L9.865771812080535 -107.44187772086366 L10.208053691275158 -106.83292972494914 L10.208053691275165 -78.90356108647934 z"/>
<path fill="#bababa" stroke="#bababa" d="M9.437499999999998 -106.81749960588957 L9.437499999999998 -107.00978607686727 L9.268456375838925 -106.96627358605349 L9.268456375838925 -78.66170505813471 L10.208053691275166 -78.90356108647934 L10.208053691275166 -106.83292972494912 L9.861111111111109 -106.68790632379464 z"/>
<path fill="#bababa" stroke="#bababa" d="M8.926174496644295 -79.32562356731606 L9.268456375838925 -78.66170505813471 L9.268456375838923 -106.96627358605349 L8.926174496644293 -107.63019209523485 z"/>
<path fill="#bababa" stroke="#bababa" d="M9.437499999999998 -107.62356045998594 L9.437499999999998 -107.56952281111073 L9.861111111111109 -107.43992952901581 L9.865771812080537 -107.44187772086366 L9.865771812080537 -79.5674795956607 L8.926174496644293 -79.32562356731606 L8.926174496644293 -107.63019209523482 L9.437499999999998 -107.76180928208845 z"/>
<path fill="#bababa" stroke="#bababa" d="M9.4375 -107.76180928208846 L8.926174496644295 -107.63019209523486 L9.268456375838925 -106.96627358605352 L9.4375 -107.0097860768673 z"/>
<path fill="#bababa" stroke="#bababa" d="M9.865771812080537 -79.5674795956607 L10.208053691275166 -78.90356108647937 L9.268456375838925 -78.66170505813473 L8.926174496644295 -79.32562356731609 z"/>
<path fill="#bababa" stroke="#bababa" d="M55 -118.22722987672226 L55 -118.20704133430021 L55.07843137254902 -118.25019504388487 z"/>
<path fill="#bababa" stroke="#bababa" d="M54.369127516778526 -118.37164683012848 L54.46951219512195 -118.22582164523601 L54.46951219512195 -118.38255982596083 L54.275000000000006 -118.71518884457333 z"/>
<path fill="#bababa" stroke="#bababa" d="M54.46951219512194 -118.22582164523604 L54.99999999999999 -118.20704133430023 L54.99999999999999 -118.22722987672228 L54.46951219512194 -118.38255982596085 z"/>
<path fill="#bababa" stroke="#bababa" d="M54.489528795811516 -118.75794053662072 L54.275 -118.75794053662072 L54.275 -118.71518884457335 L54.46951219512195 -118.38255982596083 L55 -118.22722987672225 L55.07843137254902 -118.25019504388487 L55.07843137254902 -118.75794053662072 z"/>
<path fill="#bababa" stroke="#bababa" d="M55.308724832214764 -90.51265044702171 L54.96644295302013 -91.17656895620304 L54.96644295302013 -119.48113748412183 L55.308724832214764 -118.81721897494049 z"/>
<path fill="#bababa" stroke="#bababa" d="M55.07843137254901 -118.28272903069856 L55.07843137254901 -118.25019504388486 L54.999999999999986 -118.2070413343002 L54.469512195121936 -118.22582164523602 L54.36912751677851 -118.37164683012848 L54.36912751677851 -90.27079441867707 L55.30872483221476 -90.51265044702171 L55.30872483221476 -118.81721897494049 L55.07843137254901 -118.75794053662072 z"/>
<path fill="#bababa" stroke="#bababa" d="M54.275 -118.71518884457333 L54.275 -118.75794053662072 L54.02684563758389 -119.2392814557772 L54.02684563758389 -90.93471292785841 L54.36912751677852 -90.27079441867708 L54.36912751677852 -118.3716468301285 z"/>
<path fill="#bababa" stroke="#bababa" d="M54.96644295302013 -91.17656895620306 L54.02684563758388 -90.93471292785841 L54.02684563758388 -119.2392814557772 L54.96644295302013 -119.48113748412185 z"/>
<path fill="#bababa" stroke="#bababa" d="M54.96644295302013 -119.48113748412186 L54.02684563758389 -119.23928145577722 L54.275 -118.75794053662074 L55.07843137254902 -118.75794053662074 L55.308724832214764 -118.8172189749405 z"/>
<path fill="#bababa" stroke="#bababa" d="M54.96644295302013 -91.17656895620307 L55.308724832214764 -90.51265044702173 L54.36912751677852 -90.27079441867708 L54.02684563758389 -90.93471292785843 z"/>
<path fill="#bababa" stroke="#bababa" d="M0.8959731543624129 -105.27599320585385 L1.4093959731543633 -104.28011544208182 L1.409395973154363 -78.09838955375696 L0.8959731543624151 -79.09426731752897 z"/>
<path fill="#bababa" stroke="#bababa" d="M59.15100671140939 -94.0893410748962 L59.66442953020134 -93.09346331112417 L59.66442953020133 -119.27518919944906 L59.151006711409394 -120.27106696322106 z"/>
<path fill="#bababa" stroke="#bababa" d="M0.8959731543624161 -79.094267317529 L1.4093959731543624 -78.09838955375697 L59.66442953020134 -93.09346331112421 L59.151006711409394 -94.08934107489621 z"/>
<path fill="#bababa" stroke="#bababa" d="M59.151006711409394 -120.2710669632211 L59.66442953020134 -119.27518919944907 L1.4093959731543624 -104.28011544208185 L0.8959731543624161 -105.27599320585388 z"/>
<path fill="#bababa" stroke="#bababa" d="M61.0738255033557 -120.34558745516398 L61.0738255033557 -92.74863314044316 L60.560402684563755 -93.74451090421518 L60.56040268456376 -121.34146521893598 z"/>
<path fill="#bababa" stroke="#bababa" d="M0 -104.62494561276287 L61.0738255033557 -120.345587455164 L60.560402684563755 -121.34146521893602 L-0.5134228187919463 -105.62082337653491 z"/>
<path fill="#bababa" stroke="#bababa" d="M-2.2390466759356338e-15 -77.02799129804205 L3.2630667723684205e-15 -104.62494561276284 L-0.5134228187919464 -105.62082337653487 L-0.5134228187919493 -78.02386906181407 z"/>
<path fill="#bababa" stroke="#bababa" d="M61.0738255033557 -92.74863314044318 L0 -77.02799129804207 L-0.5134228187919463 -78.02386906181408 L60.560402684563755 -93.74451090421519 z"/>
<path fill="#bababa" stroke="#bababa" d="M60.56040268456375 -93.74451090421518 L-0.5134228187919462 -78.02386906181405 L-0.5134228187919462 -105.62082337653487 L60.56040268456375 -121.341465218936 z M1.0525727069351227 -105.31630254391129 L0.895973154362416 -105.27599320585385 L0.895973154362416 -79.09426731752897 L59.151006711409394 -94.0893410748962 L59.151006711409394 -120.27106696322107 z"/>
<path fill="#bababa" stroke="#bababa" d="M0 -104.62494561276286 L0 -77.02799129804204 L61.07382550335569 -92.74863314044316 L61.07382550335569 -120.34558745516397 z M1.5659955257270692 -104.32042478013926 L59.66442953020134 -119.27518919944904 L59.66442953020134 -93.09346331112418 L1.4093959731543622 -78.09838955375697 L1.4093959731543622 -104.28011544208184 z"/>
<path fill="#3c3c3c" stroke="#3c3c3c" d="M59.151006711409394 -120.27106696322106 L59.66442953020133 -119.27518919944906 L59.66442953020134 -93.09346331112417 L59.15100671140939 -94.0893410748962 z"/>
<path fill="#3c3c3c" stroke="#3c3c3c" d="M0.8959731543624161 -105.27599320585388 L1.4093959731543624 -104.28011544208186 L59.66442953020134 -119.27518919944907 L59.151006711409394 -120.2710669632211 z"/>
<path fill="#3c3c3c" stroke="#3c3c3c" d="M0.8959731543624151 -79.09426731752897 L1.409395973154363 -78.09838955375696 L1.4093959731543633 -104.28011544208182 L0.8959731543624129 -105.27599320585385 z"/>
<path fill="#3c3c3c" stroke="#3c3c3c" d="M59.151006711409394 -94.08934107489623 L59.66442953020134 -93.0934633111242 L1.4093959731543624 -78.09838955375697 L0.8959731543624161 -79.09426731752899 z"/>
<path fill="#3c3c3c" stroke="#3c3c3c" d="M59.15100671140939 -120.27106696322106 L59.15100671140939 -94.0893410748962 L0.8959731543624161 -79.09426731752897 L0.8959731543624161 -105.27599320585384 z"/>
<path fill="#3c3c3c" stroke="#3c3c3c" d="M59.66442953020133 -119.27518919944904 L1.4093959731543622 -104.28011544208182 L1.4093959731543622 -78.09838955375697 L59.66442953020133 -93.09346331112418 z"/>
<path fill="#bababa" stroke="#bababa" d="M10.389150943396228 7.539598637954408 L10.625000000000002 7.885714285714284 L10.625 5.0593183466279905 L10.389150943396228 4.713202698868114 z"/>
<path fill="#bababa" stroke="#bababa" d="M9.861111111111109 7.454795373830898 L10.389150943396224 7.5395986379544 L10.389150943396224 4.713202698868112 L9.861111111111109 4.628399434744609 z"/>
<path fill="#bababa" stroke="#bababa" d="M9.4375 8.078000756691994 L9.4375 7.693427814736576 L9.4375 4.867031875650282 L9.4375 5.2516048176057 z"/>
<path fill="#bababa" stroke="#bababa" d="M9.86111111111111 8.316633197597664 L9.4375 8.078000756691994 L9.4375 5.2516048176057 L9.86111111111111 5.49023725851137 z"/>
<path fill="#bababa" stroke="#bababa" d="M9.437499999999996 7.693427814736577 L9.861111111111109 7.4547953738309065 L9.861111111111109 4.628399434744612 L9.437499999999996 4.867031875650282 z"/>
<path fill="#bababa" stroke="#bababa" d="M10.389150943396224 8.231829933474158 L9.861111111111109 8.316633197597659 L9.861111111111109 5.490237258511367 L10.389150943396224 5.405433994387864 z"/>
<path fill="#bababa" stroke="#bababa" d="M10.624999999999996 7.885714285714284 L10.389150943396224 8.23182993347416 L10.389150943396224 5.405433994387867 L10.624999999999998 5.0593183466279905 z"/>
<path fill="#bababa" stroke="#bababa" d="M10.389150943396226 4.713202698868114 L10.625 5.0593183466279905 L10.389150943396226 5.405433994387867 L9.86111111111111 5.490237258511369 L9.4375 5.2516048176057 L9.4375 4.867031875650282 L9.86111111111111 4.628399434744612 z"/>
<path fill="#bababa" stroke="#bababa" d="M10.625 7.885714285714285 L10.389150943396226 7.539598637954408 L9.86111111111111 7.4547953738309065 L9.4375 7.693427814736576 L9.4375 8.078000756691994 L9.86111111111111 8.316633197597664 L10.389150943396226 8.231829933474161 z"/>
<path fill="#bababa" stroke="#bababa" d="M54.86111111111111 4.628399434744612 L55.389150943396224 4.713202698868114 L55.625 5.0593183466279905 L55.389150943396224 5.405433994387867 L54.86111111111111 5.490237258511369 L54.4375 5.2516048176057 L54.4375 4.867031875650282 z"/>
<path fill="#bababa" stroke="#bababa" d="M55.625 5.0593183466279905 L55.389150943396224 4.713202698868114 L55.389150943396224 7.539598637954408 L55.625 7.885714285714284 z"/>
<path fill="#bababa" stroke="#bababa" d="M54.86111111111111 7.4547953738309 L55.389150943396224 7.539598637954403 L55.389150943396224 4.713202698868104 L54.86111111111111 4.628399434744601 z"/>
<path fill="#bababa" stroke="#bababa" d="M54.4375 8.078000756691994 L54.4375 7.693427814736576 L54.4375 4.867031875650282 L54.4375 5.2516048176057 z"/>
<path fill="#bababa" stroke="#bababa" d="M54.86111111111111 5.49023725851137 L54.86111111111111 8.316633197597664 L54.4375 8.078000756691994 L54.4375 5.2516048176057 z"/>
<path fill="#bababa" stroke="#bababa" d="M54.43749999999999 7.693427814736577 L54.86111111111111 7.4547953738309065 L54.86111111111111 4.628399434744612 L54.43749999999999 4.867031875650282 z"/>
<path fill="#bababa" stroke="#bababa" d="M54.86111111111111 8.316633197597662 L54.86111111111111 5.490237258511369 L55.389150943396224 5.405433994387867 L55.389150943396224 8.23182993347416 z"/>
<path fill="#bababa" stroke="#bababa" d="M55.62499999999999 7.885714285714284 L55.389150943396224 8.23182993347416 L55.389150943396224 5.405433994387867 L55.62499999999999 5.0593183466279905 z"/>
<path fill="#bababa" stroke="#bababa" d="M55.389150943396224 7.539598637954408 L54.86111111111111 7.4547953738309065 L54.4375 7.693427814736576 L54.4375 8.078000756691994 L54.86111111111111 8.316633197597664 L55.389150943396224 8.231829933474161 L55.625 7.885714285714285 z"/>
<path fill="#bababa" stroke="#bababa" d="M55.53048780487805 4.683937635968092 L55.75 5.0593183466279905 L55.75 -5.5396664249456125 L55.53048780487804 -5.91504713560551 z"/>
<path fill="#bababa" stroke="#bababa" d="M54.99999999999999 4.5286076867295115 L55.53048780487804 4.683937635968091 L55.53048780487804 -5.915047135605511 L54.99999999999999 -6.0703770848440906 z"/>
<path fill="#bababa" stroke="#bababa" d="M54.46951219512194 4.68393763596809 L54.99999999999999 4.528607686729512 L54.99999999999999 -6.0703770848440906 L54.46951219512194 -5.915047135605512 z"/>
<path fill="#bababa" stroke="#bababa" d="M54.24999999999999 5.0593183466279905 L54.46951219512194 4.683937635968092 L54.46951219512195 -5.91504713560551 L54.24999999999999 -5.5396664249456125 z"/>
<path fill="#bababa" stroke="#bababa" d="M54.46951219512195 5.434699057287888 L54.25 5.0593183466279905 L54.25 -5.5396664249456125 L54.46951219512195 -5.164285714285713 z"/>
<path fill="#bababa" stroke="#bababa" d="M54.99999999999999 5.59002900652646 L54.46951219512194 5.434699057287881 L54.46951219512194 -5.164285714285721 L54.99999999999999 -5.008955765047142 z"/>
<path fill="#bababa" stroke="#bababa" d="M55.53048780487804 5.434699057287886 L54.99999999999999 5.590029006526465 L54.99999999999999 -5.008955765047134 L55.53048780487804 -5.164285714285715 z"/>
<path fill="#bababa" stroke="#bababa" d="M55.74999999999999 5.0593183466279905 L55.53048780487804 5.434699057287888 L55.53048780487804 -5.164285714285713 L55.74999999999999 -5.5396664249456125 z"/>
<path fill="#bababa" stroke="#bababa" d="M55 -6.070377084844089 L55.53048780487804 -5.91504713560551 L55.75 -5.5396664249456125 L55.53048780487804 -5.164285714285714 L55 -5.008955765047134 L54.46951219512195 -5.164285714285714 L54.25 -5.5396664249456125 L54.46951219512195 -5.91504713560551 z"/>
<path fill="#bababa" stroke="#bababa" d="M55.53048780487804 4.683937635968092 L55 4.528607686729513 L54.46951219512195 4.683937635968092 L54.25 5.0593183466279905 L54.46951219512195 5.434699057287889 L55 5.590029006526467 L55.53048780487804 5.434699057287889 L55.75 5.0593183466279905 z"/>
<path fill="#bababa" stroke="#bababa" d="M10.38915094339623 -49.069538417883145 L10.625000000000005 -48.72342277012327 L10.625000000000002 -51.54981870920957 L10.389150943396231 -51.89593435696944 z"/>
<path fill="#bababa" stroke="#bababa" d="M9.861111111111109 -49.15434168200666 L10.389150943396224 -49.06953841788316 L10.389150943396224 -51.89593435696945 L9.861111111111109 -51.98073762109295 z"/>
<path fill="#bababa" stroke="#bababa" d="M9.4375 -48.531136299145565 L9.4375 -48.915709241100984 L9.4375 -51.74210518018728 L9.4375 -51.35753223823186 z"/>
<path fill="#bababa" stroke="#bababa" d="M9.86111111111111 -48.2925038582399 L9.437500000000012 -48.53113629914555 L9.437500000000014 -51.35753223823185 L9.861111111111114 -51.11889979732619 z"/>
<path fill="#bababa" stroke="#bababa" d="M9.437499999999993 -48.91570924110098 L9.861111111111109 -49.15434168200665 L9.861111111111107 -51.98073762109295 L9.437499999999991 -51.742105180187274 z"/>
<path fill="#bababa" stroke="#bababa" d="M10.389150943396224 -48.3773071223634 L9.861111111111109 -48.2925038582399 L9.861111111111109 -51.11889979732621 L10.389150943396224 -51.20370306144971 z"/>
<path fill="#bababa" stroke="#bababa" d="M10.624999999999993 -48.72342277012327 L10.389150943396222 -48.3773071223634 L10.38915094339622 -51.20370306144969 L10.624999999999996 -51.54981870920957 z"/>
<path fill="#bababa" stroke="#bababa" d="M10.389150943396226 -51.89593435696944 L10.625 -51.54981870920957 L10.389150943396226 -51.20370306144969 L9.86111111111111 -51.118899797326186 L9.4375 -51.357532238231855 L9.4375 -51.742105180187274 L9.86111111111111 -51.98073762109294 z"/>
<path fill="#bababa" stroke="#bababa" d="M10.625 -48.72342277012327 L10.389150943396226 -49.069538417883145 L9.86111111111111 -49.15434168200665 L9.4375 -48.91570924110098 L9.4375 -48.531136299145565 L9.86111111111111 -48.29250385823989 L10.389150943396226 -48.3773071223634 z"/>
<path fill="#bababa" stroke="#bababa" d="M54.86111111111111 -51.98073762109294 L55.389150943396224 -51.89593435696944 L55.625 -51.54981870920957 L55.389150943396224 -51.20370306144969 L54.86111111111111 -51.118899797326186 L54.4375 -51.357532238231855 L54.4375 -51.742105180187274 z"/>
<path fill="#bababa" stroke="#bababa" d="M55.625 -51.54981870920957 L55.38915094339623 -51.89593435696944 L55.389150943396224 -49.069538417883145 L55.625 -48.72342277012327 z"/>
<path fill="#bababa" stroke="#bababa" d="M54.86111111111111 -49.15434168200666 L55.389150943396224 -49.06953841788316 L55.389150943396224 -51.89593435696945 L54.86111111111111 -51.98073762109295 z"/>
<path fill="#bababa" stroke="#bababa" d="M54.4375 -48.531136299145565 L54.4375 -48.915709241100984 L54.4375 -51.74210518018728 L54.4375 -51.35753223823186 z"/>
<path fill="#bababa" stroke="#bababa" d="M54.861111111111114 -51.11889979732619 L54.86111111111111 -48.2925038582399 L54.43750000000001 -48.53113629914555 L54.437500000000014 -51.35753223823185 z"/>
<path fill="#bababa" stroke="#bababa" d="M54.43749999999999 -48.91570924110098 L54.86111111111111 -49.15434168200665 L54.86111111111111 -51.98073762109295 L54.437499999999986 -51.742105180187274 z"/>
<path fill="#bababa" stroke="#bababa" d="M54.86111111111111 -48.2925038582399 L54.86111111111111 -51.1188997973262 L55.389150943396224 -51.2037030614497 L55.389150943396224 -48.3773071223634 z"/>
<path fill="#bababa" stroke="#bababa" d="M55.62499999999999 -48.72342277012327 L55.38915094339622 -48.3773071223634 L55.38915094339622 -51.20370306144969 L55.62499999999999 -51.54981870920957 z"/>
<path fill="#bababa" stroke="#bababa" d="M55.389150943396224 -49.069538417883145 L54.86111111111111 -49.15434168200665 L54.4375 -48.91570924110098 L54.4375 -48.531136299145565 L54.86111111111111 -48.29250385823989 L55.389150943396224 -48.3773071223634 L55.625 -48.72342277012327 z"/>
<path fill="#bababa" stroke="#bababa" d="M55.53048780487805 -51.925199419869465 L55.75 -51.54981870920957 L55.75 -62.14880348078316 L55.53048780487805 -62.52418419144307 z"/>
<path fill="#bababa" stroke="#bababa" d="M54.99999999999999 -52.08052936910806 L55.53048780487804 -51.92519941986948 L55.53048780487804 -62.524184191443084 L54.99999999999999 -62.67951414068167 z"/>
<path fill="#bababa" stroke="#bababa" d="M54.46951219512194 -51.92519941986947 L54.99999999999999 -52.08052936910805 L54.99999999999999 -62.679514140681654 L54.46951219512194 -62.52418419144308 z"/>
<path fill="#bababa" stroke="#bababa" d="M54.24999999999999 -51.54981870920957 L54.46951219512194 -51.925199419869465 L54.46951219512194 -62.52418419144307 L54.24999999999999 -62.14880348078316 z"/>
<path fill="#bababa" stroke="#bababa" d="M54.46951219512195 -51.174437998549664 L54.25 -51.54981870920957 L54.25 -62.14880348078316 L54.46951219512195 -61.77342277012326 z"/>
<path fill="#bababa" stroke="#bababa" d="M54.99999999999999 -51.01910804931111 L54.46951219512194 -51.174437998549685 L54.46951219512194 -61.77342277012328 L54.99999999999999 -61.618092820884705 z"/>
<path fill="#bababa" stroke="#bababa" d="M55.53048780487804 -51.17443799854967 L54.99999999999999 -51.01910804931109 L54.99999999999999 -61.6180928208847 L55.53048780487804 -61.773422770123275 z"/>
<path fill="#bababa" stroke="#bababa" d="M55.74999999999999 -51.54981870920957 L55.53048780487804 -51.174437998549664 L55.53048780487804 -61.77342277012326 L55.74999999999999 -62.14880348078316 z"/>
<path fill="#bababa" stroke="#bababa" d="M55 -62.67951414068165 L55.53048780487804 -62.52418419144307 L55.75 -62.148803480783165 L55.53048780487804 -61.77342277012327 L55 -61.61809282088469 L54.46951219512195 -61.77342277012327 L54.25 -62.148803480783165 L54.46951219512195 -62.52418419144307 z"/>
<path fill="#bababa" stroke="#bababa" d="M55.53048780487804 -51.92519941986946 L55 -52.080529369108035 L54.46951219512195 -51.92519941986946 L54.25 -51.54981870920956 L54.46951219512195 -51.17443799854967 L55 -51.01910804931109 L55.53048780487804 -51.17443799854967 L55.75 -51.54981870920956 z"/>
<path fill="#bababa" stroke="#bababa" d="M10.389150943396231 -105.6786754737207 L10.62500000000001 -105.33255982596083 L10.625000000000009 -108.15895576504712 L10.389150943396237 -108.505071412807 z"/>
<path fill="#bababa" stroke="#bababa" d="M9.861111111111109 -105.76347873784421 L10.389150943396224 -105.67867547372072 L10.389150943396224 -108.50507141280703 L9.861111111111109 -108.58987467693052 z"/>
<path fill="#bababa" stroke="#bababa" d="M9.4375 -105.14027335498312 L9.4375 -105.52484629693855 L9.4375 -108.35124223602483 L9.4375 -107.96666929406942 z"/>
<path fill="#bababa" stroke="#bababa" d="M9.861111111111112 -104.90164091407746 L9.437500000000032 -105.1402733549831 L9.437500000000039 -107.96666929406939 L9.861111111111155 -107.72803685316372 z"/>
<path fill="#bababa" stroke="#bababa" d="M9.437499999999986 -105.52484629693855 L9.861111111111066 -105.76347873784418 L9.86111111111107 -108.58987467693048 L9.437499999999988 -108.35124223602485 z"/>
<path fill="#bababa" stroke="#bababa" d="M10.389150943396224 -104.98644417820097 L9.861111111111109 -104.90164091407746 L9.861111111111109 -107.72803685316376 L10.389150943396224 -107.81284011728725 z"/>
<path fill="#bababa" stroke="#bababa" d="M10.624999999999988 -105.33255982596083 L10.389150943396215 -104.98644417820095 L10.389150943396219 -107.81284011728724 L10.62499999999999 -108.15895576504712 z"/>
<path fill="#bababa" stroke="#bababa" d="M10.389150943396226 -108.505071412807 L10.625 -108.15895576504712 L10.389150943396226 -107.81284011728724 L9.86111111111111 -107.72803685316374 L9.4375 -107.9666692940694 L9.4375 -108.35124223602483 L9.86111111111111 -108.58987467693049 z"/>
<path fill="#bababa" stroke="#bababa" d="M10.625 -105.33255982596081 L10.389150943396226 -105.6786754737207 L9.86111111111111 -105.7634787378442 L9.4375 -105.52484629693853 L9.4375 -105.14027335498312 L9.86111111111111 -104.90164091407743 L10.389150943396226 -104.98644417820095 z"/>
<path fill="#bababa" stroke="#bababa" d="M54.86111111111111 -108.58987467693049 L55.389150943396224 -108.505071412807 L55.625 -108.15895576504712 L55.389150943396224 -107.81284011728724 L54.86111111111111 -107.72803685316374 L54.4375 -107.9666692940694 L54.4375 -108.35124223602483 z"/>
<path fill="#bababa" stroke="#bababa" d="M55.62500000000001 -108.15895576504712 L55.38915094339623 -108.505071412807 L55.38915094339623 -105.6786754737207 L55.62500000000001 -105.33255982596083 z"/>
<path fill="#bababa" stroke="#bababa" d="M54.86111111111111 -105.76347873784424 L55.389150943396224 -105.67867547372073 L55.389150943396224 -108.50507141280701 L54.86111111111111 -108.58987467693052 z"/>
<path fill="#bababa" stroke="#bababa" d="M54.4375 -105.14027335498312 L54.4375 -105.52484629693855 L54.4375 -108.35124223602483 L54.4375 -107.96666929406942 z"/>
<path fill="#bababa" stroke="#bababa" d="M54.86111111111115 -107.72803685316372 L54.86111111111111 -104.90164091407746 L54.43750000000003 -105.1402733549831 L54.437500000000036 -107.96666929406939 z"/>
<path fill="#bababa" stroke="#bababa" d="M54.437499999999986 -105.52484629693855 L54.861111111111065 -105.76347873784418 L54.861111111111065 -108.58987467693048 L54.437499999999986 -108.35124223602485 z"/>
<path fill="#bababa" stroke="#bababa" d="M54.86111111111111 -104.90164091407748 L54.86111111111111 -107.72803685316376 L55.389150943396224 -107.81284011728727 L55.389150943396224 -104.98644417820097 z"/>
<path fill="#bababa" stroke="#bababa" d="M55.624999999999986 -105.33255982596083 L55.38915094339621 -104.98644417820095 L55.38915094339622 -107.81284011728724 L55.624999999999986 -108.15895576504712 z"/>
<path fill="#bababa" stroke="#bababa" d="M55.389150943396224 -105.6786754737207 L54.86111111111111 -105.7634787378442 L54.4375 -105.52484629693853 L54.4375 -105.14027335498312 L54.86111111111111 -104.90164091407743 L55.389150943396224 -104.98644417820095 L55.625 -105.33255982596081 z"/>
<path fill="#bababa" stroke="#bababa" d="M55.53048780487805 -108.53433647570702 L55.75000000000001 -108.15895576504712 L55.75 -118.75794053662072 L55.53048780487805 -119.1333212472806 z"/>
<path fill="#bababa" stroke="#bababa" d="M54.99999999999999 -108.68966642494563 L55.53048780487804 -108.53433647570705 L55.53048780487804 -119.13332124728065 L54.99999999999999 -119.28865119651923 z"/>
<path fill="#bababa" stroke="#bababa" d="M54.46951219512194 -108.53433647570704 L54.99999999999999 -108.68966642494561 L54.99999999999999 -119.28865119651921 L54.46951219512194 -119.13332124728063 z"/>
<path fill="#bababa" stroke="#bababa" d="M54.249999999999986 -108.15895576504712 L54.46951219512194 -108.53433647570702 L54.46951219512194 -119.1333212472806 L54.24999999999999 -118.75794053662072 z"/>
<path fill="#bababa" stroke="#bababa" d="M54.46951219512196 -107.78357505438723 L54.25000000000001 -108.15895576504712 L54.25 -118.75794053662072 L54.46951219512196 -118.38255982596083 z"/>
<path fill="#bababa" stroke="#bababa" d="M54.99999999999999 -107.62824510514866 L54.46951219512194 -107.78357505438724 L54.46951219512194 -118.38255982596085 L54.99999999999999 -118.22722987672228 z"/>
<path fill="#bababa" stroke="#bababa" d="M55.53048780487804 -107.78357505438724 L54.99999999999999 -107.62824510514865 L54.99999999999999 -118.22722987672226 L55.53048780487804 -118.38255982596084 z"/>
<path fill="#bababa" stroke="#bababa" d="M55.749999999999986 -108.15895576504712 L55.530487804878035 -107.78357505438723 L55.530487804878035 -118.38255982596083 L55.74999999999999 -118.75794053662072 z"/>
<path fill="#bababa" stroke="#bababa" d="M55 -119.2886511965192 L55.53048780487804 -119.13332124728062 L55.75 -118.75794053662072 L55.53048780487804 -118.38255982596084 L55 -118.22722987672225 L54.46951219512195 -118.38255982596084 L54.25 -118.75794053662072 L54.46951219512195 -119.13332124728062 z"/>
<path fill="#bababa" stroke="#bababa" d="M55.53048780487804 -108.53433647570701 L55 -108.6896664249456 L54.46951219512195 -108.53433647570701 L54.25 -108.15895576504712 L54.46951219512195 -107.78357505438723 L55 -107.62824510514864 L55.53048780487804 -107.78357505438723 L55.75 -108.15895576504712 z"/>
</svg>